<svg width="109" height="109" viewBox="0 0 109 109" fill="none" xmlns="http://www.w3.org/2000/svg">
<g clip-path="url(#clip0_1419_5234)">
<path d="M54.2 108.4C84.1338 108.4 108.4 84.1338 108.4 54.2C108.4 24.2662 84.1338 0 54.2 0C24.2662 0 0 24.2662 0 54.2C0 84.1338 24.2662 108.4 54.2 108.4Z" fill="#90C9D6"/>
</g>
<path d="M54.2997 83.48C69.8804 83.48 81.0094 77.96 81.0094 65.6735C81.0094 52.3187 74.332 43.4155 60.9771 36.7381L66.23 29.9716C66.4969 29.5276 66.6416 29.021 66.6496 28.5031C66.6576 27.9852 66.5285 27.4743 66.2754 27.0224C66.0223 26.5704 65.6542 26.1934 65.2084 25.9296C64.7627 25.6658 64.2551 25.5244 63.7371 25.52H44.8623C44.3443 25.5244 43.8367 25.6658 43.391 25.9296C42.9452 26.1934 42.5771 26.5704 42.3241 27.0224C42.071 27.4743 41.9419 27.9852 41.9498 28.5031C41.9578 29.021 42.1025 29.5276 42.3694 29.9716L47.6223 36.7826C34.2674 43.5045 27.59 52.4077 27.59 65.7626C27.59 77.96 38.7191 83.48 54.2997 83.48Z" fill="#EEF6FD" stroke="#1E6188" stroke-width="2.5" stroke-linecap="round" stroke-linejoin="round"/>
<path d="M49.8481 65.9852C50.3912 66.6299 51.0749 67.1417 51.8465 67.4812C52.6182 67.8207 53.4574 67.979 54.2997 67.9439C55.5871 68.0316 56.8584 67.6168 57.8463 66.7866C58.8343 65.9565 59.5971 64.9492 59.5971 63.4923C59.5971 62.0353 58.8343 61.0281 57.8463 60.1979C56.8584 59.3677 55.4116 59.1995 54.2997 59.0407C53.1878 58.8818 51.7409 58.7136 50.753 57.8834C49.7651 57.0532 49.0061 56.046 49.0023 54.589C48.9984 53.1295 49.7512 52.1136 50.7417 51.2812C51.7322 50.4489 53.0097 50.0382 54.2997 50.1374C55.1272 50.0868 55.9556 50.2202 56.7253 50.5281C57.4951 50.836 58.187 51.3107 58.7513 51.9181" fill="#EEF6FD"/>
<path d="M49.8481 65.9852C50.3912 66.6299 51.0749 67.1417 51.8465 67.4812C52.6182 67.8207 53.4574 67.979 54.2997 67.9439C55.5871 68.0316 56.8584 67.6168 57.8463 66.7866C58.8343 65.9565 59.5971 64.9492 59.5971 63.4923C59.5971 62.0353 58.8343 61.0281 57.8463 60.1979C56.8584 59.3677 55.4116 59.1995 54.2997 59.0407C53.1878 58.8818 51.7409 58.7136 50.753 57.8834C49.7651 57.0532 49.0061 56.046 49.0023 54.589C48.9984 53.1295 49.7512 52.1136 50.7417 51.2812C51.7322 50.4489 53.0097 50.0382 54.2997 50.1374C55.1272 50.0868 55.9556 50.2202 56.7253 50.5281C57.4951 50.836 58.187 51.3107 58.7513 51.9181" stroke="#F1512C" stroke-width="6" stroke-linecap="round" stroke-linejoin="round"/>
<path d="M54.2997 68.0329V72.529" stroke="#F1512C" stroke-width="6" stroke-linecap="round" stroke-linejoin="round"/>
<path d="M54.2997 45.7303V49.9148" stroke="#F1512C" stroke-width="6" stroke-linecap="round" stroke-linejoin="round"/>
<defs>
<clipPath id="clip0_1419_5234">
<rect width="108.39" height="108.39" fill="white"/>
</clipPath>
</defs>
</svg>
