<svg width="109" height="109" viewBox="0 0 109 109" fill="none" xmlns="http://www.w3.org/2000/svg">
<g clip-path="url(#clip0_1419_5280)">
<path d="M54.2 108.4C84.1338 108.4 108.4 84.1338 108.4 54.2C108.4 24.2662 84.1338 0 54.2 0C24.2662 0 0 24.2662 0 54.2C0 84.1338 24.2662 108.4 54.2 108.4Z" fill="#8FC8D5"/>
<path d="M35.8958 38.8714C36.9749 37.0718 36.4425 34.6923 34.6872 33.5769C32.9463 32.4615 30.6586 33.0118 29.5652 34.8113C28.9609 35.8375 28.8889 37.0272 29.2199 38.0683C28.1552 38.217 27.1624 38.8267 26.5581 39.838C25.479 41.6524 26.0114 44.0171 27.7523 45.1474C29.4932 46.2628 31.7953 45.7125 32.8744 43.8981C32.9175 43.8535 32.9319 43.794 32.9607 43.7345L46.1255 52.1819L48.9599 47.4525L35.7951 39.0201C35.8238 38.9606 35.867 38.9308 35.8958 38.8714Z" fill="#D9D9D9" stroke="#29678F" stroke-width="2" stroke-miterlimit="10"/>
<path d="M80.9869 63.2617C79.246 62.1463 76.9439 62.6966 75.8649 64.511C75.8361 64.5556 75.8217 64.6151 75.7929 64.6746L62.6281 56.2272L59.7937 60.9566L72.9585 69.4039C72.9298 69.4485 72.8866 69.4931 72.8578 69.5377C71.7787 71.3373 72.3111 73.7168 74.0664 74.8322C75.8073 75.9476 78.1094 75.3973 79.1884 73.5829C79.7927 72.5716 79.8791 71.3819 79.5337 70.326C80.5984 70.1772 81.5912 69.5675 82.2099 68.5562C83.2746 66.7418 82.7422 64.3771 80.9869 63.2617Z" fill="#D9D9D9" stroke="#29678F" stroke-width="2" stroke-miterlimit="10"/>
<path d="M46.1257 56.2123L32.9609 64.6597C32.9321 64.6151 32.9178 64.5556 32.889 64.4961C31.8099 62.6966 29.5078 62.1314 27.7669 63.2468C26.026 64.3622 25.4793 66.7418 26.5583 68.5413C27.1626 69.5675 28.1554 70.1772 29.2201 70.3259C28.8748 71.3819 28.9611 72.5716 29.5654 73.5829C30.6445 75.3824 32.9465 75.9476 34.6875 74.8322C36.4284 73.7168 36.9751 71.3372 35.896 69.5377C35.8672 69.4782 35.8241 69.4336 35.7953 69.389L48.9601 60.9417L46.1257 56.2123Z" fill="#D9D9D9" stroke="#29678F" stroke-width="2" stroke-miterlimit="10"/>
<path d="M62.6142 52.1818L75.779 43.7344C75.8078 43.7791 75.8222 43.8385 75.8509 43.898C76.93 45.6976 79.2321 46.2627 80.973 45.1473C82.7139 44.0319 83.2606 41.6524 82.1816 39.8528C81.5773 38.8415 80.5701 38.2318 79.5054 38.0831C79.8507 37.0271 79.7644 35.8374 79.1601 34.8261C78.081 33.0265 75.779 32.4614 74.0381 33.5768C72.2971 34.6922 71.7504 37.0718 72.8295 38.8713C72.8583 38.9159 72.9014 38.9605 72.9302 39.0051L59.7654 47.4525L62.6142 52.1818Z" fill="#D9D9D9" stroke="#29678F" stroke-width="2" stroke-miterlimit="10"/>
<path d="M70.2827 52.2115C70.2827 43.1841 63.2039 35.8671 54.4705 35.8671C45.7371 35.8671 38.6583 43.1841 38.6583 52.2115C38.6583 58.1008 41.6798 63.2465 46.2119 66.1317V70.1174C46.2119 71.9318 47.6363 73.419 49.406 73.419H59.348C61.1033 73.419 62.5421 71.9467 62.5421 70.1174V66.2656C67.1749 63.3953 70.2827 58.19 70.2827 52.2115Z" fill="#F7F7F7" stroke="#29678F" stroke-width="2" stroke-miterlimit="10"/>
<path d="M50.2981 68.9723V73.4042" stroke="#29678F" stroke-width="2" stroke-miterlimit="10" stroke-linecap="round"/>
<path d="M54.3696 68.9723V73.4042" stroke="#29678F" stroke-width="2" stroke-miterlimit="10" stroke-linecap="round"/>
<path d="M58.4557 68.9723V73.4042" stroke="#29678F" stroke-width="2" stroke-miterlimit="10" stroke-linecap="round"/>
<path d="M56.2692 63.0683L54.4851 60.7763L52.5427 63.0683" stroke="#29678F" stroke-width="2" stroke-miterlimit="10" stroke-linecap="round" stroke-linejoin="round"/>
<path d="M48.0819 59.9153C50.3386 59.9153 52.168 58.0243 52.168 55.6917C52.168 53.359 50.3386 51.468 48.0819 51.468C45.8252 51.468 43.9957 53.359 43.9957 55.6917C43.9957 58.0243 45.8252 59.9153 48.0819 59.9153Z" fill="#C8C3CA" stroke="#29678F" stroke-width="2" stroke-miterlimit="10"/>
<path d="M60.8724 59.9153C63.1291 59.9153 64.9585 58.0243 64.9585 55.6917C64.9585 53.359 63.1291 51.468 60.8724 51.468C58.6157 51.468 56.7863 53.359 56.7863 55.6917C56.7863 58.0243 58.6157 59.9153 60.8724 59.9153Z" fill="#C8C3CA" stroke="#29678F" stroke-width="2" stroke-miterlimit="10"/>
</g>
<defs>
<clipPath id="clip0_1419_5280">
<rect width="108.39" height="108.39" fill="white"/>
</clipPath>
</defs>
</svg>
