<svg width="108" height="108" viewBox="0 0 108 108" fill="none" xmlns="http://www.w3.org/2000/svg">
<g clip-path="url(#clip0_1419_5252)">
<path d="M54.005 108.01C83.8311 108.01 108.01 83.8311 108.01 54.005C108.01 24.1789 83.8311 0 54.005 0C24.1789 0 0 24.1789 0 54.005C0 83.8311 24.1789 108.01 54.005 108.01Z" fill="#8FC8D5"/>
</g>
<path d="M87.6 82.3L89.87 65.79L88.18 62.87L84.56 64.08L83.3 71.55L52.52 30.81L39.65 36.75L20.42 26L17 27.52L17.48 30.73L39.51 43.15L50.81 38L78.42 74.58L71.31 73.02L68.46 75.35L69.66 78.46L87.6 82.3Z" fill="#F7F7F7" stroke="#29678F" stroke-miterlimit="10"/>
<defs>
<clipPath id="clip0_1419_5252">
<rect width="108" height="108" fill="white"/>
</clipPath>
</defs>
</svg>
