<svg width="109" height="109" viewBox="0 0 109 109" fill="none" xmlns="http://www.w3.org/2000/svg">
<g clip-path="url(#clip0_366_1573)">
<path d="M54.2 108.4C84.1338 108.4 108.4 84.1338 108.4 54.2C108.4 24.2662 84.1338 0 54.2 0C24.2662 0 0 24.2662 0 54.2C0 84.1338 24.2662 108.4 54.2 108.4Z" fill="#EEF6FD"/>
<path d="M6.99576 52C6.90006 52.0008 6.80736 51.9668 6.73519 51.9046C6.66303 51.8423 6.61635 51.756 6.60401 51.662L5.9343 47.0931L5.78267 47.5188C5.74306 47.6162 5.66745 47.6951 5.5712 47.7393C5.47494 47.7835 5.36528 47.7897 5.26459 47.7566C5.16415 47.7199 5.0825 47.6453 5.0375 47.5491C4.99249 47.4529 4.9878 47.3429 5.0245 47.2433L5.71951 45.3282C5.75038 45.2426 5.80972 45.1699 5.88779 45.1222C5.96587 45.0744 6.05803 45.0543 6.14913 45.0653C6.23818 45.0732 6.32185 45.111 6.38621 45.1725C6.45057 45.234 6.49175 45.3154 6.50293 45.4033L6.99576 48.7705L7.76654 43.3379C7.77888 43.2439 7.82556 43.1576 7.89773 43.0954C7.96989 43.0331 8.06255 42.9992 8.15825 43C8.25233 43.0029 8.34287 43.0363 8.41593 43.0951C8.48898 43.1539 8.54051 43.2348 8.56262 43.3254L9.3334 47.4562L10.041 44.6648C10.0587 44.5787 10.1064 44.5015 10.1757 44.4466C10.2449 44.3917 10.3314 44.3626 10.4201 44.3644C10.5081 44.3636 10.594 44.3912 10.6647 44.4432C10.7354 44.4952 10.7871 44.5686 10.8118 44.6523L11.5194 46.9805H18.5956C18.7029 46.9805 18.8057 47.0227 18.8815 47.0978C18.9574 47.1729 19 47.2749 19 47.3811C18.9968 47.4863 18.9532 47.5863 18.878 47.6608C18.8029 47.7352 18.7019 47.7785 18.5956 47.7816H11.2162C11.1287 47.7805 11.0437 47.752 10.9734 47.7003C10.9031 47.6486 10.851 47.5763 10.8245 47.4937L10.458 46.242L9.67459 49.3964C9.65232 49.4825 9.60172 49.5589 9.5308 49.6134C9.45987 49.6679 9.37266 49.6975 9.28288 49.6975C9.1931 49.6975 9.10585 49.6679 9.03492 49.6134C8.964 49.5589 8.91344 49.4825 8.89117 49.3964L8.22142 45.8539L7.40008 51.6369C7.38771 51.7343 7.33972 51.8238 7.26519 51.8884C7.19066 51.953 7.09479 51.9882 6.99576 51.9875V52Z" fill="#2C6185"/>
<path d="M22 39.0005V39.3843C22.7477 39.3753 23.4895 39.5152 24.1807 39.7955C24.8719 40.0759 25.4984 40.4909 26.0222 41.0155C26.546 41.5402 26.9565 42.1637 27.2288 42.8485C27.5012 43.5332 27.6298 44.2651 27.6069 45H27.9972C28.0219 44.2142 27.8844 43.4317 27.5931 42.6996C27.3018 41.9675 26.8626 41.3009 26.3022 40.7402C25.7417 40.1796 25.0716 39.7364 24.3322 39.4374C23.5928 39.1384 22.7994 38.9898 22 39.0005V39.0005Z" fill="#2D6083" stroke="#2D6083" stroke-width="0.25" stroke-miterlimit="10"/>
<path d="M22.1528 37.0004C20.0425 36.9936 18.0155 37.8223 16.5161 39.3049C15.0167 40.7874 14.1671 42.8029 14.1536 44.9097H15.3183C15.3318 43.1124 16.0591 41.394 17.3404 40.1315C18.6218 38.8691 20.3526 38.1657 22.1528 38.1759C23.0346 38.1669 23.909 38.3359 24.7237 38.6729C25.5383 39.0099 26.2762 39.5079 26.8931 40.1369C27.5101 40.7659 27.9932 41.513 28.3135 42.3332C28.6338 43.1534 28.7846 44.0298 28.757 44.9097C28.757 47.1713 26.594 49.5607 24.8533 51.4773C23.7243 52.5082 22.8484 53.7849 22.2936 55.2084C22.012 56.7161 20.7066 58.8244 18.7228 58.8244C17.7869 58.8278 16.8876 58.4617 16.2211 57.8058C15.5545 57.15 15.1748 56.2577 15.1647 55.3234H14C14.0017 55.9403 14.1252 56.5508 14.3636 57.1199C14.602 57.6891 14.9506 58.2056 15.3893 58.6401C15.828 59.0745 16.3483 59.4182 16.9203 59.6516C17.4923 59.8849 18.1048 60.0033 18.7228 59.9999C19.9145 59.8895 21.0325 59.3756 21.8915 58.5436C22.7505 57.7116 23.2988 56.6114 23.4455 55.4256C24.0037 54.2221 24.8005 53.1442 25.7877 52.2568C27.6563 50.1868 29.9985 47.6185 29.9985 44.9097C30.0191 43.8718 29.8308 42.8404 29.4448 41.8766C29.0588 40.9127 28.4829 40.036 27.7512 39.2985C27.0196 38.5609 26.1471 37.9775 25.1854 37.5827C24.2238 37.188 23.1925 36.9899 22.1528 37.0004V37.0004Z" fill="#2D6083" stroke="#2D6083" stroke-width="0.5" stroke-miterlimit="10"/>
<path d="M26 44.8892H25.277C25.2581 44.0676 24.9475 43.2814 24.4036 42.6784C23.8596 42.0755 23.1199 41.6973 22.3234 41.6151C21.527 41.5329 20.7287 41.7523 20.0787 42.232C19.4288 42.7117 18.9719 43.4187 18.7941 44.22C19.4543 44.4088 20.0269 44.8341 20.4081 45.4188C20.7893 46.0035 20.954 46.709 20.8724 47.4077C20.7907 48.1063 20.4681 48.7518 19.9629 49.2274C19.4578 49.7029 18.8035 49.977 18.1185 50V49.2577C18.6649 49.2579 19.1905 49.0428 19.587 48.6568C19.9835 48.2708 20.2206 47.7433 20.2495 47.1832C20.2784 46.623 20.0968 46.0728 19.7422 45.646C19.3876 45.2192 18.887 44.9483 18.3437 44.8892H18C18.0557 43.8387 18.5014 42.85 19.2454 42.1266C19.9895 41.4032 20.9753 41 22 41C23.0247 41 24.0105 41.4032 24.7545 42.1266C25.4986 42.85 25.9443 43.8387 26 44.8892Z" fill="#2D6083" stroke="#2D6083" stroke-width="0.25" stroke-miterlimit="10"/>
<path d="M69.9935 61.2356C69.6615 59.3342 66.5254 58.7005 66.1073 58.5484C64.1493 58.1307 62.2631 57.4129 60.5116 56.4189C60.3734 55.7867 60.3484 55.1337 60.4378 54.4922C61.3423 53.1659 62.0702 51.7207 62.6023 50.1952C62.9509 50.2134 63.2933 50.0958 63.5616 49.8657C64.3668 48.8488 64.9159 47.6427 65.1603 46.3546C65.1875 46.1412 65.1698 45.9243 65.1082 45.7187C65.0467 45.5131 64.9428 45.3235 64.8037 45.1631C64.5797 44.9216 64.294 44.7502 63.9797 44.6687C64.3615 43.319 64.3729 41.8866 64.0125 40.5306C63.6521 39.1746 62.9341 37.9481 61.9382 36.9874C60.4035 35.7018 58.4862 35 56.5086 35C54.5309 35 52.6136 35.7018 51.079 36.9874C50.0809 37.9467 49.3605 39.1726 48.998 40.5287C48.6354 41.8847 48.6448 43.3178 49.0251 44.6687C48.7157 44.7537 48.4349 44.9247 48.2135 45.1631C48.0744 45.3235 47.9705 45.5131 47.9089 45.7187C47.8474 45.9243 47.8296 46.1412 47.8568 46.3546C48.1012 47.6427 48.6504 48.8488 49.4556 49.8657C49.7232 50.0969 50.0661 50.2146 50.4148 50.1952C50.9425 51.7227 51.6708 53.1685 52.5793 54.4922C52.6617 55.134 52.6368 55.7857 52.5055 56.4189C50.754 57.4129 48.8678 58.1307 46.9099 58.5484C46.4917 58.6371 43.3557 59.3342 43.0236 61.2356C43.0006 61.3161 42.9943 61.4008 43.0052 61.4841C43.0161 61.5673 43.044 61.6472 43.087 61.7186C43.13 61.7899 43.1872 61.8511 43.2547 61.898C43.3223 61.945 43.3987 61.9768 43.479 61.9912C43.5593 62.0056 43.6416 62.0023 43.7206 61.9816C43.7996 61.9609 43.8734 61.9232 43.9373 61.871C44.0011 61.8188 44.0535 61.7533 44.0911 61.6787C44.1286 61.6042 44.1504 61.5223 44.1551 61.4384C44.315 60.5638 46.2335 59.8919 47.1435 59.7145C48.4693 59.383 49.7717 58.9595 51.0421 58.4469C53.2311 57.585 53.4279 57.1794 53.5017 56.9386C53.7583 56.0553 53.8171 55.1235 53.6738 54.2134C53.6632 54.1038 53.6251 53.9989 53.5632 53.9092C52.5709 52.4747 51.7954 50.8934 51.2634 49.2192C51.2359 49.128 51.1865 49.0454 51.1199 48.9789C51.0533 48.9125 50.9715 48.8644 50.8822 48.839C50.7942 48.8146 50.7021 48.811 50.6126 48.8285C50.5232 48.8461 50.4387 48.8843 50.3656 48.9403C50.2918 48.9403 50.2672 49.0164 50.1689 48.9403C49.8409 48.4548 49.5529 47.9418 49.308 47.4066C48.8776 46.4306 48.9513 46.025 49.0128 45.9616C49.0776 45.8791 49.1676 45.8216 49.2681 45.7985C49.3686 45.7755 49.4737 45.7884 49.5663 45.8349C49.6704 45.8788 49.785 45.889 49.8948 45.8641C50.0047 45.8392 50.1046 45.7803 50.1812 45.6954C50.2584 45.6157 50.3121 45.515 50.3361 45.4051C50.36 45.2951 50.3532 45.1804 50.3165 45.0743C50.2427 44.8842 48.7054 40.5999 51.7922 37.862C53.1185 36.7622 54.7695 36.1626 56.4717 36.1626C58.1738 36.1626 59.8249 36.7622 61.1511 37.862C64.2257 40.5999 62.6884 44.8842 62.6269 45.0743C62.587 45.18 62.5786 45.2955 62.6027 45.4061C62.6267 45.5168 62.6823 45.6175 62.7622 45.6954C62.8358 45.7808 62.9336 45.8402 63.0417 45.8652C63.1498 45.8902 63.2628 45.8797 63.3648 45.8349C63.4592 45.7874 63.5663 45.7741 63.669 45.7971C63.7716 45.8201 63.8637 45.878 63.9305 45.9616C63.992 46.025 64.0658 46.4306 63.623 47.4066C63.3857 47.9433 63.1017 48.4566 62.7745 48.9403C62.6761 48.9403 62.6392 48.9403 62.5777 48.9403C62.5047 48.8843 62.4202 48.8461 62.3307 48.8285C62.2413 48.811 62.1491 48.8146 62.0612 48.839C61.9701 48.8636 61.8863 48.9112 61.8176 48.9776C61.7489 49.044 61.6973 49.1271 61.6676 49.2192C61.1444 50.8948 60.3729 52.4768 59.3802 53.9092C59.3183 53.9989 59.2801 54.1038 59.2695 54.2134C59.1196 55.1232 59.1785 56.0565 59.4417 56.9386C59.5401 57.154 59.7368 57.585 61.9013 58.4469C63.1674 58.9595 64.4658 59.383 65.7875 59.7145V59.7145C66.6976 59.8919 68.6161 60.5638 68.776 61.4384C68.7878 61.5155 68.8146 61.5893 68.8546 61.6556C68.8947 61.7218 68.9472 61.7791 69.0091 61.824C69.0711 61.8689 69.1411 61.9006 69.2152 61.9171C69.2892 61.9336 69.3657 61.9345 69.4401 61.92C69.5217 61.9174 69.6019 61.897 69.6753 61.8601C69.7487 61.8232 69.8137 61.7707 69.866 61.706C69.9183 61.6413 69.9567 61.5659 69.9787 61.4848C70.0007 61.4038 70.0057 61.3188 69.9935 61.2356V61.2356Z" fill="#2D6083" stroke="#2D6083" stroke-width="0.5" stroke-miterlimit="10"/>
<path d="M69.9747 32.0352C69.9532 32.0126 69.9243 32 69.8942 32C69.8641 32 69.8352 32.0126 69.8137 32.0352L66.3631 34.7807C66.356 34.796 66.3523 34.8129 66.3523 34.8299C66.3523 34.847 66.356 34.8639 66.3631 34.8792C66.355 34.8963 66.3508 34.9154 66.3508 34.9346C66.3508 34.9539 66.355 34.9728 66.3631 34.99L67.3293 35.7533L65.0289 38.8189C65.0102 38.8432 65 38.8736 65 38.9051C65 38.9365 65.0102 38.967 65.0289 38.9913C65.0417 38.997 65.0553 39 65.0691 39C65.083 39 65.0967 38.997 65.1094 38.9913H65.1899L69.1466 35.544C69.1557 35.5272 69.1604 35.508 69.1604 35.4886C69.1604 35.4691 69.1557 35.45 69.1466 35.4332C69.148 35.4124 69.1432 35.3916 69.1328 35.3739C69.1225 35.3562 69.1072 35.3425 69.0891 35.3347L67.9389 34.633L69.9862 32.1707C69.9969 32.1494 70.0016 32.1252 69.9995 32.1011C69.9975 32.077 69.9888 32.054 69.9747 32.0352V32.0352Z" fill="#2D6083"/>
<path d="M72.9905 41.7668C72.989 41.7424 72.9796 41.719 72.9633 41.6997C72.9471 41.6804 72.9248 41.6662 72.8995 41.6589L69.2224 41H69.1314C69.1215 41.0272 69.1215 41.0567 69.1314 41.0839L69.2484 42.0423L66.0909 42.2579C66.0668 42.2579 66.0437 42.2668 66.0266 42.2825C66.0095 42.2982 66 42.3196 66 42.3418C66 42.3418 66 42.3418 66 42.4137L70.3788 42.9887C70.3926 42.9961 70.4083 43 70.4243 43C70.4403 43 70.4559 42.9961 70.4697 42.9887C70.4807 42.9617 70.4807 42.9319 70.4697 42.9049L70.1839 41.8506H72.7826C72.7947 41.8761 72.8172 41.896 72.8452 41.9061C72.8732 41.9162 72.9045 41.9157 72.932 41.9045C72.9596 41.8934 72.9812 41.8726 72.9922 41.8468C73.0032 41.8209 73.0025 41.7922 72.9905 41.7668Z" fill="#2D6083"/>
<path d="M61.1491 28.005C61.1274 27.9967 61.1038 27.9988 61.0835 28.011C61.0631 28.0232 61.0475 28.0444 61.0401 28.0701L60.0046 31.6145C59.9985 31.6489 59.9985 31.6845 60.0046 31.7188C60.0167 31.7249 60.0297 31.728 60.0428 31.728C60.0559 31.728 60.0689 31.7249 60.0809 31.7188H60.9529L60.7676 34.8853C60.764 34.8975 60.7629 34.9105 60.7645 34.9232C60.7662 34.936 60.7704 34.9481 60.7769 34.9584C60.7834 34.9687 60.7919 34.977 60.8017 34.9824C60.8115 34.9879 60.8222 34.9902 60.833 34.9895C60.8429 34.9964 60.8542 35 60.8657 35C60.8772 35 60.8885 34.9964 60.8984 34.9895C60.8984 34.9895 60.8984 34.9895 60.8984 34.9895L61.9883 30.7415C61.996 30.7257 62 30.7076 62 30.6893C62 30.671 61.996 30.6531 61.9883 30.6372C61.9772 30.6277 61.9639 30.6225 61.9502 30.6225C61.9365 30.6225 61.9231 30.6277 61.912 30.6372L60.942 30.7545L61.2363 28.1483C61.2363 28.1483 61.1818 28.005 61.1491 28.005Z" fill="#2D6083"/>
<path d="M42.0122 31.0352C42.0379 31.0126 42.0723 31 42.1082 31C42.1441 31 42.1786 31.0126 42.2042 31.0352L46.388 33.7804C46.4006 33.8123 46.4006 33.8471 46.388 33.8789C46.4027 33.9147 46.4027 33.954 46.388 33.9898L45.2221 34.753L47.9655 37.8184C47.9878 37.8426 48 37.8731 48 37.9045C48 37.936 47.9878 37.9665 47.9655 37.9907C47.9302 38.0031 47.891 38.0031 47.8557 37.9907H47.7734L43.041 34.5437C43.0323 34.5263 43.0278 34.5074 43.0278 34.4883C43.0278 34.4692 43.0323 34.4503 43.041 34.4329C43.0393 34.4121 43.0451 34.3913 43.0574 34.3736C43.0697 34.3559 43.088 34.3422 43.1096 34.3344L44.4813 33.6327L42.0259 31.1706C42.0117 31.1506 42.0031 31.1279 42.0007 31.1044C41.9983 31.0808 42.0023 31.0571 42.0122 31.0352V31.0352Z" fill="#2D6083"/>
<path d="M40.0095 41.7668C40.0109 41.7424 40.0204 41.719 40.0367 41.6997C40.053 41.6804 40.0752 41.6662 40.1005 41.6589L43.7776 41H43.8686C43.8785 41.0272 43.8785 41.0567 43.8686 41.0839L43.7516 42.0423L46.909 42.2579C46.9332 42.2579 46.9563 42.2668 46.9734 42.2825C46.9904 42.2982 47 42.3196 47 42.3418C47 42.3418 47 42.3418 47 42.4137L42.6212 42.9887C42.6074 42.9961 42.5917 43 42.5757 43C42.5598 43 42.5441 42.9961 42.5302 42.9887C42.5193 42.9617 42.5193 42.9319 42.5302 42.9049L42.8161 41.8506H40.2174C40.2114 41.8632 40.2028 41.8745 40.1921 41.8841C40.1814 41.8936 40.1687 41.9011 40.1548 41.9061C40.1409 41.9111 40.1261 41.9135 40.1112 41.9132C40.0963 41.913 40.0816 41.91 40.068 41.9045C40.0543 41.899 40.042 41.8911 40.0317 41.8812C40.0213 41.8713 40.0132 41.8596 40.0078 41.8468C40.0024 41.834 39.9997 41.8204 40 41.8066C40.0003 41.7929 40.0035 41.7794 40.0095 41.7668V41.7668Z" fill="#2D6083"/>
<path d="M51.2599 28.0025C51.2927 27.9971 51.327 28.0005 51.3571 28.0124C51.3872 28.0242 51.4113 28.0437 51.4255 28.0677L52.9823 31.6134C52.9939 31.6292 53 31.6472 53 31.6655C53 31.6838 52.9939 31.7018 52.9823 31.7177C52.9672 31.7245 52.95 31.7281 52.9326 31.7281C52.9151 31.7281 52.898 31.7245 52.8829 31.7177H51.5579L51.8395 34.8853C51.8395 34.8853 51.8395 34.9895 51.7401 34.9895C51.725 34.9964 51.7079 35 51.6905 35C51.673 35 51.6559 34.9964 51.6408 34.9895C51.6408 34.9895 51.6408 34.9895 51.6408 34.9895L50.0177 30.7009C50.0061 30.685 50 30.667 50 30.6487C50 30.6304 50.0061 30.6124 50.0177 30.5965H50.1171L51.6076 30.7139L51.1605 28.1068C51.1605 28.1068 51.1936 28.0025 51.2599 28.0025Z" fill="#2D6083"/>
<path d="M88.8384 59H88.666C88.604 58.9772 88.547 58.9417 88.4984 58.8957C88.4498 58.8497 88.4106 58.7941 88.383 58.7322C88.3555 58.6702 88.3401 58.6031 88.3379 58.5348C88.3357 58.4666 88.3467 58.3987 88.3702 58.3349C88.7924 57.5195 88.8939 56.5661 88.6536 55.6747C88.3579 55.0352 87.4831 54.7666 86.485 54.3957C85.4747 54.1474 84.5151 53.7143 83.6511 53.1168C83.1526 52.784 82.741 52.3284 82.4529 51.7907C82.1649 51.253 82.0093 50.6497 82 50.0346C82 47.4767 85.0311 45.2896 85.1543 45.2001C86.076 44.4678 87.0717 43.8418 88.1238 43.3329C89.9756 42.4601 91.668 41.2615 93.1263 39.7902C94.0465 38.8873 94.6967 37.7284 94.9992 36.4521C95.0068 36.3847 95.0272 36.3195 95.0593 36.2604C95.0914 36.2013 95.1345 36.1495 95.1861 36.1078C95.2377 36.0661 95.2968 36.0355 95.3599 36.0178C95.423 36.0001 95.4889 35.9955 95.5537 36.0045C95.6857 36.0205 95.8063 36.09 95.8893 36.1977C95.9724 36.3055 96.0111 36.4428 95.9972 36.58C95.683 38.0843 94.9353 39.4537 93.8533 40.5064C92.326 42.0768 90.5399 43.3503 88.5797 44.2665C87.583 44.7447 86.6408 45.3367 85.7704 46.0314C85.7088 46.0314 83.0473 48.0138 82.998 50.0601C83.0125 50.5073 83.1324 50.944 83.3472 51.332C83.562 51.72 83.8652 52.0474 84.2302 52.2855C85.0014 52.8184 85.8562 53.2079 86.7561 53.4365C87.9266 53.8074 89.0356 54.1527 89.5408 55.2015C89.7292 55.7705 89.8045 56.3733 89.7622 56.9735C89.7198 57.5736 89.5607 58.1585 89.2943 58.693C89.2544 58.7839 89.1903 58.8612 89.1095 58.9155C89.0288 58.9699 88.9347 58.9992 88.8384 59V59Z" fill="#2D6083" stroke="#2D6083" stroke-width="0.5" stroke-miterlimit="10"/>
<path d="M92.6839 57C92.1232 56.9969 91.5755 56.8291 91.1065 56.5167C90.6375 56.2043 90.2673 55.7608 90.0405 55.2395C89.8388 54.6958 89.5328 54.1984 89.1403 53.7762C88.7478 53.354 88.2766 53.0153 87.7541 52.78C87.5613 52.6956 87.3557 52.6456 87.1461 52.6322C87.2563 52.791 87.3801 52.9394 87.5162 53.0758C87.5674 53.1261 87.6084 53.1861 87.6367 53.2525C87.6651 53.3189 87.6803 53.3903 87.6816 53.4627C87.6828 53.5351 87.67 53.607 87.6439 53.6743C87.6178 53.7417 87.5789 53.8031 87.5294 53.8552C87.4799 53.9072 87.4209 53.9489 87.3556 53.9778C87.2903 54.0067 87.22 54.0221 87.1488 54.0233C87.0777 54.0246 87.007 54.0116 86.9407 53.985C86.8745 53.9585 86.8141 53.9189 86.7629 53.8686C86.102 53.2235 85.8773 52.6457 86.0624 52.1484C86.1558 51.9482 86.3071 51.7817 86.496 51.6712C86.6849 51.5607 86.9025 51.5116 87.1197 51.5302V51.5302C88.0173 51.647 88.8647 52.0175 89.5656 52.5995C90.2665 53.1816 90.7928 53.9518 91.0847 54.8228C91.2471 55.1877 91.5221 55.4887 91.8679 55.6803C92.2137 55.8719 92.6116 55.9435 93.0011 55.8845C94.0056 55.7367 94.6796 54.8363 94.8382 53.4117C94.9444 52.9898 94.9481 52.5479 94.8491 52.1242C94.7501 51.7004 94.5513 51.3075 94.2699 50.9792C94.1609 50.8874 94.0915 50.7558 94.0767 50.6126C94.0619 50.4695 94.1028 50.3261 94.1906 50.2132C94.2333 50.1558 94.2869 50.1077 94.3482 50.0718C94.4096 50.0358 94.4774 50.0128 94.5477 50.004C94.618 49.9952 94.6892 50.0009 94.7573 50.0207C94.8253 50.0404 94.8888 50.0739 94.9439 50.1191C95.3758 50.5585 95.6909 51.1022 95.8596 51.6993C96.0284 52.2963 96.0453 52.9271 95.9087 53.5326C95.9151 54.3416 95.6441 55.1275 95.1425 55.7554C94.6408 56.3833 93.9397 56.8138 93.1597 56.9731L92.6839 57Z" fill="#2D6083" stroke="#2D6083" stroke-width="0.25" stroke-miterlimit="10"/>
<path d="M90.3944 46C90.3426 46 90.2913 45.9864 90.2435 45.9599C90.1956 45.9335 90.1521 45.8948 90.1155 45.8459C90.0789 45.7971 90.0498 45.7391 90.03 45.6753C90.0102 45.6115 90 45.5431 90 45.4741C90 45.405 90.0102 45.3366 90.03 45.2728C90.0498 45.209 90.0789 45.1511 90.1155 45.1022C90.1521 45.0534 90.1956 45.0147 90.2435 44.9882C90.2913 44.9618 90.3426 44.9483 90.3944 44.9483C90.8773 44.9483 91.3406 44.6936 91.6832 44.2398C92.0258 43.7859 92.2198 43.1698 92.223 42.5259C92.223 42.3864 92.2645 42.2527 92.3385 42.1541C92.4124 42.0554 92.5128 42 92.6174 42C92.6686 42 92.7194 42.0136 92.7666 42.0403C92.8138 42.0669 92.8565 42.1059 92.8921 42.1549C92.9278 42.204 92.9557 42.2621 92.9742 42.3258C92.9927 42.3896 93.0014 42.4576 92.9998 42.5259C92.9998 43.4473 92.7253 44.331 92.2367 44.9825C91.7481 45.634 91.0854 46 90.3944 46Z" fill="#2C6185"/>
<path d="M92.6174 49C92.5128 49 92.4125 48.9584 92.3385 48.8845C92.2645 48.8105 92.223 48.7102 92.223 48.6056C92.2198 48.1216 92.0262 47.6583 91.6839 47.3161C91.3417 46.9738 90.8784 46.7802 90.3944 46.7771C90.2898 46.7771 90.1895 46.7355 90.1155 46.6615C90.0415 46.5875 90 46.4872 90 46.3826C90 46.3314 90.0102 46.2807 90.0302 46.2335C90.0502 46.1863 90.0794 46.1435 90.1162 46.1079C90.153 46.0722 90.1966 46.0443 90.2444 46.0258C90.2922 46.0073 90.3432 45.9986 90.3944 46.0002C91.0854 46.0002 91.7481 46.2747 92.2367 46.7633C92.7253 47.2519 92.9998 47.9146 92.9998 48.6056C93.0014 48.6568 92.9927 48.7078 92.9742 48.7556C92.9557 48.8034 92.9278 48.847 92.8921 48.8838C92.8564 48.9206 92.8137 48.9498 92.7665 48.9698C92.7193 48.9898 92.6686 49 92.6174 49V49Z" fill="#2C6185"/>
<path d="M96.4762 46C95.557 46 94.6752 45.6345 94.0237 44.9835C93.3723 44.3324 93.0042 43.4488 93 42.5259C93 42.3864 93.0552 42.2527 93.1534 42.1541C93.2516 42.0554 93.3849 42 93.5238 42C93.6628 42 93.796 42.0554 93.8942 42.1541C93.9925 42.2527 94.0476 42.3864 94.0476 42.5259C94.0476 42.8454 94.1105 43.1616 94.2328 43.4566C94.355 43.7515 94.5342 44.0193 94.7599 44.2444C94.9856 44.4696 95.2535 44.6476 95.548 44.7684C95.8426 44.8892 96.158 44.9504 96.4762 44.9483C96.6151 44.9483 96.7484 45.0036 96.8466 45.1022C96.9448 45.2009 97 45.3346 97 45.4741C97 45.6136 96.9448 45.7473 96.8466 45.8459C96.7484 45.9446 96.6151 46 96.4762 46Z" fill="#2C6185"/>
<path d="M93.5259 49C93.3864 49 93.2527 48.9584 93.1541 48.8844C93.0554 48.8105 93 48.7102 93 48.6056C93.0042 47.9134 93.3738 47.2507 94.0278 46.7624C94.6818 46.2741 95.567 46 96.4898 46C96.6251 46 96.7548 46.0403 96.8504 46.1121C96.946 46.1838 96.9998 46.281 96.9998 46.3825C97.0019 46.4337 96.9903 46.4847 96.9656 46.5325C96.9409 46.5803 96.9037 46.6239 96.8561 46.6607C96.8086 46.6975 96.7516 46.7267 96.6887 46.7466C96.6258 46.7666 96.5581 46.7769 96.4898 46.7769C95.8432 46.7769 95.2231 46.9696 94.7659 47.3125C94.3086 47.6555 94.0517 48.1206 94.0517 48.6056C94.0517 48.7102 93.9963 48.8105 93.8977 48.8844C93.7991 48.9584 93.6654 49 93.5259 49Z" fill="#2C6185"/>
<path d="M45.624 68.58V69.42H50.352V68.58H45.624ZM46.74 71.304H49.248V73.056H46.74V71.304ZM45.96 70.56V73.788H50.076V70.56H45.96ZM48.864 74.136C48.768 74.868 48.54 75.924 48.336 76.584L49.032 76.788C49.248 76.164 49.512 75.192 49.74 74.364L48.864 74.136ZM46.236 74.424C46.5 75.144 46.68 76.068 46.704 76.668L47.484 76.476C47.448 75.864 47.256 74.952 46.968 74.244L46.236 74.424ZM45.444 77.46L45.672 78.312C46.992 78.012 48.804 77.616 50.508 77.22L50.436 76.44C48.6 76.836 46.692 77.232 45.444 77.46ZM50.676 68.496V69.276H56.472V68.496H50.676ZM51.876 72.948H55.224V74.124H51.876V72.948ZM51.876 74.796H55.224V75.984H51.876V74.796ZM51.876 71.124H55.224V72.288H51.876V71.124ZM51.048 70.428V76.68H56.1V70.428H51.048ZM53.016 68.88C52.944 69.444 52.776 70.272 52.632 70.812L53.424 70.968C53.616 70.464 53.832 69.708 54.024 69.012L53.016 68.88ZM52.176 76.932C51.684 77.448 50.64 78.06 49.716 78.384C49.92 78.54 50.196 78.816 50.328 78.984C51.252 78.636 52.32 78.012 52.968 77.4L52.176 76.932ZM53.976 77.436C54.684 77.88 55.584 78.552 56.004 78.984L56.736 78.492C56.268 78.048 55.356 77.424 54.66 76.992L53.976 77.436ZM61.2 70.536V71.208H66.888V70.536H61.2ZM61.476 76.272V76.944H67.404V76.272H61.476ZM61.476 74.592V75.276H67.404V74.592H61.476ZM63.936 73.296V78.852H64.776V73.296H63.936ZM60.972 72.912V78.96H61.812V73.608H67.272V72.912H60.972ZM67.02 72.912V78.072C67.02 78.216 66.972 78.252 66.816 78.264C66.66 78.276 66.156 78.276 65.616 78.264C65.712 78.456 65.832 78.744 65.868 78.936C66.648 78.936 67.152 78.936 67.464 78.816C67.764 78.708 67.86 78.504 67.86 78.072V72.912H67.02ZM66.636 70.536V70.692C66.084 71.208 64.992 71.868 64.056 72.24C64.176 72.36 64.392 72.588 64.5 72.732C65.556 72.3 66.756 71.628 67.584 70.944L67.044 70.488L66.852 70.536H66.636ZM62.124 72.036C63.3 72.384 64.764 73.02 65.544 73.5L66.072 72.924C65.268 72.468 63.804 71.856 62.628 71.52L62.124 72.036ZM59.724 69.084V69.876H68.4V69.084H59.724ZM59.232 69.084V72.828C59.232 74.556 59.088 76.776 57.648 78.336C57.828 78.444 58.164 78.756 58.284 78.936C59.856 77.268 60.084 74.7 60.084 72.828V69.084H59.232ZM63.12 67.932V69.708H64.068V67.932H63.12ZM57.444 70.44C57.828 71.148 58.2 72.108 58.308 72.708L59.028 72.348C58.908 71.76 58.524 70.824 58.116 70.128L57.444 70.44ZM57.276 74.808L57.576 75.624C58.224 75.252 58.944 74.82 59.64 74.4L59.424 73.692C58.62 74.124 57.828 74.544 57.276 74.808Z" fill="#2C6087"/>
<path d="M6.78 68.628V69.528H17.244V68.628H6.78ZM9.072 71.292V72.132H14.796V71.292H9.072ZM9.072 73.932V74.784H14.796V73.932H9.072ZM6.576 76.776L6.684 77.712C9.348 77.532 13.5 77.244 17.352 76.956L17.376 76.08C13.488 76.368 9.204 76.632 6.576 76.776ZM8.64 69.252V77.004H9.6V69.252H8.64ZM14.412 69.252V78.96H15.372V69.252H14.412ZM23.016 68.988V75H23.844V68.988H23.016ZM23.556 73.26V73.968H29.532V73.26H23.556ZM23.556 70.464V71.076H28.02V70.464H23.556ZM23.016 74.712V75.444H28.656V74.712H23.016ZM28.416 74.712V74.844C28.296 77.088 28.176 77.916 27.972 78.132C27.888 78.228 27.768 78.252 27.588 78.252C27.396 78.252 26.904 78.252 26.364 78.192C26.484 78.396 26.556 78.708 26.58 78.936C27.144 78.96 27.696 78.972 27.96 78.936C28.284 78.912 28.5 78.852 28.68 78.636C28.968 78.312 29.1 77.412 29.232 75.072C29.244 74.952 29.244 74.712 29.244 74.712H28.416ZM22.476 76.02C22.32 76.908 21.96 77.784 21.336 78.288L22.008 78.708C22.692 78.144 23.004 77.196 23.196 76.224L22.476 76.02ZM23.7 76.284C23.904 76.92 24.024 77.76 24.012 78.3L24.744 78.144C24.732 77.616 24.6 76.776 24.384 76.14L23.7 76.284ZM25.068 76.164C25.344 76.692 25.62 77.4 25.716 77.856L26.376 77.64C26.268 77.184 25.98 76.5 25.668 75.984L25.068 76.164ZM26.412 75.996C26.76 76.416 27.12 76.992 27.288 77.376L27.9 77.088C27.732 76.716 27.348 76.164 26.988 75.756L26.412 75.996ZM23.592 68.988V69.66H27.636V71.892H23.592V72.564H28.5V68.988H23.592ZM25.26 67.92C25.176 68.304 24.96 68.88 24.768 69.288L25.548 69.456C25.764 69.096 26.04 68.592 26.292 68.076L25.26 67.92ZM19.356 69.132V69.972H21.3V74.76H19.356V75.6H22.116V69.132H19.356ZM18.876 69.132V76.728H19.692V69.132H18.876Z" fill="#2C6087"/>
<path d="M85.596 75.504V78.96H86.484V75.504H85.596ZM80.244 74.532H87.624V75.072H80.244V74.532ZM80.244 73.548H87.624V74.076H80.244V73.548ZM79.392 72.984V75.636H88.5V72.984H79.392ZM81.264 70.38H86.64V70.92H81.264V70.38ZM81.264 71.376H86.64V71.94H81.264V71.376ZM81.264 69.396H86.64V69.924H81.264V69.396ZM80.4 68.832V72.492H87.54V68.832H80.4ZM83.508 67.884C83.412 68.208 83.208 68.688 83.028 69.036L83.82 69.216C84.036 68.904 84.336 68.496 84.588 68.04L83.508 67.884ZM83.544 73.14V75.324H84.396V73.14H83.544ZM81.54 75.504V76.608C81.54 77.208 81.228 77.952 78.756 78.36C78.924 78.516 79.164 78.804 79.272 78.996C81.9 78.432 82.392 77.484 82.392 76.608V75.504H81.54ZM78.66 76.416V77.16H89.34V76.416H78.66ZM95.508 67.932V69.492H96.432V67.932H95.508ZM95.556 75.012V78.216H96.42V75.012H95.556ZM90.864 68.868V70.908H91.752V69.648H100.2V70.908H101.124V68.868H90.864ZM93.756 70.056V74.196H94.608V70.056H93.756ZM97.38 70.056V74.196H98.244V70.056H97.38ZM91.884 70.8V71.484H100.044V70.8H91.884ZM93.216 76.02V76.74H98.808V76.02H93.216ZM91.38 77.916V78.672H100.692V77.916H91.38ZM92.076 72.312V72.984H99.876V72.312H92.076ZM90.696 73.86V74.628H101.316V73.86H90.696ZM93.9 74.196C93.192 75.168 91.788 76.08 90.444 76.488C90.636 76.656 90.9 76.968 91.032 77.184C92.4 76.68 93.852 75.648 94.644 74.508L93.9 74.196ZM98.124 74.148L97.392 74.448C98.184 75.564 99.6 76.584 100.992 77.052C101.136 76.836 101.4 76.5 101.592 76.32C100.236 75.948 98.832 75.084 98.124 74.148Z" fill="#2C6087"/>
</g>
<defs>
<clipPath id="clip0_366_1573">
<rect width="108.39" height="108.39" fill="white"/>
</clipPath>
</defs>
</svg>
