<svg width="109" height="109" viewBox="0 0 109 109" fill="none" xmlns="http://www.w3.org/2000/svg">
<path d="M0 54.195C0 24.2639 24.2639 0 54.195 0V0C84.1261 0 108.39 24.2639 108.39 54.195V54.195C108.39 84.1261 84.1261 108.39 54.195 108.39V108.39C24.2639 108.39 0 84.1261 0 54.195V54.195Z" fill="#EEF7FC"/>
<path d="M35.7145 28.5818C36.7936 26.7823 36.2612 24.4027 34.5059 23.2873C32.765 22.1719 30.4774 22.7222 29.3839 24.5217C28.7796 25.5479 28.7077 26.7377 29.0386 27.7787C27.9739 27.9274 26.9811 28.5372 26.3768 29.5485C25.2978 31.3629 25.8301 33.7275 27.571 34.8578C29.3119 35.9732 31.614 35.423 32.6931 33.6086C32.7362 33.5639 32.7506 33.5045 32.7794 33.445L45.9442 41.8923L48.7786 37.163L35.6138 28.7305C35.6426 28.671 35.6857 28.6413 35.7145 28.5818Z" fill="#D9D9D9" stroke="#29678F" stroke-width="2" stroke-miterlimit="10"/>
<path d="M80.8056 52.972C79.0647 51.8566 76.7627 52.4069 75.6836 54.2212C75.6548 54.2659 75.6404 54.3253 75.6117 54.3848L62.4468 45.9375L59.6124 50.6668L72.7773 59.1142C72.7485 59.1588 72.7053 59.2034 72.6765 59.248C71.5975 61.0475 72.1298 63.4271 73.8851 64.5425C75.626 65.6579 77.9281 65.1076 79.0072 63.2932C79.6115 62.2819 79.6978 61.0921 79.3525 60.0362C80.4172 59.8875 81.4099 59.2777 82.0286 58.2664C83.0933 56.4521 82.561 54.0874 80.8056 52.972Z" fill="#D9D9D9" stroke="#29678F" stroke-width="2" stroke-miterlimit="10"/>
<path d="M45.9445 45.9229L32.7796 54.3702C32.7509 54.3256 32.7365 54.2661 32.7077 54.2066C31.6286 52.4071 29.3266 51.8419 27.5856 52.9573C25.8447 54.0727 25.298 56.4523 26.3771 58.2518C26.9814 59.278 27.9741 59.8877 29.0388 60.0364C28.6935 61.0924 28.7798 62.2821 29.3841 63.2934C30.4632 65.093 32.7653 65.6581 34.5062 64.5427C36.2471 63.4273 36.7938 61.0477 35.7148 59.2482C35.686 59.1887 35.6428 59.1441 35.614 59.0995L48.7789 50.6522L45.9445 45.9229Z" fill="#D9D9D9" stroke="#29678F" stroke-width="2" stroke-miterlimit="10"/>
<path d="M62.4329 41.892L75.5977 33.4447C75.6265 33.4893 75.6409 33.5488 75.6697 33.6083C76.7487 35.4078 79.0508 35.973 80.7917 34.8576C82.5326 33.7421 83.0794 31.3626 82.0003 29.5631C81.396 28.5518 80.3889 27.942 79.3242 27.7933C79.6695 26.7374 79.5831 25.5476 78.9789 24.5363C77.8998 22.7368 75.5977 22.1717 73.8568 23.2871C72.1159 24.4025 71.5691 26.782 72.6482 28.5815C72.677 28.6262 72.7202 28.6708 72.7489 28.7154L59.5841 37.1627L62.4329 41.892Z" fill="#D9D9D9" stroke="#29678F" stroke-width="2" stroke-miterlimit="10"/>
<path d="M70.1014 41.922C70.1014 32.8947 63.0226 25.5776 54.2892 25.5776C45.5558 25.5776 38.4771 32.8947 38.4771 41.922C38.4771 47.8114 41.4985 52.9571 46.0306 55.8423V59.828C46.0306 61.6424 47.455 63.1296 49.2247 63.1296H59.1667C60.922 63.1296 62.3608 61.6573 62.3608 59.828V55.9761C66.9936 53.1058 70.1014 47.9006 70.1014 41.922Z" fill="#F7F7F7" stroke="#29678F" stroke-width="2" stroke-miterlimit="10"/>
<path d="M50.1168 58.6826V63.1145" stroke="#29678F" stroke-width="2" stroke-miterlimit="10" stroke-linecap="round"/>
<path d="M54.1884 58.6826V63.1145" stroke="#29678F" stroke-width="2" stroke-miterlimit="10" stroke-linecap="round"/>
<path d="M58.2744 58.6826V63.1145" stroke="#29678F" stroke-width="2" stroke-miterlimit="10" stroke-linecap="round"/>
<path d="M56.0879 52.7788L54.3038 50.4868L52.3615 52.7788" stroke="#29678F" stroke-width="2" stroke-miterlimit="10" stroke-linecap="round" stroke-linejoin="round"/>
<path d="M47.9006 49.6256C50.1573 49.6256 51.9867 47.7346 51.9867 45.4019C51.9867 43.0692 50.1573 41.1782 47.9006 41.1782C45.6439 41.1782 43.8145 43.0692 43.8145 45.4019C43.8145 47.7346 45.6439 49.6256 47.9006 49.6256Z" fill="#C8C3CA" stroke="#29678F" stroke-width="2" stroke-miterlimit="10"/>
<path d="M60.6911 49.6256C62.9478 49.6256 64.7772 47.7346 64.7772 45.4019C64.7772 43.0692 62.9478 41.1782 60.6911 41.1782C58.4344 41.1782 56.605 43.0692 56.605 45.4019C56.605 47.7346 58.4344 49.6256 60.6911 49.6256Z" fill="#C8C3CA" stroke="#29678F" stroke-width="2" stroke-miterlimit="10"/>
<path d="M26.2443 82.9375H28.9083V71.8315H32.6703V69.6175H22.4823V71.8315H26.2443V82.9375ZM40.0299 83.1895C43.5579 83.1895 45.9699 80.5615 45.9699 76.2235C45.9699 71.9035 43.5579 69.3835 40.0299 69.3835C36.4839 69.3835 34.0719 71.8855 34.0719 76.2235C34.0719 80.5615 36.4839 83.1895 40.0299 83.1895ZM40.0299 80.8855C38.0319 80.8855 36.7899 79.0675 36.7899 76.2235C36.7899 73.3795 38.0319 71.6695 40.0299 71.6695C42.0099 71.6695 43.2699 73.3795 43.2699 76.2235C43.2699 79.0675 42.0099 80.8855 40.0299 80.8855ZM49.1294 82.9375H51.7934V78.2035H53.5754C56.4374 78.2035 58.7054 76.8535 58.7054 73.8115C58.7054 70.6435 56.4374 69.6175 53.5034 69.6175H49.1294V82.9375ZM51.7934 76.0975V71.7415H53.3054C55.1414 71.7415 56.1134 72.2455 56.1134 73.8115C56.1134 75.3235 55.2314 76.0975 53.3954 76.0975H51.7934ZM66.1134 82.9375H74.1414V80.7955H71.6394V69.9595H69.6774C68.8134 70.4815 67.9134 70.8235 66.5634 71.0935V72.7315H68.9934V80.7955H66.1134V82.9375ZM81.1226 83.1895C83.8406 83.1895 85.6226 80.8135 85.6226 76.4035C85.6226 72.0115 83.8406 69.7255 81.1226 69.7255C78.3686 69.7255 76.6046 71.9935 76.6046 76.4035C76.6046 80.8135 78.3686 83.1895 81.1226 83.1895ZM81.1226 81.1195C79.9706 81.1195 79.1066 80.0215 79.1066 76.4035C79.1066 72.7855 79.9706 71.7775 81.1226 71.7775C82.2746 71.7775 83.1206 72.7855 83.1206 76.4035C83.1206 80.0215 82.2746 81.1195 81.1226 81.1195Z" fill="white"/>
<path d="M26.2443 82.9375H24.2443C24.2443 84.0421 25.1397 84.9375 26.2443 84.9375V82.9375ZM28.9083 82.9375V84.9375C30.0128 84.9375 30.9083 84.0421 30.9083 82.9375H28.9083ZM28.9083 71.8315V69.8315C27.8037 69.8315 26.9083 70.7269 26.9083 71.8315H28.9083ZM32.6703 71.8315V73.8315C33.7748 73.8315 34.6703 72.9361 34.6703 71.8315H32.6703ZM32.6703 69.6175H34.6703C34.6703 68.5129 33.7748 67.6175 32.6703 67.6175V69.6175ZM22.4823 69.6175V67.6175C21.3777 67.6175 20.4823 68.5129 20.4823 69.6175H22.4823ZM22.4823 71.8315H20.4823C20.4823 72.9361 21.3777 73.8315 22.4823 73.8315V71.8315ZM26.2443 71.8315H28.2443C28.2443 70.7269 27.3488 69.8315 26.2443 69.8315V71.8315ZM26.2443 84.9375H28.9083V80.9375H26.2443V84.9375ZM30.9083 82.9375V71.8315H26.9083V82.9375H30.9083ZM28.9083 73.8315H32.6703V69.8315H28.9083V73.8315ZM34.6703 71.8315V69.6175H30.6703V71.8315H34.6703ZM32.6703 67.6175H22.4823V71.6175H32.6703V67.6175ZM20.4823 69.6175V71.8315H24.4823V69.6175H20.4823ZM22.4823 73.8315H26.2443V69.8315H22.4823V73.8315ZM24.2443 71.8315V82.9375H28.2443V71.8315H24.2443ZM40.0299 85.1895C42.3217 85.1895 44.3755 84.3188 45.8314 82.6464C47.2645 81.0002 47.9699 78.7526 47.9699 76.2235H43.9699C43.9699 78.0324 43.4693 79.2678 42.8144 80.0201C42.1823 80.7462 41.266 81.1895 40.0299 81.1895V85.1895ZM47.9699 76.2235C47.9699 73.7004 47.2624 71.4739 45.8152 69.8519C44.3481 68.2078 42.2948 67.3835 40.0299 67.3835V71.3835C41.2929 71.3835 42.2097 71.8192 42.8306 72.5151C43.4713 73.2331 43.9699 74.4266 43.9699 76.2235H47.9699ZM40.0299 67.3835C37.7631 67.3835 35.7044 68.1983 34.2315 69.8422C32.7784 71.464 32.0719 73.6933 32.0719 76.2235H36.0719C36.0719 74.4157 36.5713 73.225 37.2107 72.5113C37.8304 71.8197 38.7506 71.3835 40.0299 71.3835V67.3835ZM32.0719 76.2235C32.0719 78.7526 32.7773 81.0012 34.214 82.6481C35.6735 84.321 37.732 85.1895 40.0299 85.1895V81.1895C38.7817 81.1895 37.8612 80.744 37.2282 80.0184C36.5724 79.2668 36.0719 78.0324 36.0719 76.2235H32.0719ZM40.0299 78.8855C39.7256 78.8855 39.5145 78.7854 39.3055 78.4833C39.0485 78.1118 38.7899 77.3873 38.7899 76.2235H34.7899C34.7899 77.9037 35.1522 79.5102 36.0157 80.7587C36.9273 82.0766 38.3361 82.8855 40.0299 82.8855V78.8855ZM38.7899 76.2235C38.7899 75.0588 39.0488 74.377 39.2871 74.0438C39.4734 73.7835 39.6788 73.6695 40.0299 73.6695V69.6695C38.3829 69.6695 36.9683 70.4105 36.0341 71.7162C35.152 72.949 34.7899 74.5442 34.7899 76.2235H38.7899ZM40.0299 73.6695C40.3678 73.6695 40.5766 73.7803 40.7681 74.0469C41.009 74.3822 41.2699 75.0646 41.2699 76.2235H45.2699C45.2699 74.5384 44.9008 72.9438 44.0167 71.7131C43.0832 70.4137 41.6719 69.6695 40.0299 69.6695V73.6695ZM41.2699 76.2235C41.2699 77.3816 41.0091 78.1066 40.7496 78.4802C40.5354 78.7887 40.3211 78.8855 40.0299 78.8855V82.8855C41.7186 82.8855 43.1244 82.0733 44.0351 80.7618C44.9007 79.5154 45.2699 77.9094 45.2699 76.2235H41.2699ZM49.1294 82.9375H47.1294C47.1294 84.0421 48.0249 84.9375 49.1294 84.9375V82.9375ZM51.7934 82.9375V84.9375C52.898 84.9375 53.7934 84.0421 53.7934 82.9375H51.7934ZM51.7934 78.2035V76.2035C50.6889 76.2035 49.7934 77.0989 49.7934 78.2035H51.7934ZM49.1294 69.6175V67.6175C48.0249 67.6175 47.1294 68.5129 47.1294 69.6175H49.1294ZM51.7934 76.0975H49.7934C49.7934 77.2021 50.6889 78.0975 51.7934 78.0975V76.0975ZM51.7934 71.7415V69.7415C50.6889 69.7415 49.7934 70.6369 49.7934 71.7415H51.7934ZM49.1294 84.9375H51.7934V80.9375H49.1294V84.9375ZM53.7934 82.9375V78.2035H49.7934V82.9375H53.7934ZM51.7934 80.2035H53.5754V76.2035H51.7934V80.2035ZM53.5754 80.2035C55.2857 80.2035 57.0534 79.8044 58.44 78.7282C59.9005 77.5946 60.7054 75.8875 60.7054 73.8115H56.7054C56.7054 74.7775 56.3764 75.2664 55.9874 75.5683C55.5245 75.9276 54.7271 76.2035 53.5754 76.2035V80.2035ZM60.7054 73.8115C60.7054 71.6838 59.9034 69.9724 58.3503 68.8871C56.9276 67.8929 55.1422 67.6175 53.5034 67.6175V71.6175C54.7986 71.6175 55.6143 71.8551 56.0591 72.1659C56.3735 72.3856 56.7054 72.7712 56.7054 73.8115H60.7054ZM53.5034 67.6175H49.1294V71.6175H53.5034V67.6175ZM47.1294 69.6175V82.9375H51.1294V69.6175H47.1294ZM53.7934 76.0975V71.7415H49.7934V76.0975H53.7934ZM51.7934 73.7415H53.3054V69.7415H51.7934V73.7415ZM53.3054 73.7415C53.6825 73.7415 53.943 73.7682 54.1165 73.8039C54.2896 73.8394 54.315 73.8715 54.2722 73.8424C54.2086 73.799 54.1422 73.7221 54.1076 73.645C54.0828 73.5895 54.1134 73.6195 54.1134 73.8115H58.1134C58.1134 72.5759 57.6959 71.3344 56.5236 70.5361C55.532 69.8608 54.3143 69.7415 53.3054 69.7415V73.7415ZM54.1134 73.8115C54.1134 73.9997 54.0855 74.0751 54.084 74.079C54.0837 74.0797 54.0887 74.067 54.1025 74.0475C54.1165 74.0276 54.1328 74.0103 54.1476 73.9976C54.2087 73.9457 54.0811 74.0975 53.3954 74.0975V78.0975C54.5458 78.0975 55.7772 77.8623 56.7382 77.0454C57.7624 76.1748 58.1134 74.9639 58.1134 73.8115H54.1134ZM53.3954 74.0975H51.7934V78.0975H53.3954V74.0975ZM66.1134 82.9375H64.1134C64.1134 84.0421 65.0089 84.9375 66.1134 84.9375V82.9375ZM74.1414 82.9375V84.9375C75.246 84.9375 76.1414 84.0421 76.1414 82.9375H74.1414ZM74.1414 80.7955H76.1414C76.1414 79.6909 75.246 78.7955 74.1414 78.7955V80.7955ZM71.6394 80.7955H69.6394C69.6394 81.9001 70.5349 82.7955 71.6394 82.7955V80.7955ZM71.6394 69.9595H73.6394C73.6394 68.8549 72.744 67.9595 71.6394 67.9595V69.9595ZM69.6774 69.9595V67.9595C69.3129 67.9595 68.9552 68.0591 68.6432 68.2477L69.6774 69.9595ZM66.5634 71.0935L66.1712 69.1323C65.2363 69.3193 64.5634 70.1401 64.5634 71.0935H66.5634ZM66.5634 72.7315H64.5634C64.5634 73.8361 65.4589 74.7315 66.5634 74.7315V72.7315ZM68.9934 72.7315H70.9934C70.9934 71.6269 70.098 70.7315 68.9934 70.7315V72.7315ZM68.9934 80.7955V82.7955C70.098 82.7955 70.9934 81.9001 70.9934 80.7955H68.9934ZM66.1134 80.7955V78.7955C65.0089 78.7955 64.1134 79.6909 64.1134 80.7955H66.1134ZM66.1134 84.9375H74.1414V80.9375H66.1134V84.9375ZM76.1414 82.9375V80.7955H72.1414V82.9375H76.1414ZM74.1414 78.7955H71.6394V82.7955H74.1414V78.7955ZM73.6394 80.7955V69.9595H69.6394V80.7955H73.6394ZM71.6394 67.9595H69.6774V71.9595H71.6394V67.9595ZM68.6432 68.2477C68.0169 68.6261 67.3448 68.8976 66.1712 69.1323L66.9557 73.0547C68.482 72.7494 69.61 72.3369 70.7117 71.6713L68.6432 68.2477ZM64.5634 71.0935V72.7315H68.5634V71.0935H64.5634ZM66.5634 74.7315H68.9934V70.7315H66.5634V74.7315ZM66.9934 72.7315V80.7955H70.9934V72.7315H66.9934ZM68.9934 78.7955H66.1134V82.7955H68.9934V78.7955ZM64.1134 80.7955V82.9375H68.1134V80.7955H64.1134ZM81.1226 85.1895C83.1508 85.1895 84.8887 84.2623 86.0414 82.5812C87.1364 80.9841 87.6226 78.839 87.6226 76.4035H83.6226C83.6226 78.378 83.2178 79.6259 82.7424 80.3193C82.3245 80.9287 81.8124 81.1895 81.1226 81.1895V85.1895ZM87.6226 76.4035C87.6226 73.9768 87.1363 71.8488 86.0297 70.2697C84.8631 68.605 83.1215 67.7255 81.1226 67.7255V71.7255C81.8418 71.7255 82.3502 71.989 82.754 72.5653C83.2179 73.2272 83.6226 74.4382 83.6226 76.4035H87.6226ZM81.1226 67.7255C79.1187 67.7255 77.3678 68.59 76.1941 70.2614C75.0841 71.8421 74.6046 73.9737 74.6046 76.4035H78.6046C78.6046 74.4233 79.0071 73.2159 79.4676 72.5601C79.8645 71.995 80.3725 71.7255 81.1226 71.7255V67.7255ZM74.6046 76.4035C74.6046 78.8348 75.0847 80.9818 76.1814 82.5812C77.3383 84.2686 79.084 85.1895 81.1226 85.1895V81.1895C80.4072 81.1895 79.8939 80.9224 79.4804 80.3193C79.0065 79.6282 78.6046 78.3822 78.6046 76.4035H74.6046ZM81.1226 79.1195C81.1667 79.1195 81.2907 79.1352 81.4189 79.2193C81.5366 79.2965 81.5345 79.351 81.4748 79.2305C81.3234 78.9249 81.1066 78.123 81.1066 76.4035H77.1066C77.1066 78.302 77.3218 79.8581 77.8904 81.006C78.1907 81.6122 78.6206 82.1673 79.2243 82.5635C79.8385 82.9666 80.5025 83.1195 81.1226 83.1195V79.1195ZM81.1066 76.4035C81.1066 74.6784 81.3253 73.9143 81.4634 73.6441C81.5134 73.5463 81.5034 73.6119 81.3774 73.6902C81.2473 73.771 81.1356 73.7775 81.1226 73.7775V69.7775C80.5336 69.7775 79.8819 69.91 79.2659 70.2929C78.6539 70.6733 78.2118 71.217 77.9018 71.8234C77.3199 72.9617 77.1066 74.5106 77.1066 76.4035H81.1066ZM81.1226 73.7775C81.1095 73.7775 80.994 73.7709 80.8597 73.6869C80.7299 73.6056 80.7187 73.5369 80.7682 73.635C80.9056 73.9073 81.1206 74.6741 81.1206 76.4035H85.1206C85.1206 74.5149 84.9126 72.9687 84.339 71.8325C84.0331 71.2264 83.5943 70.6795 82.9819 70.2962C82.3649 69.9101 81.7117 69.7775 81.1226 69.7775V73.7775ZM81.1206 76.4035C81.1206 78.1273 80.9075 78.9318 80.757 79.2394C80.6978 79.3604 80.6969 79.303 80.8181 79.2228C80.9505 79.1354 81.0783 79.1195 81.1226 79.1195V83.1195C81.7429 83.1195 82.4085 82.9664 83.0235 82.56C83.6273 82.1609 84.0539 81.6028 84.3502 80.9971C84.9107 79.8512 85.1206 78.2977 85.1206 76.4035H81.1206Z" fill="#29678F"/>
</svg>
