<svg width="108" height="108" viewBox="0 0 108 108" fill="none" xmlns="http://www.w3.org/2000/svg">
<g clip-path="url(#clip0_346_1672)">
<path d="M54.005 108.01C83.8311 108.01 108.01 83.8311 108.01 54.005C108.01 24.1789 83.8311 0 54.005 0C24.1789 0 0 24.1789 0 54.005C0 83.8311 24.1789 108.01 54.005 108.01Z" fill="#8FC8D5"/>
<path d="M88.2813 25.9062L90.5431 42.3568L88.2813 45.3162L85.2522 44.0507L83.9868 36.6176L53.3275 77.211L40.5038 71.2824L21.343 82.0037L17.9353 80.4891L18.4136 77.2907L40.3643 64.9054L51.6137 70.0469L79.1243 33.5985L72.0499 35.1429L69.2101 32.8213L70.4058 29.7324L88.2813 25.9062Z" fill="#EEF6FD" stroke="#1E6188" stroke-width="1.5" stroke-miterlimit="10"/>
</g>
<defs>
<clipPath id="clip0_346_1672">
<rect width="108" height="108" fill="white"/>
</clipPath>
</defs>
</svg>
