<svg width="109" height="109" viewBox="0 0 109 109" fill="none" xmlns="http://www.w3.org/2000/svg">
<g clip-path="url(#clip0_346_1680)">
<path d="M54.2 108.4C84.1338 108.4 108.4 84.1338 108.4 54.2C108.4 24.2662 84.1338 0 54.2 0C24.2662 0 0 24.2662 0 54.2C0 84.1338 24.2662 108.4 54.2 108.4Z" fill="#8FC8D5"/>
<path d="M34.8958 24.8714C35.9749 23.0718 35.4425 20.6923 33.6872 19.5769C31.9463 18.4615 29.6586 19.0118 28.5652 20.8113C27.9609 21.8375 27.8889 23.0272 28.2199 24.0683C27.1552 24.217 26.1624 24.8267 25.5581 25.838C24.479 27.6524 25.0114 30.0171 26.7523 31.1474C28.4932 32.2628 30.7953 31.7125 31.8744 29.8981C31.9175 29.8535 31.9319 29.794 31.9607 29.7345L45.1255 38.1819L47.9599 33.4525L34.7951 25.0201C34.8238 24.9606 34.867 24.9308 34.8958 24.8714Z" fill="#D9D9D9" stroke="#29678F" stroke-width="2" stroke-miterlimit="10"/>
<path d="M79.9869 49.2615C78.246 48.1461 75.9439 48.6964 74.8649 50.5108C74.8361 50.5554 74.8217 50.6149 74.7929 50.6744L61.6281 42.2271L58.7937 46.9564L71.9585 55.4037C71.9298 55.4483 71.8866 55.4929 71.8578 55.5376C70.7787 57.3371 71.3111 59.7166 73.0664 60.832C74.8073 61.9474 77.1094 61.3972 78.1884 59.5828C78.7927 58.5715 78.8791 57.3817 78.5337 56.3258C79.5984 56.1771 80.5912 55.5673 81.2099 54.556C82.2746 52.7416 81.7422 50.3769 79.9869 49.2615Z" fill="#D9D9D9" stroke="#29678F" stroke-width="2" stroke-miterlimit="10"/>
<path d="M45.1257 42.2124L31.9609 50.6597C31.9321 50.6151 31.9178 50.5556 31.889 50.4961C30.8099 48.6966 28.5078 48.1315 26.7669 49.2469C25.026 50.3623 24.4793 52.7418 25.5583 54.5413C26.1626 55.5675 27.1554 56.1773 28.2201 56.326C27.8748 57.3819 27.9611 58.5717 28.5654 59.583C29.6445 61.3825 31.9465 61.9476 33.6875 60.8322C35.4284 59.7168 35.9751 57.3373 34.896 55.5378C34.8672 55.4783 34.8241 55.4337 34.7953 55.3891L47.9601 46.9417L45.1257 42.2124Z" fill="#D9D9D9" stroke="#29678F" stroke-width="2" stroke-miterlimit="10"/>
<path d="M61.6142 38.1816L74.779 29.7343C74.8078 29.7789 74.8222 29.8384 74.8509 29.8979C75.93 31.6974 78.2321 32.2625 79.973 31.1471C81.7139 30.0317 82.2606 27.6522 81.1816 25.8526C80.5773 24.8413 79.5701 24.2316 78.5054 24.0829C78.8507 23.027 78.7644 21.8372 78.1601 20.8259C77.081 19.0264 74.779 18.4612 73.0381 19.5766C71.2971 20.692 70.7504 23.0716 71.8295 24.8711C71.8583 24.9157 71.9014 24.9603 71.9302 25.0049L58.7654 33.4523L61.6142 38.1816Z" fill="#D9D9D9" stroke="#29678F" stroke-width="2" stroke-miterlimit="10"/>
<path d="M69.2827 38.2116C69.2827 29.1842 62.2039 21.8672 53.4705 21.8672C44.7371 21.8672 37.6583 29.1842 37.6583 38.2116C37.6583 44.1009 40.6798 49.2467 45.2119 52.1319V56.1176C45.2119 57.932 46.6363 59.4192 48.406 59.4192H58.348C60.1033 59.4192 61.5421 57.9468 61.5421 56.1176V52.2657C66.1749 49.3954 69.2827 44.1902 69.2827 38.2116Z" fill="#F7F7F7" stroke="#29678F" stroke-width="2" stroke-miterlimit="10"/>
<path d="M49.2981 54.9722V59.404" stroke="#29678F" stroke-width="2" stroke-miterlimit="10" stroke-linecap="round"/>
<path d="M53.3696 54.9722V59.404" stroke="#29678F" stroke-width="2" stroke-miterlimit="10" stroke-linecap="round"/>
<path d="M57.4557 54.9722V59.404" stroke="#29678F" stroke-width="2" stroke-miterlimit="10" stroke-linecap="round"/>
<path d="M55.2692 49.0684L53.4851 46.7764L51.5427 49.0684" stroke="#29678F" stroke-width="2" stroke-miterlimit="10" stroke-linecap="round" stroke-linejoin="round"/>
<path d="M47.0819 45.9151C49.3386 45.9151 51.168 44.0241 51.168 41.6914C51.168 39.3588 49.3386 37.4678 47.0819 37.4678C44.8252 37.4678 42.9957 39.3588 42.9957 41.6914C42.9957 44.0241 44.8252 45.9151 47.0819 45.9151Z" fill="#C8C3CA" stroke="#29678F" stroke-width="2" stroke-miterlimit="10"/>
<path d="M59.8724 45.9151C62.1291 45.9151 63.9585 44.0241 63.9585 41.6914C63.9585 39.3588 62.1291 37.4678 59.8724 37.4678C57.6157 37.4678 55.7863 39.3588 55.7863 41.6914C55.7863 44.0241 57.6157 45.9151 59.8724 45.9151Z" fill="#C8C3CA" stroke="#29678F" stroke-width="2" stroke-miterlimit="10"/>
<path d="M48.86 76.048L47.868 81.168H52.252V83.312H47.452L46.14 90H43.868L45.18 83.312H40.604L39.356 90H37.116L38.332 83.312H34.3V81.168H38.748L39.772 76.048H35.484V73.936H40.156L41.436 67.152H43.74L42.46 73.936H47.068L48.348 67.152H50.556L49.276 73.936H53.34V76.048H48.86ZM41.02 81.168H45.596L46.588 76.048H42.012L41.02 81.168ZM65.5475 90H62.7955V74.032C62.7955 73.4133 62.7955 72.8907 62.7955 72.464C62.8168 72.0373 62.8382 71.6427 62.8595 71.28C62.8808 70.896 62.9022 70.5013 62.9235 70.096C62.5822 70.4373 62.2728 70.7253 61.9955 70.96C61.7182 71.1947 61.3662 71.4933 60.9395 71.856L58.5075 73.84L57.0355 71.952L63.2115 67.152H65.5475V90Z" fill="white"/>
</g>
<defs>
<clipPath id="clip0_346_1680">
<rect width="108.39" height="108.39" fill="white"/>
</clipPath>
</defs>
</svg>
