<svg width="109" height="109" viewBox="0 0 109 109" fill="none" xmlns="http://www.w3.org/2000/svg">
<g clip-path="url(#clip0_392_2545)">
<path d="M54.2 108.4C84.1338 108.4 108.4 84.1338 108.4 54.2C108.4 24.2662 84.1338 0 54.2 0C24.2662 0 0 24.2662 0 54.2C0 84.1338 24.2662 108.4 54.2 108.4Z" fill="#EEF6FD"/>
<path d="M36.2688 39.9085C48.6831 37.7998 58.0556 32.0208 57.2029 27.0007C56.3502 21.9805 45.5952 19.6202 33.1809 21.7289C20.7666 23.8375 11.3941 29.6166 12.2468 34.6367C13.0995 39.6569 23.8545 42.0171 36.2688 39.9085Z" stroke="#2A6084" stroke-width="2" stroke-miterlimit="10"/>
<path d="M98.8882 43.9485C99.6366 39.0346 88.9657 33.3335 75.0539 31.2146C61.1421 29.0957 49.2576 31.3616 48.5092 36.2755C47.7608 41.1894 58.4318 46.8905 72.3436 49.0094C86.2554 51.1283 98.1398 48.8624 98.8882 43.9485Z" fill="#2A6084"/>
<path d="M43.9649 73.8177C43.8706 73.8185 43.7794 73.7847 43.7083 73.7229C43.6373 73.661 43.5913 73.5752 43.5792 73.4818L42.9198 68.941L42.7706 69.364C42.7316 69.4609 42.6571 69.5393 42.5624 69.5832C42.4676 69.6271 42.3596 69.6333 42.2605 69.6004C42.1616 69.564 42.0812 69.4898 42.0369 69.3942C41.9926 69.2986 41.988 69.1893 42.0241 69.0903L42.7084 67.187C42.7388 67.1019 42.7972 67.0296 42.874 66.9822C42.9509 66.9347 43.0416 66.9148 43.1313 66.9257C43.219 66.9335 43.3014 66.9711 43.3647 67.0322C43.4281 67.0933 43.4687 67.1743 43.4797 67.2616L43.9649 70.6081L44.7237 65.2089C44.7359 65.1155 44.7818 65.0297 44.8529 64.9678C44.9239 64.9059 45.0151 64.8723 45.1094 64.8731C45.202 64.8759 45.2911 64.9091 45.363 64.9675C45.435 65.026 45.4857 65.1064 45.5075 65.1964L46.2663 69.3018L46.963 66.5276C46.9804 66.442 47.0273 66.3653 47.0955 66.3107C47.1637 66.2562 47.2489 66.2273 47.3362 66.229C47.4229 66.2282 47.5074 66.2557 47.577 66.3074C47.6466 66.359 47.6975 66.432 47.7218 66.5152L48.4185 68.8291H55.3851C55.4907 68.8291 55.5919 68.871 55.6666 68.9456C55.7413 69.0203 55.7832 69.1216 55.7832 69.2272C55.7801 69.3318 55.7371 69.4312 55.6631 69.5052C55.5891 69.5792 55.4897 69.6222 55.3851 69.6253H48.1199C48.0338 69.6241 47.9501 69.5958 47.8809 69.5444C47.8117 69.4931 47.7604 69.4213 47.7343 69.3391L47.3735 68.0951L46.6022 71.2301C46.5803 71.3157 46.5305 71.3916 46.4606 71.4458C46.3908 71.5 46.305 71.5294 46.2166 71.5294C46.1282 71.5294 46.0423 71.5 45.9724 71.4458C45.9026 71.3916 45.8528 71.3157 45.8309 71.2301L45.1715 67.7094L44.3629 73.4569C44.3507 73.5536 44.3035 73.6426 44.2301 73.7068C44.1567 73.771 44.0624 73.806 43.9649 73.8052V73.8177Z" fill="#2C6185"/>
<path d="M59.4531 61.1412V61.5143C60.1681 61.5056 60.8775 61.6416 61.5385 61.9143C62.1995 62.1869 62.7986 62.5905 63.2995 63.1008C63.8005 63.611 64.1929 64.2174 64.4534 64.8833C64.7138 65.5492 64.8368 66.261 64.8149 66.9757H65.1882C65.2118 66.2115 65.0803 65.4505 64.8017 64.7385C64.5231 64.0265 64.1032 63.3783 63.5672 62.833C63.0313 62.2878 62.3904 61.8568 61.6833 61.566C60.9763 61.2752 60.2176 61.1307 59.4531 61.1412Z" fill="#2D6083" stroke="#2D6083" stroke-width="0.25" stroke-miterlimit="10"/>
<path d="M59.4655 59.0004C57.4143 58.9938 55.4441 59.8006 53.9866 61.244C52.5292 62.6875 51.7035 64.6498 51.6903 66.701H52.8224C52.8355 64.9512 53.5424 63.2781 54.7879 62.0489C56.0334 60.8197 57.7157 60.1349 59.4655 60.1449C60.3226 60.1361 61.1726 60.3007 61.9644 60.6288C62.7562 60.9569 63.4735 61.4417 64.0731 62.0541C64.6728 62.6666 65.1424 63.3939 65.4537 64.1925C65.765 64.991 65.9117 65.8443 65.8848 66.701C65.8848 68.9029 63.7823 71.2293 62.0904 73.0954C60.993 74.099 60.1416 75.342 59.6024 76.7279C59.3287 78.1959 58.0598 80.2486 56.1315 80.2486C55.2219 80.2519 54.3478 79.8954 53.6999 79.2569C53.052 78.6183 52.6829 77.7495 52.6731 76.8399H51.541C51.5426 77.4405 51.6627 78.0349 51.8945 78.5891C52.1262 79.1432 52.465 79.6461 52.8914 80.0691C53.3179 80.4921 53.8236 80.8267 54.3795 81.0539C54.9355 81.2811 55.5309 81.3964 56.1315 81.3931C57.2899 81.2855 58.3766 80.7852 59.2115 79.9752C60.0465 79.1651 60.5794 78.094 60.722 76.9394C61.2646 75.7677 62.0391 74.7182 62.9986 73.8542C64.8149 71.8389 67.0915 69.3383 67.0915 66.701C67.1115 65.6905 66.9285 64.6863 66.5533 63.7479C66.1781 62.8095 65.6183 61.9559 64.9072 61.2378C64.196 60.5197 63.3479 59.9517 62.4132 59.5674C61.4785 59.183 60.4761 58.9902 59.4655 59.0004Z" fill="#2D6083" stroke="#2D6083" stroke-width="0.5" stroke-miterlimit="10"/>
<path d="M63.1602 66.7515H62.4013C62.3815 65.9116 62.0554 65.1078 61.4845 64.4913C60.9136 63.8749 60.1371 63.4883 59.3011 63.4042C58.465 63.3202 57.6271 63.5445 56.9449 64.0349C56.2627 64.5254 55.7831 65.2481 55.5964 66.0673C56.2894 66.2603 56.8904 66.6951 57.2906 67.2929C57.6908 67.8907 57.8636 68.612 57.7779 69.3263C57.6922 70.0405 57.3536 70.7005 56.8233 71.1866C56.2931 71.6728 55.6063 71.953 54.8874 71.9765V71.2177C55.4609 71.2178 56.0126 70.9979 56.4287 70.6033C56.8449 70.2087 57.0938 69.6694 57.1241 69.0967C57.1544 68.524 56.9638 67.9615 56.5916 67.5252C56.2194 67.0889 55.694 66.8119 55.1237 66.7515H54.7629C54.8214 65.6775 55.2892 64.6668 56.0702 63.9272C56.8512 63.1876 57.886 62.7754 58.9616 62.7754C60.0372 62.7754 61.0719 63.1876 61.8529 63.9272C62.6339 64.6668 63.1017 65.6775 63.1602 66.7515Z" fill="#2D6083" stroke="#2D6083" stroke-width="0.25" stroke-miterlimit="10"/>
<path d="M34.9945 81.3771C34.7116 79.8279 32.0402 79.3115 31.684 79.1876C30.0161 78.8472 28.4093 78.2624 26.9173 77.4524C26.7996 76.9373 26.7783 76.4052 26.8544 75.8825C27.6249 74.8019 28.245 73.6243 28.6983 72.3813C28.9952 72.3961 29.2869 72.3003 29.5154 72.1128C30.2013 71.2842 30.6691 70.3015 30.8773 69.2519C30.9005 69.078 30.8854 68.9013 30.8329 68.7338C30.7805 68.5662 30.692 68.4118 30.5735 68.281C30.3827 68.0843 30.1394 67.9446 29.8716 67.8782C30.1969 66.7784 30.2065 65.6113 29.8995 64.5064C29.5925 63.4015 28.9809 62.4022 28.1325 61.6193C26.8252 60.5718 25.1919 60 23.5073 60C21.8226 60 20.1894 60.5718 18.8821 61.6193C18.0319 62.401 17.4182 63.3999 17.1094 64.5048C16.8005 65.6098 16.8085 66.7775 17.1325 67.8782C16.869 67.9474 16.6298 68.0868 16.4411 68.281C16.3226 68.4118 16.2341 68.5662 16.1817 68.7338C16.1293 68.9013 16.1141 69.078 16.1373 69.2519C16.3455 70.3015 16.8133 71.2842 17.4992 72.1128C17.7272 72.3012 18.0193 72.3971 18.3163 72.3813C18.7658 73.6259 19.3862 74.804 20.1602 75.8825C20.2304 76.4055 20.2091 76.9365 20.0973 77.4524C18.6053 78.2624 16.9985 78.8472 15.3306 79.1876C14.9744 79.2599 12.303 79.8279 12.0201 81.3771C12.0005 81.4428 11.9951 81.5118 12.0044 81.5796C12.0137 81.6474 12.0375 81.7125 12.0741 81.7707C12.1107 81.8288 12.1594 81.8786 12.217 81.9169C12.2745 81.9552 12.3396 81.9811 12.408 81.9928C12.4764 82.0045 12.5466 82.0019 12.6138 81.985C12.6811 81.9681 12.744 81.9374 12.7984 81.8949C12.8528 81.8523 12.8974 81.799 12.9294 81.7382C12.9614 81.6775 12.98 81.6107 12.984 81.5424C13.1202 80.8298 14.7544 80.2823 15.5297 80.1377C16.659 79.8676 17.7685 79.5226 18.8506 79.1049C20.7154 78.4026 20.883 78.0721 20.9459 77.8759C21.1645 77.1561 21.2146 76.3969 21.0925 75.6553C21.0835 75.566 21.051 75.4806 20.9983 75.4075C20.1529 74.2387 19.4924 72.9502 19.0392 71.586C19.0157 71.5117 18.9737 71.4444 18.917 71.3902C18.8602 71.3361 18.7906 71.2969 18.7144 71.2762C18.6395 71.2563 18.561 71.2534 18.4848 71.2677C18.4086 71.282 18.3367 71.3131 18.2744 71.3588C18.2116 71.3588 18.1906 71.4208 18.1068 71.3588C17.8274 70.9631 17.5821 70.5451 17.3735 70.1091C17.0068 69.3138 17.0697 68.9833 17.122 68.9317C17.1772 68.8644 17.2538 68.8176 17.3395 68.7988C17.4251 68.78 17.5146 68.7905 17.5935 68.8284C17.6822 68.8642 17.7798 68.8725 17.8734 68.8522C17.967 68.8319 18.052 68.7839 18.1173 68.7148C18.1831 68.6498 18.2288 68.5678 18.2492 68.4782C18.2696 68.3886 18.2639 68.2952 18.2326 68.2087C18.1697 68.0538 16.8601 64.5629 19.4897 62.332C20.6194 61.4359 22.0259 60.9473 23.4759 60.9473C24.9259 60.9473 26.3323 61.4359 27.4621 62.332C30.0811 64.5629 28.7716 68.0538 28.7192 68.2087C28.6852 68.2948 28.678 68.3889 28.6986 68.4791C28.7191 68.5692 28.7664 68.6513 28.8345 68.7148C28.8972 68.7844 28.9804 68.8328 29.0725 68.8531C29.1647 68.8735 29.2609 68.8649 29.3478 68.8284C29.4282 68.7898 29.5195 68.7789 29.6069 68.7976C29.6943 68.8163 29.7728 68.8636 29.8297 68.9317C29.8821 68.9833 29.9449 69.3138 29.5678 70.1091C29.3656 70.5464 29.1237 70.9646 28.8449 71.3588C28.7611 71.3588 28.7297 71.3588 28.6773 71.3588C28.6151 71.3131 28.5431 71.282 28.4669 71.2677C28.3907 71.2534 28.3122 71.2563 28.2373 71.2762C28.1597 71.2963 28.0884 71.3351 28.0298 71.3892C27.9713 71.4433 27.9274 71.511 27.9021 71.586C27.4564 72.9513 26.7991 74.2404 25.9535 75.4075C25.9008 75.4806 25.8683 75.566 25.8592 75.6553C25.7315 76.3967 25.7817 77.1571 26.0059 77.8759C26.0897 78.0514 26.2573 78.4026 28.1011 79.1049C29.1797 79.5225 30.2857 79.8676 31.4116 80.1377C32.1868 80.2823 33.8211 80.8298 33.9573 81.5424C33.9674 81.6052 33.9902 81.6654 34.0243 81.7194C34.0584 81.7733 34.1032 81.82 34.1559 81.8566C34.2087 81.8932 34.2684 81.919 34.3314 81.9324C34.3945 81.9459 34.4596 81.9467 34.523 81.9348C34.5926 81.9327 34.6609 81.916 34.7234 81.886C34.786 81.8559 34.8413 81.8132 34.8859 81.7605C34.9304 81.7078 34.9631 81.6463 34.9818 81.5802C35.0006 81.5142 35.0049 81.445 34.9945 81.3771Z" fill="#2D6083" stroke="#2D6083" stroke-width="0.5" stroke-miterlimit="10"/>
<path d="M34.9747 58.0251C34.9532 58.009 34.9243 58 34.8942 58C34.8641 58 34.8352 58.009 34.8137 58.0251L31.3631 59.9862C31.356 59.9972 31.3523 60.0092 31.3523 60.0214C31.3523 60.0336 31.356 60.0456 31.3631 60.0565C31.355 60.0688 31.3508 60.0824 31.3508 60.0962C31.3508 60.1099 31.355 60.1234 31.3631 60.1357L32.3293 60.6809L30.0289 62.8706C30.0102 62.888 30 62.9097 30 62.9322C30 62.9547 30.0102 62.9764 30.0289 62.9938C30.0417 62.9979 30.0553 63 30.0691 63C30.083 63 30.0967 62.9979 30.1094 62.9938H30.1899L34.1466 60.5315C34.1557 60.5194 34.1604 60.5057 34.1604 60.4918C34.1604 60.4779 34.1557 60.4643 34.1466 60.4523C34.148 60.4374 34.1432 60.4226 34.1328 60.4099C34.1225 60.3973 34.1072 60.3875 34.0891 60.3819L32.9389 59.8807L34.9862 58.1219C34.9969 58.1067 35.0016 58.0894 34.9995 58.0722C34.9975 58.055 34.9888 58.0386 34.9747 58.0251Z" fill="#2D6083"/>
<path d="M36.9918 66.7668C36.9906 66.7424 36.9825 66.719 36.9685 66.6997C36.9546 66.6804 36.9356 66.6662 36.9139 66.6589L33.762 66H33.6841C33.6756 66.0272 33.6756 66.0567 33.6841 66.0839L33.7843 67.0423L31.0779 67.2579C31.0573 67.2579 31.0374 67.2668 31.0228 67.2825C31.0082 67.2982 31 67.3196 31 67.3418C31 67.3418 31 67.3418 31 67.4137L34.7533 67.9887C34.7651 67.9961 34.7786 68 34.7922 68C34.8059 68 34.8193 67.9961 34.8312 67.9887C34.8406 67.9617 34.8406 67.9319 34.8312 67.9049L34.5862 66.8506H36.8137C36.824 66.8761 36.8433 66.896 36.8673 66.9061C36.8913 66.9162 36.9181 66.9157 36.9417 66.9045C36.9654 66.8934 36.9839 66.8726 36.9933 66.8468C37.0027 66.8209 37.0022 66.7922 36.9918 66.7668Z" fill="#2D6083"/>
<path d="M27.5745 55.0035C27.5637 54.9976 27.5519 54.9992 27.5417 55.0079C27.5315 55.0166 27.5238 55.0317 27.52 55.0501L27.0023 57.5818C26.9992 57.6064 26.9992 57.6318 27.0023 57.6563C27.0084 57.6606 27.0148 57.6629 27.0214 57.6629C27.0279 57.6629 27.0344 57.6606 27.0405 57.6563H27.4764L27.3838 59.9181C27.382 59.9268 27.3815 59.9361 27.3823 59.9452C27.3831 59.9543 27.3852 59.9629 27.3884 59.9703C27.3917 59.9777 27.3959 59.9836 27.4008 59.9874C27.4057 59.9913 27.4111 59.993 27.4165 59.9925C27.4215 59.9974 27.4271 60 27.4328 60C27.4386 60 27.4442 59.9974 27.4492 59.9925L27.9942 56.9582C27.998 56.9469 28 56.934 28 56.9209C28 56.9079 27.998 56.8951 27.9942 56.8837C27.9886 56.8769 27.9819 56.8732 27.9751 56.8732C27.9682 56.8732 27.9616 56.8769 27.956 56.8837L27.471 56.9675L27.6181 55.1059C27.6181 55.1059 27.5909 55.0035 27.5745 55.0035Z" fill="#2D6083"/>
<path d="M12.0102 57.0301C12.0316 57.0108 12.0603 57 12.0902 57C12.1201 57 12.1488 57.0108 12.1702 57.0301L15.6567 59.3832C15.6672 59.4105 15.6672 59.4403 15.6567 59.4677C15.6689 59.4983 15.6689 59.532 15.6567 59.5626L14.685 60.2169L16.9713 62.8443C16.9898 62.8651 17 62.8912 17 62.9182C17 62.9451 16.9898 62.9713 16.9713 62.9921C16.9419 63.0026 16.9092 63.0026 16.8798 62.9921H16.8112L12.8675 60.0374C12.8603 60.0225 12.8565 60.0063 12.8565 59.99C12.8565 59.9736 12.8603 59.9574 12.8675 59.9425C12.8661 59.9247 12.8709 59.9069 12.8812 59.8917C12.8914 59.8765 12.9067 59.8647 12.9247 59.8581L14.0678 59.2566L12.0216 57.1462C12.0098 57.1291 12.0026 57.1097 12.0006 57.0895C11.9986 57.0693 12.0019 57.0489 12.0102 57.0301Z" fill="#2D6083"/>
<path d="M10.0081 66.7668C10.0094 66.7424 10.0175 66.719 10.0315 66.6997C10.0454 66.6804 10.0645 66.6662 10.0861 66.6589L13.2379 66H13.3159C13.3244 66.0272 13.3244 66.0567 13.3159 66.0839L13.2157 67.0423L15.922 67.2579C15.9427 67.2579 15.9625 67.2668 15.9772 67.2825C15.9918 67.2982 16 67.3196 16 67.3418C16 67.3418 16 67.3418 16 67.4137L12.2467 67.9887C12.2349 67.9961 12.2214 68 12.2078 68C12.1941 68 12.1806 67.9961 12.1688 67.9887C12.1594 67.9617 12.1594 67.9319 12.1688 67.9049L12.4138 66.8506H10.1863C10.1812 66.8632 10.1739 66.8745 10.1647 66.8841C10.1555 66.8936 10.1446 66.9011 10.1327 66.9061C10.1208 66.9111 10.1081 66.9135 10.0953 66.9132C10.0826 66.913 10.07 66.91 10.0583 66.9045C10.0466 66.899 10.036 66.8911 10.0271 66.8812C10.0183 66.8713 10.0113 66.8596 10.0067 66.8468C10.002 66.834 9.99977 66.8204 10 66.8066C10.0003 66.7929 10.003 66.7794 10.0081 66.7668Z" fill="#2D6083"/>
<path d="M19.42 55.0018C19.4309 54.9979 19.4423 55.0004 19.4524 55.0088C19.4624 55.0173 19.4704 55.0312 19.4752 55.0483L19.9941 57.581C19.998 57.5923 20 57.6051 20 57.6182C20 57.6313 19.998 57.6441 19.9941 57.6555C19.9891 57.6604 19.9833 57.6629 19.9775 57.6629C19.9717 57.6629 19.966 57.6604 19.961 57.6555H19.5193L19.6132 59.9181C19.6132 59.9181 19.6132 59.9925 19.58 59.9925C19.575 59.9974 19.5693 60 19.5635 60C19.5577 60 19.552 59.9974 19.5469 59.9925L19.0059 56.9292C19.002 56.9179 19 56.905 19 56.892C19 56.8789 19.002 56.866 19.0059 56.8547H19.039L19.5359 56.9385L19.3868 55.0763C19.3868 55.0763 19.3979 55.0018 19.42 55.0018Z" fill="#2D6083"/>
<path d="M84.8154 84H84.6182C84.5474 83.9742 84.4823 83.9341 84.4267 83.8821C84.3712 83.8301 84.3264 83.7673 84.2949 83.6972C84.2634 83.6272 84.2459 83.5513 84.2434 83.4742C84.2409 83.397 84.2534 83.3202 84.2802 83.2482C84.7627 82.3264 84.8788 81.2487 84.6041 80.2409C84.2662 79.5181 83.2664 79.2145 82.1257 78.7952C80.9711 78.5144 79.8744 78.0248 78.8869 77.3494C78.3172 76.9732 77.8468 76.4582 77.5176 75.8503C77.1884 75.2425 77.0106 74.5606 77 73.8652C77 70.9736 80.4641 68.5013 80.6049 68.4001C81.6583 67.5723 82.7962 66.8646 83.9986 66.2893C86.1149 65.3027 88.0491 63.9478 89.7158 62.2845C90.7675 61.2639 91.5106 59.9539 91.8562 58.5111C91.8649 58.4349 91.8883 58.3612 91.9249 58.2944C91.9616 58.2276 92.0109 58.169 92.0699 58.1219C92.1288 58.0748 92.1964 58.0402 92.2685 58.0201C92.3406 58.0001 92.4159 57.9949 92.4899 58.005C92.6408 58.0232 92.7786 58.1017 92.8735 58.2235C92.9684 58.3453 93.0127 58.5005 92.9968 58.6556C92.6377 60.3562 91.7831 61.9042 90.5466 63.0942C88.8011 64.8694 86.7599 66.309 84.5196 67.3447C83.3806 67.8853 82.3038 68.5545 81.309 69.3399C81.2386 69.3399 78.1969 71.5808 78.1406 73.894C78.1572 74.3996 78.2942 74.8933 78.5397 75.3318C78.7852 75.7704 79.1317 76.1405 79.5488 76.4097C80.4302 77.0121 81.407 77.4524 82.4355 77.7109C83.7733 78.1301 85.0407 78.5205 85.618 79.706C85.8334 80.3493 85.9195 81.0307 85.8711 81.7091C85.8226 82.3875 85.6407 83.0488 85.3364 83.6529C85.2908 83.7557 85.2175 83.843 85.1252 83.9045C85.0329 83.966 84.9254 83.9991 84.8154 84Z" fill="#2D6083" stroke="#2D6083" stroke-width="0.5" stroke-miterlimit="10"/>
<path d="M89.3523 81C88.7356 80.9969 88.133 80.8291 87.6171 80.5167C87.1013 80.2043 86.6941 79.7608 86.4446 79.2395C86.2227 78.6958 85.8861 78.1984 85.4543 77.7762C85.0225 77.354 84.5042 77.0153 83.9295 76.78C83.7174 76.6956 83.4912 76.6456 83.2608 76.6322C83.3819 76.791 83.5181 76.9394 83.6678 77.0758C83.7241 77.1261 83.7692 77.1861 83.8004 77.2525C83.8316 77.3189 83.8484 77.3903 83.8497 77.4627C83.8511 77.5351 83.837 77.607 83.8082 77.6743C83.7795 77.7417 83.7367 77.8031 83.6823 77.8552C83.6279 77.9072 83.563 77.9489 83.4912 77.9778C83.4193 78.0067 83.342 78.0221 83.2637 78.0233C83.1854 78.0246 83.1077 78.0116 83.0348 77.985C82.9619 77.9585 82.8955 77.9189 82.8391 77.8686C82.1122 77.2235 81.8651 76.6457 82.0686 76.1484C82.1714 75.9482 82.3378 75.7817 82.5456 75.6712C82.7534 75.5607 82.9928 75.5116 83.2317 75.5302C84.219 75.647 85.1512 76.0175 85.9222 76.5995C86.6932 77.1816 87.2721 77.9518 87.5931 78.8228C87.7718 79.1877 88.0743 79.4887 88.4547 79.6803C88.8351 79.8719 89.2727 79.9435 89.7012 79.8845C90.8061 79.7367 91.5475 78.8363 91.722 77.4117C91.8388 76.9898 91.8429 76.5479 91.734 76.1242C91.6251 75.7004 91.4065 75.3075 91.0969 74.9792C90.977 74.8874 90.9007 74.7558 90.8844 74.6126C90.8681 74.4695 90.913 74.3261 91.0096 74.2132C91.0566 74.1558 91.1156 74.1077 91.1831 74.0718C91.2505 74.0358 91.3252 74.0128 91.4025 74.004C91.4798 73.9952 91.5581 74.0009 91.633 74.0207C91.7079 74.0404 91.7777 74.0739 91.8383 74.1191C92.3134 74.5585 92.66 75.1022 92.8456 75.6993C93.0312 76.2963 93.0498 76.9271 92.8996 77.5326C92.9066 78.3416 92.6086 79.1275 92.0567 79.7554C91.5049 80.3833 90.7337 80.8138 89.8757 80.9731L89.3523 81Z" fill="#2D6083" stroke="#2D6083" stroke-width="0.25" stroke-miterlimit="10"/>
<path d="M86.5258 68C86.4568 68 86.3884 67.9864 86.3246 67.9599C86.2608 67.9335 86.2028 67.8948 86.154 67.8459C86.1052 67.7971 86.0665 67.7391 86.04 67.6753C86.0136 67.6115 86 67.5431 86 67.4741C86 67.405 86.0136 67.3366 86.04 67.2728C86.0665 67.209 86.1052 67.1511 86.154 67.1022C86.2028 67.0534 86.2608 67.0147 86.3246 66.9882C86.3884 66.9618 86.4568 66.9483 86.5258 66.9483C87.1697 66.9483 87.7875 66.6936 88.2443 66.2398C88.7011 65.7859 88.9598 65.1698 88.964 64.5259C88.964 64.3864 89.0194 64.2527 89.118 64.1541C89.2166 64.0554 89.3504 64 89.4899 64C89.5582 64 89.6258 64.0136 89.6888 64.0403C89.7517 64.0669 89.8086 64.1059 89.8562 64.1549C89.9038 64.204 89.9409 64.2621 89.9656 64.3258C89.9903 64.3896 90.0019 64.4576 89.9998 64.5259C89.9998 65.4473 89.6338 66.331 88.9823 66.9825C88.3308 67.634 87.4472 68 86.5258 68Z" fill="#2C6185"/>
<path d="M89.4898 72C89.3503 72 89.2166 71.9446 89.118 71.8459C89.0194 71.7473 88.964 71.6136 88.964 71.4741C88.9598 70.8288 88.7015 70.2111 88.2452 69.7547C87.7889 69.2984 87.1712 69.0403 86.5259 69.0361C86.3864 69.0361 86.2526 68.9806 86.154 68.882C86.0554 68.7834 86 68.6497 86 68.5102C86 68.4419 86.0136 68.3742 86.0403 68.3113C86.0669 68.2484 86.1059 68.1914 86.1549 68.1438C86.204 68.0962 86.2621 68.0591 86.3258 68.0344C86.3895 68.0097 86.4576 67.9981 86.5259 68.0002C87.4472 68.0002 88.3308 68.3662 88.9823 69.0177C89.6337 69.6692 89.9998 70.5528 89.9998 71.4741C90.0019 71.5424 89.9903 71.6105 89.9656 71.6742C89.9409 71.7379 89.9037 71.796 89.8561 71.8451C89.8086 71.8941 89.7516 71.9331 89.6887 71.9597C89.6258 71.9864 89.5581 72 89.4898 72Z" fill="#2C6185"/>
<path d="M93.4762 68C92.557 68 91.6752 67.6345 91.0237 66.9835C90.3723 66.3324 90.0042 65.4488 90 64.5259C90 64.3864 90.0552 64.2527 90.1534 64.1541C90.2516 64.0554 90.3849 64 90.5238 64C90.6628 64 90.796 64.0554 90.8942 64.1541C90.9925 64.2527 91.0476 64.3864 91.0476 64.5259C91.0476 64.8454 91.1105 65.1616 91.2328 65.4566C91.355 65.7515 91.5342 66.0193 91.7599 66.2444C91.9856 66.4696 92.2535 66.6476 92.548 66.7684C92.8426 66.8892 93.158 66.9504 93.4762 66.9483C93.6151 66.9483 93.7484 67.0036 93.8466 67.1022C93.9448 67.2009 94 67.3346 94 67.4741C94 67.6136 93.9448 67.7473 93.8466 67.8459C93.7484 67.9446 93.6151 68 93.4762 68Z" fill="#2C6185"/>
<path d="M90.5259 72C90.3864 72 90.2527 71.9446 90.1541 71.8459C90.0554 71.7473 90 71.6136 90 71.4741C90.0042 70.5512 90.3738 69.6676 91.0278 69.0165C91.6818 68.3655 92.567 68 93.4898 68C93.6251 68 93.7548 68.0538 93.8504 68.1494C93.946 68.245 93.9998 68.3747 93.9998 68.51C94.0019 68.5783 93.9903 68.6463 93.9656 68.71C93.9409 68.7738 93.9037 68.8319 93.8561 68.8809C93.8086 68.93 93.7516 68.9689 93.6887 68.9955C93.6258 69.0221 93.5581 69.0359 93.4898 69.0359C92.8432 69.0359 92.2231 69.2928 91.7659 69.75C91.3086 70.2073 91.0517 70.8274 91.0517 71.4741C91.0517 71.6136 90.9963 71.7473 90.8977 71.8459C90.7991 71.9446 90.6654 72 90.5259 72Z" fill="#2C6185"/>
<path d="M26.4558 28.8047L28.124 37.371L27.1201 37.5665L21.1423 31.7497L21.0587 31.766L22.3685 38.4919L21.3312 38.6939L19.6629 30.1276L20.6668 29.9321L26.6646 35.7624L26.7482 35.7461L25.4352 29.0035L26.4558 28.8047ZM30.1997 36.9668L28.5315 28.4005L31.426 27.8368C32.098 27.7059 32.671 27.7202 33.1448 27.8798C33.621 28.0359 34.0021 28.2989 34.2883 28.6686C34.5745 29.0383 34.7667 29.4756 34.865 29.9803C34.9633 30.485 34.9495 30.9638 34.8235 31.4167C34.7003 31.8691 34.4493 32.2595 34.0704 32.5879C33.691 32.9136 33.1681 33.1414 32.5016 33.2712L30.427 33.6752L30.2478 32.755L32.289 32.3575C32.7491 32.2679 33.1031 32.1164 33.351 31.9032C33.5989 31.6899 33.7592 31.4358 33.832 31.1409C33.9071 30.8427 33.9112 30.522 33.8444 30.1791C33.7776 29.8361 33.6538 29.5418 33.4728 29.2963C33.2946 29.0503 33.0498 28.878 32.7383 28.7795C32.4263 28.6781 32.0374 28.6728 31.5717 28.7635L29.748 29.1187L31.237 36.7648L30.1997 36.9668ZM43.4228 28.279L42.3854 28.481C42.266 28.1946 42.1076 27.9534 41.9102 27.7574C41.7156 27.5608 41.4947 27.4071 41.2473 27.296C41.0022 27.1817 40.7409 27.111 40.4636 27.084C40.1863 27.0569 39.9054 27.0711 39.621 27.1265C39.1023 27.2275 38.658 27.4501 38.288 27.7942C37.9207 28.1378 37.6627 28.5889 37.5139 29.1475C37.3679 29.7056 37.3671 30.3555 37.5116 31.0973C37.656 31.839 37.9006 32.4412 38.2454 32.9037C38.5929 33.3656 39.0014 33.6869 39.4707 33.8676C39.9428 34.0477 40.4382 34.0873 40.9569 33.9863C41.2413 33.9309 41.507 33.8386 41.7539 33.7095C42.0008 33.5804 42.2167 33.4182 42.4015 33.2231C42.5886 33.0245 42.7355 32.7977 42.8421 32.5425C42.9509 32.284 43.0072 32.0009 43.011 31.6934L44.0483 31.4914C44.0555 31.9444 43.9896 32.3639 43.8506 32.7498C43.7116 33.1358 43.5123 33.4799 43.2528 33.7823C42.9928 34.0818 42.684 34.3315 42.3264 34.5314C41.9716 34.7308 41.5781 34.8725 41.1459 34.9567C40.4153 35.099 39.7308 35.047 39.0924 34.8009C38.454 34.5547 37.9077 34.1344 37.4532 33.5398C36.9988 32.9453 36.6836 32.1963 36.5077 31.2928C36.3317 30.3893 36.3428 29.5767 36.5409 28.8551C36.739 28.1335 37.0877 27.5388 37.5871 27.0711C38.0864 26.6034 38.7014 26.2984 39.432 26.1561C39.8642 26.0719 40.2822 26.0557 40.6859 26.1073C41.0923 26.1584 41.4725 26.2754 41.8265 26.4582C42.18 26.6383 42.4935 26.8811 42.7672 27.1867C43.0404 27.4895 43.2589 27.8536 43.4228 28.279ZM46.9312 31.2078L46.9214 31.1576C46.8233 30.6239 46.7965 30.1892 46.8411 29.8535C46.8857 29.5177 46.9866 29.2333 47.1438 29.0001C47.3009 28.7669 47.5002 28.5414 47.7414 28.3236C47.8864 28.1912 48.0111 28.0439 48.1155 27.8818C48.2194 27.7168 48.2914 27.5364 48.3314 27.3405C48.3742 27.144 48.3741 26.9356 48.3312 26.7153C48.278 26.4421 48.1677 26.2175 48.0003 26.0417C47.8329 25.8659 47.6313 25.7446 47.3954 25.6776C47.1595 25.6107 46.9105 25.6027 46.6484 25.6538C46.4197 25.6983 46.2087 25.7886 46.0152 25.9247C45.8217 26.0608 45.6737 26.2445 45.5711 26.4757C45.4686 26.707 45.4382 26.9893 45.4799 27.3227L44.4259 27.528C44.3559 27.0496 44.3996 26.6199 44.5569 26.2391C44.7171 25.8577 44.9638 25.5419 45.2972 25.2918C45.6333 25.0411 46.0272 24.8717 46.479 24.7838C46.9697 24.6882 47.4154 24.7027 47.8159 24.8273C48.2192 24.9514 48.553 25.1642 48.8172 25.4659C49.0843 25.767 49.2601 26.135 49.3448 26.57C49.4046 26.8768 49.4112 27.1635 49.3647 27.4301C49.321 27.6962 49.2304 27.9439 49.0927 28.1734C48.9578 28.4022 48.7823 28.6158 48.5663 28.8142C48.3508 29.0154 48.1857 29.2154 48.071 29.4143C47.9558 29.6104 47.8873 29.8306 47.8654 30.0751C47.8436 30.3196 47.8635 30.6153 47.9253 30.9621L47.935 31.0123L46.9312 31.2078ZM47.9488 33.5798C47.7424 33.62 47.551 33.5805 47.3744 33.4615C47.1978 33.3425 47.0895 33.1798 47.0493 32.9735C47.0091 32.7671 47.0485 32.5757 47.1675 32.3991C47.2865 32.2225 47.4492 32.1142 47.6556 32.074C47.8619 32.0338 48.0534 32.0732 48.2299 32.1922C48.4065 32.3112 48.5149 32.4739 48.5551 32.6803C48.5817 32.8169 48.5713 32.9492 48.5238 33.0771C48.4792 33.2044 48.4065 33.3141 48.3057 33.4061C48.2072 33.4947 48.0882 33.5526 47.9488 33.5798Z" fill="#2C6185"/>
<path d="M63.4943 43.0229L64.8017 34.3941L69.9756 35.178L69.8352 36.105L65.7061 35.4794L65.2644 38.3949L69.0058 38.9618L68.8653 39.8887L65.1239 39.3219L64.5392 43.1812L63.4943 43.0229ZM72.6247 35.5794L71.3173 44.2082L70.323 44.0576L71.6304 35.4288L72.6247 35.5794ZM77.6178 42.4562L78.1975 38.6305L79.1918 38.7812L78.2113 45.2527L77.2169 45.1021L77.3829 44.0066L77.3155 43.9964C77.114 44.3021 76.8357 44.5458 76.4806 44.7276C76.126 44.9066 75.7042 44.9591 75.2155 44.885C74.811 44.8238 74.4649 44.6808 74.1771 44.4562C73.8898 44.2288 73.6834 43.9217 73.5582 43.5349C73.4333 43.1453 73.4126 42.6752 73.496 42.1247L74.119 38.0126L75.1134 38.1632L74.5005 42.208C74.429 42.6798 74.504 43.0762 74.7255 43.3971C74.9498 43.7184 75.2684 43.9104 75.6813 43.9729C75.9284 44.0104 76.1894 43.9853 76.4642 43.8976C76.7417 43.8104 76.9874 43.6493 77.2011 43.4145C77.4176 43.1801 77.5566 42.8606 77.6178 42.4562ZM81.6979 43.2985L81.7055 43.2479C81.7924 42.7123 81.9133 42.2938 82.0681 41.9926C82.2229 41.6914 82.4136 41.4573 82.64 41.2905C82.8664 41.1237 83.1298 40.9783 83.4301 40.8542C83.6112 40.7782 83.7781 40.6814 83.931 40.5638C84.0843 40.4433 84.2127 40.2976 84.3162 40.1265C84.4225 39.9558 84.4925 39.7596 84.5261 39.5377C84.5678 39.2624 84.5394 39.0139 84.4408 38.792C84.3423 38.5702 84.1931 38.3882 83.9935 38.2458C83.7938 38.1035 83.5619 38.0124 83.2979 37.9724C83.0676 37.9375 82.8384 37.9516 82.6105 38.0148C82.3825 38.0779 82.1814 38.2012 82.0071 38.3845C81.8328 38.5678 81.7093 38.8235 81.6366 39.1516L80.5748 38.9907C80.6696 38.5166 80.8552 38.1266 81.1314 37.8208C81.4104 37.5154 81.7489 37.3009 82.1469 37.1773C82.5477 37.0542 82.9756 37.0271 83.4307 37.096C83.925 37.1709 84.3399 37.3343 84.6752 37.5863C85.0134 37.8386 85.2562 38.1513 85.4038 38.5242C85.5541 38.8975 85.596 39.3033 85.5296 39.7414C85.4828 40.0504 85.3927 40.3227 85.2594 40.5582C85.1288 40.7941 84.9601 40.997 84.7534 41.1668C84.5494 41.337 84.3124 41.4793 84.0422 41.5935C83.7716 41.7105 83.5489 41.8434 83.3741 41.9922C83.1997 42.1382 83.0611 42.3226 82.9584 42.5456C82.8557 42.7685 82.7751 43.0537 82.7167 43.4011L82.709 43.4517L81.6979 43.2985ZM81.8592 45.8744C81.6514 45.8429 81.4843 45.7415 81.358 45.5701C81.2317 45.3986 81.1843 45.209 81.2158 45.0011C81.2472 44.7933 81.3487 44.6262 81.5201 44.4999C81.6916 44.3736 81.8812 44.3262 82.0891 44.3577C82.2969 44.3891 82.464 44.4906 82.5903 44.662C82.7166 44.8335 82.764 45.0231 82.7325 45.2309C82.7117 45.3686 82.6574 45.4897 82.5697 45.5942C82.4849 45.6991 82.3796 45.778 82.2538 45.8308C82.1312 45.8812 81.9997 45.8957 81.8592 45.8744Z" fill="white"/>
</g>
<defs>
<clipPath id="clip0_392_2545">
<rect width="108.39" height="108.39" fill="white"/>
</clipPath>
</defs>
</svg>
