<svg width="109" height="109" viewBox="0 0 109 109" fill="none" xmlns="http://www.w3.org/2000/svg">
<g clip-path="url(#clip0_392_2570)">
<path d="M54.2 108.4C84.1338 108.4 108.4 84.1338 108.4 54.2C108.4 24.2662 84.1338 0 54.2 0C24.2662 0 0 24.2662 0 54.2C0 84.1338 24.2662 108.4 54.2 108.4Z" fill="#EEF6FD"/>
<path d="M89.9601 82.3L92.2301 65.79L90.5401 62.87L86.9201 64.08L85.6601 71.55L54.8801 30.81L42.0101 36.75L22.7801 26L19.3601 27.52L19.8401 30.73L41.8701 43.15L53.1701 38L80.7801 74.58L73.6701 73.02L70.8201 75.35L72.0201 78.46L89.9601 82.3Z" fill="#8EC7D4" stroke="#1E6187" stroke-miterlimit="10"/>
<path d="M21.4928 59.1182C21.4928 59.6302 21.3688 60.0662 21.1208 60.4262C20.8728 60.7782 20.5168 61.0502 20.0528 61.2422C19.5968 61.4342 19.0568 61.5302 18.4328 61.5302C18.1128 61.5302 17.8048 61.5142 17.5088 61.4822C17.2208 61.4502 16.9568 61.4062 16.7168 61.3502C16.4768 61.2862 16.2648 61.2102 16.0808 61.1222V60.0902C16.3688 60.2182 16.7248 60.3342 17.1488 60.4382C17.5808 60.5422 18.0248 60.5942 18.4808 60.5942C18.9048 60.5942 19.2608 60.5382 19.5488 60.4262C19.8368 60.3142 20.0528 60.1542 20.1968 59.9462C20.3408 59.7382 20.4128 59.4942 20.4128 59.2142C20.4128 58.9342 20.3528 58.6982 20.2328 58.5062C20.1128 58.3142 19.9048 58.1382 19.6088 57.9782C19.3208 57.8102 18.9168 57.6342 18.3968 57.4502C18.0288 57.3142 17.7048 57.1702 17.4248 57.0182C17.1528 56.8582 16.9248 56.6782 16.7408 56.4782C16.5568 56.2782 16.4168 56.0502 16.3208 55.7942C16.2328 55.5382 16.1888 55.2422 16.1888 54.9062C16.1888 54.4502 16.3048 54.0622 16.5368 53.7422C16.7688 53.4142 17.0888 53.1622 17.4968 52.9862C17.9128 52.8102 18.3888 52.7222 18.9248 52.7222C19.3968 52.7222 19.8288 52.7662 20.2208 52.8542C20.6128 52.9422 20.9688 53.0582 21.2888 53.2022L20.9528 54.1262C20.6568 53.9982 20.3328 53.8902 19.9808 53.8022C19.6368 53.7142 19.2768 53.6702 18.9008 53.6702C18.5408 53.6702 18.2408 53.7222 18.0008 53.8262C17.7608 53.9302 17.5808 54.0782 17.4608 54.2702C17.3408 54.4542 17.2808 54.6702 17.2808 54.9182C17.2808 55.2062 17.3408 55.4462 17.4608 55.6382C17.5808 55.8302 17.7768 56.0022 18.0488 56.1542C18.3208 56.3062 18.6888 56.4702 19.1528 56.6462C19.6568 56.8302 20.0808 57.0302 20.4248 57.2462C20.7768 57.4542 21.0408 57.7062 21.2168 58.0022C21.4008 58.2982 21.4928 58.6702 21.4928 59.1182ZM28.4507 54.9782V61.4102H27.5867L27.4307 60.5582H27.3827C27.2467 60.7822 27.0707 60.9662 26.8547 61.1102C26.6387 61.2542 26.4027 61.3582 26.1467 61.4222C25.8907 61.4942 25.6227 61.5302 25.3427 61.5302C24.8307 61.5302 24.3987 61.4502 24.0467 61.2902C23.7027 61.1222 23.4427 60.8662 23.2667 60.5222C23.0907 60.1782 23.0027 59.7342 23.0027 59.1902V54.9782H24.0707V59.1182C24.0707 59.6302 24.1867 60.0142 24.4187 60.2702C24.6507 60.5262 25.0107 60.6542 25.4987 60.6542C25.9787 60.6542 26.3547 60.5662 26.6267 60.3902C26.9067 60.2062 27.1027 59.9422 27.2147 59.5982C27.3347 59.2462 27.3947 58.8222 27.3947 58.3262V54.9782H28.4507ZM33.4927 54.8582C33.6127 54.8582 33.7407 54.8662 33.8767 54.8822C34.0207 54.8902 34.1447 54.9062 34.2487 54.9302L34.1167 55.9022C34.0127 55.8782 33.8967 55.8582 33.7687 55.8422C33.6487 55.8262 33.5327 55.8182 33.4207 55.8182C33.1727 55.8182 32.9367 55.8702 32.7127 55.9742C32.4887 56.0782 32.2887 56.2262 32.1127 56.4182C31.9367 56.6022 31.7967 56.8262 31.6927 57.0902C31.5967 57.3542 31.5487 57.6502 31.5487 57.9782V61.4102H30.4927V54.9782H31.3567L31.4767 56.1542H31.5247C31.6607 55.9142 31.8247 55.6982 32.0167 55.5062C32.2087 55.3062 32.4287 55.1502 32.6767 55.0382C32.9247 54.9182 33.1967 54.8582 33.4927 54.8582ZM36.8657 61.4102L34.4297 54.9782H35.5577L36.9257 58.7702C36.9897 58.9462 37.0577 59.1422 37.1297 59.3582C37.2017 59.5742 37.2657 59.7822 37.3217 59.9822C37.3777 60.1742 37.4177 60.3382 37.4417 60.4742H37.4897C37.5217 60.3382 37.5657 60.1702 37.6217 59.9702C37.6857 59.7702 37.7537 59.5622 37.8257 59.3462C37.9057 59.1302 37.9737 58.9382 38.0297 58.7702L39.3977 54.9782H40.5257L38.0777 61.4102H36.8657ZM42.5994 54.9782V61.4102H41.5434V54.9782H42.5994ZM42.0834 52.5662C42.2434 52.5662 42.3834 52.6222 42.5034 52.7342C42.6314 52.8382 42.6954 53.0062 42.6954 53.2382C42.6954 53.4622 42.6314 53.6302 42.5034 53.7422C42.3834 53.8542 42.2434 53.9102 42.0834 53.9102C41.9074 53.9102 41.7594 53.8542 41.6394 53.7422C41.5194 53.6302 41.4594 53.4622 41.4594 53.2382C41.4594 53.0062 41.5194 52.8382 41.6394 52.7342C41.7594 52.6222 41.9074 52.5662 42.0834 52.5662ZM46.0532 61.4102L43.6172 54.9782H44.7452L46.1132 58.7702C46.1772 58.9462 46.2452 59.1422 46.3172 59.3582C46.3892 59.5742 46.4532 59.7822 46.5092 59.9822C46.5652 60.1742 46.6052 60.3382 46.6292 60.4742H46.6772C46.7092 60.3382 46.7532 60.1702 46.8092 59.9702C46.8732 59.7702 46.9412 59.5622 47.0132 59.3462C47.0932 59.1302 47.1612 58.9382 47.2172 58.7702L48.5852 54.9782H49.7132L47.2652 61.4102H46.0532ZM53.1669 54.8702C53.9509 54.8702 54.5309 55.0422 54.9069 55.3862C55.2829 55.7302 55.4709 56.2782 55.4709 57.0302V61.4102H54.7029L54.4989 60.4982H54.4509C54.2669 60.7302 54.0749 60.9262 53.8749 61.0862C53.6829 61.2382 53.4589 61.3502 53.2029 61.4222C52.9549 61.4942 52.6509 61.5302 52.2909 61.5302C51.9069 61.5302 51.5589 61.4622 51.2469 61.3262C50.9429 61.1902 50.7029 60.9822 50.5269 60.7022C50.3509 60.4142 50.2629 60.0542 50.2629 59.6222C50.2629 58.9822 50.5149 58.4902 51.0189 58.1462C51.5229 57.7942 52.2989 57.6022 53.3469 57.5702L54.4389 57.5342V57.1502C54.4389 56.6142 54.3229 56.2422 54.0909 56.0342C53.8589 55.8262 53.5309 55.7222 53.1069 55.7222C52.7709 55.7222 52.4509 55.7742 52.1469 55.8782C51.8429 55.9742 51.5589 56.0862 51.2949 56.2142L50.9709 55.4222C51.2509 55.2702 51.5829 55.1422 51.9669 55.0382C52.3509 54.9262 52.7509 54.8702 53.1669 54.8702ZM53.4789 58.3022C52.6789 58.3342 52.1229 58.4622 51.8109 58.6862C51.5069 58.9102 51.3549 59.2262 51.3549 59.6342C51.3549 59.9942 51.4629 60.2582 51.6789 60.4262C51.9029 60.5942 52.1869 60.6782 52.5309 60.6782C53.0749 60.6782 53.5269 60.5302 53.8869 60.2342C54.2469 59.9302 54.4269 59.4662 54.4269 58.8422V58.2662L53.4789 58.3022ZM58.5135 61.4102H57.4575V52.2902H58.5135V61.4102ZM28.3776 68.8422C29.0896 68.8422 29.6736 68.9342 30.1296 69.1182C30.5936 69.2942 30.9376 69.5622 31.1616 69.9222C31.3856 70.2822 31.4976 70.7342 31.4976 71.2782C31.4976 71.7342 31.4136 72.1142 31.2456 72.4182C31.0776 72.7222 30.8616 72.9662 30.5976 73.1502C30.3416 73.3262 30.0696 73.4662 29.7816 73.5702L32.1336 77.4102H30.8736L28.7976 73.8702H27.0936V77.4102H26.0136V68.8422H28.3776ZM28.3176 69.7782H27.0936V72.9582H28.3776C28.8416 72.9582 29.2216 72.8982 29.5176 72.7782C29.8136 72.6502 30.0296 72.4662 30.1656 72.2262C30.3096 71.9862 30.3816 71.6862 30.3816 71.3262C30.3816 70.9502 30.3056 70.6502 30.1536 70.4262C30.0096 70.2022 29.7856 70.0382 29.4816 69.9342C29.1776 69.8302 28.7896 69.7782 28.3176 69.7782ZM35.7705 70.8702C36.5545 70.8702 37.1345 71.0422 37.5105 71.3862C37.8865 71.7302 38.0745 72.2782 38.0745 73.0302V77.4102H37.3065L37.1025 76.4982H37.0545C36.8705 76.7302 36.6785 76.9262 36.4785 77.0862C36.2865 77.2382 36.0625 77.3502 35.8065 77.4222C35.5585 77.4942 35.2545 77.5302 34.8945 77.5302C34.5105 77.5302 34.1625 77.4622 33.8505 77.3262C33.5465 77.1902 33.3065 76.9822 33.1305 76.7022C32.9545 76.4142 32.8665 76.0542 32.8665 75.6222C32.8665 74.9822 33.1185 74.4902 33.6225 74.1462C34.1265 73.7942 34.9025 73.6022 35.9505 73.5702L37.0425 73.5342V73.1502C37.0425 72.6142 36.9265 72.2422 36.6945 72.0342C36.4625 71.8262 36.1345 71.7222 35.7105 71.7222C35.3745 71.7222 35.0545 71.7742 34.7505 71.8782C34.4465 71.9742 34.1625 72.0862 33.8985 72.2142L33.5745 71.4222C33.8545 71.2702 34.1865 71.1422 34.5705 71.0382C34.9545 70.9262 35.3545 70.8702 35.7705 70.8702ZM36.0825 74.3022C35.2825 74.3342 34.7265 74.4622 34.4145 74.6862C34.1105 74.9102 33.9585 75.2262 33.9585 75.6342C33.9585 75.9942 34.0665 76.2582 34.2825 76.4262C34.5065 76.5942 34.7905 76.6782 35.1345 76.6782C35.6785 76.6782 36.1305 76.5302 36.4905 76.2342C36.8505 75.9302 37.0305 75.4662 37.0305 74.8422V74.2662L36.0825 74.3022ZM42.209 76.6662C42.369 76.6662 42.533 76.6542 42.701 76.6302C42.869 76.5982 43.005 76.5662 43.109 76.5342V77.3382C42.997 77.3942 42.837 77.4382 42.629 77.4702C42.421 77.5102 42.221 77.5302 42.029 77.5302C41.693 77.5302 41.381 77.4742 41.093 77.3622C40.813 77.2422 40.585 77.0382 40.409 76.7502C40.233 76.4622 40.145 76.0582 40.145 75.5382V71.7942H39.233V71.2902L40.157 70.8702L40.577 69.5022H41.201V70.9782H43.061V71.7942H41.201V75.5142C41.201 75.9062 41.293 76.1982 41.477 76.3902C41.669 76.5742 41.913 76.6662 42.209 76.6662ZM46.881 70.8582C47.433 70.8582 47.905 70.9782 48.297 71.2182C48.697 71.4582 49.001 71.7982 49.209 72.2382C49.425 72.6702 49.533 73.1782 49.533 73.7622V74.3982H45.129C45.145 75.1262 45.329 75.6822 45.681 76.0662C46.041 76.4422 46.541 76.6302 47.181 76.6302C47.589 76.6302 47.949 76.5942 48.261 76.5222C48.581 76.4422 48.909 76.3302 49.245 76.1862V77.1102C48.917 77.2542 48.593 77.3582 48.273 77.4222C47.953 77.4942 47.573 77.5302 47.133 77.5302C46.525 77.5302 45.985 77.4062 45.513 77.1582C45.049 76.9102 44.685 76.5422 44.421 76.0542C44.165 75.5582 44.037 74.9542 44.037 74.2422C44.037 73.5382 44.153 72.9342 44.385 72.4302C44.625 71.9262 44.957 71.5382 45.381 71.2662C45.813 70.9942 46.313 70.8582 46.881 70.8582ZM46.869 71.7222C46.365 71.7222 45.965 71.8862 45.669 72.2142C45.381 72.5342 45.209 72.9822 45.153 73.5582H48.429C48.429 73.1902 48.373 72.8702 48.261 72.5982C48.149 72.3262 47.977 72.1142 47.745 71.9622C47.521 71.8022 47.229 71.7222 46.869 71.7222Z" fill="#2A6084"/>
</g>
<defs>
<clipPath id="clip0_392_2570">
<rect width="108.39" height="108.39" fill="white"/>
</clipPath>
</defs>
</svg>
