<svg width="109" height="109" viewBox="0 0 109 109" fill="none" xmlns="http://www.w3.org/2000/svg">
<g clip-path="url(#clip0_366_1546)">
<path d="M54.2 108.4C84.1338 108.4 108.4 84.1338 108.4 54.2C108.4 24.2662 84.1338 0 54.2 0C24.2662 0 0 24.2662 0 54.2C0 84.1338 24.2662 108.4 54.2 108.4Z" fill="#EEF6FD"/>
<path d="M90.9601 82.3L93.2301 65.79L91.5401 62.87L87.9201 64.08L86.6601 71.55L55.8801 30.81L43.0101 36.75L23.7801 26L20.3601 27.52L20.8401 30.73L42.8701 43.15L54.1701 38L81.7801 74.58L74.6701 73.02L71.8201 75.35L73.0201 78.46L90.9601 82.3Z" fill="#8EC7D4" stroke="#1E6187" stroke-miterlimit="10"/>
</g>
<path d="M22.02 66.82V67.66H29.484V66.82H22.02ZM23.04 63.712V64.54H27.984V63.712H23.04ZM25.38 65.704V69.892C25.38 70.06 25.32 70.108 25.116 70.12C24.9 70.12 24.192 70.132 23.388 70.108C23.508 70.36 23.628 70.708 23.676 70.96C24.708 70.96 25.368 70.96 25.764 70.828C26.172 70.684 26.28 70.432 26.28 69.904V65.704H25.38ZM27.744 63.712V63.88C27.288 64.504 26.34 65.344 25.536 65.824C25.692 65.944 25.92 66.196 26.04 66.352C26.964 65.8 28.02 64.924 28.728 64.096L28.152 63.664L27.96 63.712H27.744ZM18.744 61.492V62.356H29.256V61.492H18.744ZM22.62 59.92C21.948 62.404 20.556 65.068 18.372 66.592C18.528 66.808 18.756 67.204 18.852 67.432C21.252 65.716 22.716 62.92 23.556 60.16L22.62 59.92ZM20.256 64.828V70.936H21.156V64.828H20.256ZM34.704 66.292V70.96H35.532V67.12H39.828V70.9H40.692V66.292H34.704ZM40.248 59.968C38.916 60.448 36.48 60.82 34.392 61.048C34.5 61.252 34.62 61.6 34.656 61.816C36.804 61.612 39.312 61.24 40.956 60.676L40.248 59.968ZM37.296 61.012V66.772H38.16V61.012H37.296ZM33.828 63.448V64.312H41.472V63.448H33.828ZM35.268 69.616V70.444H40.224V69.616H35.268ZM31.08 60.712C31.824 61.108 32.82 61.696 33.324 62.056L33.852 61.324C33.336 60.976 32.316 60.436 31.584 60.076L31.08 60.712ZM30.492 64.024C31.224 64.408 32.22 64.984 32.712 65.32L33.216 64.588C32.712 64.24 31.704 63.712 30.996 63.364L30.492 64.024ZM30.78 70.192L31.536 70.804C32.244 69.688 33.084 68.188 33.72 66.916L33.072 66.328C32.376 67.696 31.428 69.28 30.78 70.192ZM47.496 59.932V61.612H48.42V59.932H47.496ZM47.496 66.784V71.008H48.42V66.784H47.496ZM42.636 67.72V68.548H53.364V67.72H42.636ZM43.008 61.276V62.104H53.028V61.276H43.008ZM52.08 62.428C51.624 62.908 50.808 63.556 50.22 63.964L50.868 64.348C51.48 63.964 52.26 63.412 52.872 62.848L52.08 62.428ZM47.304 61.912C47.004 62.428 46.476 63.208 46.056 63.688L46.644 63.964C47.088 63.508 47.628 62.836 48.084 62.212L47.304 61.912ZM49.056 62.824C48.288 63.904 46.992 65.392 45.972 66.292L46.512 66.604C47.532 65.74 48.84 64.336 49.776 63.172L49.056 62.824ZM45.54 63.676C46.248 64.12 47.124 64.78 47.544 65.224L48.012 64.624C47.58 64.192 46.68 63.568 45.996 63.16L45.54 63.676ZM45.396 66.004L45.516 66.784C46.752 66.7 48.396 66.592 50.028 66.46V65.8C48.3 65.884 46.56 65.968 45.396 66.004ZM48.612 64.924C49.2 65.596 49.836 66.544 50.1 67.156L50.796 66.796C50.52 66.196 49.86 65.284 49.26 64.624L48.612 64.924ZM42.588 66.256L43.044 66.988C43.836 66.628 44.832 66.16 45.792 65.704L45.624 65.02C44.508 65.488 43.356 65.968 42.588 66.256ZM43.02 63.1C43.692 63.484 44.508 64.06 44.916 64.456L45.54 63.892C45.12 63.508 44.28 62.956 43.62 62.608L43.02 63.1ZM49.992 65.392C50.928 65.872 52.128 66.616 52.716 67.108L53.376 66.532C52.752 66.04 51.54 65.344 50.616 64.888L49.992 65.392Z" fill="#2C6087"/>
<defs>
<clipPath id="clip0_366_1546">
<rect width="108.39" height="108.39" fill="white"/>
</clipPath>
</defs>
</svg>
