<?xml version="1.0" standalone="no"?><!DOCTYPE svg PUBLIC "-//W3C//DTD SVG 1.1//EN" "http://www.w3.org/Graphics/SVG/1.1/DTD/svg11.dtd"><svg class="icon" width="200px" height="200.00px" viewBox="0 0 1024 1024" version="1.1" xmlns="http://www.w3.org/2000/svg"><path d="M1024 1003.52l-27.306667-102.4c-13.653333-47.786667-47.786667-85.333333-95.573333-102.4l-180.906667-61.44c-47.786667-20.48-71.68-102.4-75.093333-129.706667 30.72-27.306667 47.786667-68.266667 47.786667-109.226666 0-23.893333 10.24-27.306667 6.826666-27.306667 6.826667 0 10.24-6.826667 10.24-10.24 0-3.413333 23.893333-58.026667 23.893334-92.16v-3.413333c-3.413333-10.24-10.24-23.893333-20.48-30.72V218.453333c0-68.266667-20.48-95.573333-44.373334-109.226666-3.413333-34.133333-34.133333-105.813333-160.426666-105.813334-129.706667 0-215.04 129.706667-215.04 218.453334 0 37.546667 0 71.68-3.413334 92.16v23.893333c-6.826667 3.413333-13.653333 17.066667-17.066666 23.893333v3.413334c0 34.133333 20.48 88.746667 23.893333 92.16 3.413333 3.413333 6.826667 10.24 10.24 10.24 0 0 10.24 3.413333 10.24 27.306666 0 47.786667 47.786667 95.573333 68.266667 112.64-3.413333 27.306667-23.893333 105.813333-71.68 126.293334l-187.733334 61.44c-47.786667 17.066667-81.92 54.613333-95.573333 102.4l-27.306667 102.4c0 3.413333 0 10.24 3.413334 13.653333 0 6.826667 3.413333 10.24 10.24 10.24h989.866666c6.826667 0 10.24-3.413333 13.653334-6.826667 3.413333-3.413333 3.413333-10.24 3.413333-13.653333z" fill="#ffffff" /></svg>