<?xml version="1.0" standalone="no"?><!DOCTYPE svg PUBLIC "-//W3C//DTD SVG 1.1//EN" "http://www.w3.org/Graphics/SVG/1.1/DTD/svg11.dtd"><svg class="icon" width="200px" height="200.00px" viewBox="0 0 1024 1024" version="1.1" xmlns="http://www.w3.org/2000/svg"><path d="M836.266667 778.24l-163.84-40.96-3.413334-40.96c116.053333-17.066667 174.08-47.786667 177.493334-51.2 6.826667-3.413333 10.24-6.826667 10.24-13.653333s-3.413333-10.24-6.826667-13.653334c0 0-95.573333-71.68-95.573333-293.546666 0-232.106667-64.853333-283.306667-119.466667-283.306667h-13.653333C587.093333 13.653333 563.2 0 505.173333 0 430.08 0 273.066667 81.92 273.066667 324.266667c0 221.866667-95.573333 293.546667-95.573334 293.546666-3.413333 3.413333-6.826667 10.24-6.826666 13.653334s3.413333 10.24 10.24 13.653333c3.413333 0 58.026667 30.72 174.08 51.2l-10.24 40.96-167.253334 40.96c-105.813333 27.306667-177.493333 119.466667-177.493333 228.693333 0 10.24 6.826667 17.066667 17.066667 17.066667h989.866666c10.24 0 17.066667-6.826667 17.066667-17.066667 0-105.813333-78.506667-201.386667-187.733333-228.693333z" fill="#ffffff" /></svg>