<svg width="109" height="109" viewBox="0 0 109 109" fill="none" xmlns="http://www.w3.org/2000/svg">
<g clip-path="url(#clip0_484_4958)">
<path d="M54.59 108.4C84.5238 108.4 108.79 84.1338 108.79 54.2C108.79 24.2662 84.5238 0 54.59 0C24.6562 0 0.390015 24.2662 0.390015 54.2C0.390015 84.1338 24.6562 108.4 54.59 108.4Z" fill="#EEF6FD"/>
<path d="M91.3501 82.3L93.6201 65.79L91.9301 62.87L88.3101 64.08L87.0501 71.55L56.2701 30.81L43.4001 36.75L24.1701 26L20.7501 27.52L21.2301 30.73L43.2601 43.15L54.5601 38L82.1701 74.58L75.0601 73.02L72.2101 75.35L73.4101 78.46L91.3501 82.3Z" fill="#8EC7D4" stroke="#1E6187" stroke-miterlimit="10"/>
</g>
<path d="M22.41 66.82V67.66H29.874V66.82H22.41ZM23.43 63.712V64.54H28.374V63.712H23.43ZM25.77 65.704V69.892C25.77 70.06 25.71 70.108 25.506 70.12C25.29 70.12 24.582 70.132 23.778 70.108C23.898 70.36 24.018 70.708 24.066 70.96C25.098 70.96 25.758 70.96 26.154 70.828C26.562 70.684 26.67 70.432 26.67 69.904V65.704H25.77ZM28.134 63.712V63.88C27.678 64.504 26.73 65.344 25.926 65.824C26.082 65.944 26.31 66.196 26.43 66.352C27.354 65.8 28.41 64.924 29.118 64.096L28.542 63.664L28.35 63.712H28.134ZM19.134 61.492V62.356H29.646V61.492H19.134ZM23.01 59.92C22.338 62.404 20.946 65.068 18.762 66.592C18.918 66.808 19.146 67.204 19.242 67.432C21.642 65.716 23.106 62.92 23.946 60.16L23.01 59.92ZM20.646 64.828V70.936H21.546V64.828H20.646ZM35.094 66.292V70.96H35.922V67.12H40.218V70.9H41.082V66.292H35.094ZM40.638 59.968C39.306 60.448 36.87 60.82 34.782 61.048C34.89 61.252 35.01 61.6 35.046 61.816C37.194 61.612 39.702 61.24 41.346 60.676L40.638 59.968ZM37.686 61.012V66.772H38.55V61.012H37.686ZM34.218 63.448V64.312H41.862V63.448H34.218ZM35.658 69.616V70.444H40.614V69.616H35.658ZM31.47 60.712C32.214 61.108 33.21 61.696 33.714 62.056L34.242 61.324C33.726 60.976 32.706 60.436 31.974 60.076L31.47 60.712ZM30.882 64.024C31.614 64.408 32.61 64.984 33.102 65.32L33.606 64.588C33.102 64.24 32.094 63.712 31.386 63.364L30.882 64.024ZM31.17 70.192L31.926 70.804C32.634 69.688 33.474 68.188 34.11 66.916L33.462 66.328C32.766 67.696 31.818 69.28 31.17 70.192ZM47.886 59.932V61.612H48.81V59.932H47.886ZM47.886 66.784V71.008H48.81V66.784H47.886ZM43.026 67.72V68.548H53.754V67.72H43.026ZM43.398 61.276V62.104H53.418V61.276H43.398ZM52.47 62.428C52.014 62.908 51.198 63.556 50.61 63.964L51.258 64.348C51.87 63.964 52.65 63.412 53.262 62.848L52.47 62.428ZM47.694 61.912C47.394 62.428 46.866 63.208 46.446 63.688L47.034 63.964C47.478 63.508 48.018 62.836 48.474 62.212L47.694 61.912ZM49.446 62.824C48.678 63.904 47.382 65.392 46.362 66.292L46.902 66.604C47.922 65.74 49.23 64.336 50.166 63.172L49.446 62.824ZM45.93 63.676C46.638 64.12 47.514 64.78 47.934 65.224L48.402 64.624C47.97 64.192 47.07 63.568 46.386 63.16L45.93 63.676ZM45.786 66.004L45.906 66.784C47.142 66.7 48.786 66.592 50.418 66.46V65.8C48.69 65.884 46.95 65.968 45.786 66.004ZM49.002 64.924C49.59 65.596 50.226 66.544 50.49 67.156L51.186 66.796C50.91 66.196 50.25 65.284 49.65 64.624L49.002 64.924ZM42.978 66.256L43.434 66.988C44.226 66.628 45.222 66.16 46.182 65.704L46.014 65.02C44.898 65.488 43.746 65.968 42.978 66.256ZM43.41 63.1C44.082 63.484 44.898 64.06 45.306 64.456L45.93 63.892C45.51 63.508 44.67 62.956 44.01 62.608L43.41 63.1ZM50.382 65.392C51.318 65.872 52.518 66.616 53.106 67.108L53.766 66.532C53.142 66.04 51.93 65.344 51.006 64.888L50.382 65.392Z" fill="#2C6087"/>
<defs>
<clipPath id="clip0_484_4958">
<rect width="108.39" height="108.39" fill="white" transform="translate(0.390015)"/>
</clipPath>
</defs>
</svg>
