<svg width="109" height="109" viewBox="0 0 109 109" fill="none" xmlns="http://www.w3.org/2000/svg">
<g clip-path="url(#clip0_346_1636)">
<path d="M54.2 108.4C84.1338 108.4 108.4 84.1338 108.4 54.2C108.4 24.2662 84.1338 0 54.2 0C24.2662 0 0 24.2662 0 54.2C0 84.1338 24.2662 108.4 54.2 108.4Z" fill="#90C9D6"/>
<path d="M50.3599 31.9702L52.4099 32.9702C49.5599 31.4002 47.8399 28.5202 46.2399 25.7902C45.4631 24.4761 45.0554 22.9767 45.0599 21.4502C45.1304 19.9401 44.8746 18.4325 44.3099 17.0302C43.4399 15.2702 41.1099 14.8402 39.1599 15.0302C38.0633 15.0479 36.9921 15.3624 36.0599 15.9402C34.5199 17.0302 34.0599 19.0702 33.7299 20.9402C33.2832 23.4269 32.8266 25.9235 32.3599 28.4302C32.2701 29.301 31.9909 30.1417 31.5417 30.8932C31.0926 31.6447 30.4844 32.2887 29.7599 32.7802C28.2799 33.9902 27.0999 35.4902 25.4499 36.4102C24.6199 36.8702 21.7199 38.5601 20.3399 39.1101C19.8837 39.5992 19.5631 40.1991 19.4099 40.8502C19.0999 42.6402 22.1499 43.8502 23.5599 45.0402C24.9699 46.2302 27.3599 48.7402 24.4599 49.8302C24.2179 49.8876 24.0059 50.0329 23.8654 50.2382C23.7248 50.4434 23.6659 50.6937 23.6999 50.9401C23.7799 51.7101 24.4599 51.8302 25.2299 51.8102C29.5173 51.821 33.7295 52.9369 37.4599 55.0502L38.0299 54.2501C38.333 55.0584 38.3834 55.9397 38.1745 56.7772C37.9656 57.6148 37.5071 58.3689 36.8599 58.9401C35.6922 60.1931 34.2752 61.1879 32.6999 61.8602C30.4999 62.6802 27.9499 63.0202 25.6999 63.8602C27.1099 66.3602 28.8599 67.4602 28.5099 70.1002C28.3099 71.5602 25.8899 74.9703 27.0399 75.8903C27.6362 76.2771 28.3292 76.4884 29.0399 76.5001C32.5699 76.8301 35.7199 75.1401 39.2599 74.9201C40.1099 74.8701 41.2599 75.1802 41.9899 74.7902C42.3999 74.5802 43.4499 75.1401 43.8899 74.9801C44.5399 74.7501 44.7299 75.3702 45.3799 75.6002C47.5099 76.3702 48.9999 78.2502 50.3799 80.0502C51.1527 80.9097 51.6749 81.9646 51.8899 83.1002C51.9 84.0812 51.7235 85.055 51.3699 85.9701C50.8178 87.6767 50.7349 89.5005 51.1299 91.2501C51.3407 92.1199 51.7686 92.9221 52.3737 93.5814C52.9789 94.2408 53.7414 94.7357 54.5899 95.0202C56.4699 95.5502 58.4199 94.7303 60.2899 94.1603C62.8803 93.38 65.5919 93.0816 68.2899 93.2802C70.7799 93.4602 73.4999 94.0201 75.6399 92.7101C77.7799 91.4001 78.4299 88.9803 78.7399 86.6603C79.3099 82.2803 78.7399 77.5201 81.0899 73.7602C82.2343 72.1991 83.4734 70.7097 84.7999 69.3002C86.0099 67.7902 86.9699 65.8801 86.6199 63.9701C86.1799 61.5401 83.8099 59.9703 81.6199 58.9103C78.8902 57.5908 76.0362 56.5455 73.0999 55.7902C70.5099 55.1302 67.7599 54.6502 65.6499 53.0202C64.7061 52.3375 63.9941 51.3822 63.6097 50.2826C63.2253 49.1831 63.187 47.9921 63.4999 46.8701C63.9729 45.6544 64.1138 44.3348 63.9082 43.0467C63.7026 41.7585 63.1579 40.5482 62.3299 39.5402C60.9279 37.614 59.1226 36.0169 57.0399 34.8601C54.8399 33.6201 52.4299 33.3602 50.3599 31.9702Z" fill="#F9E3D2"/>
<path d="M49.1001 34.1299L51.1501 35.18C54.0001 36.64 56.4801 32.4899 53.6701 30.8599C51.1701 29.4099 49.1501 26.4799 48.0201 23.8599C47.6168 22.501 47.4311 21.0869 47.4701 19.67C47.4386 17.7349 46.7068 15.8768 45.4101 14.44C42.9601 12.08 38.4101 11.98 35.5001 13.44C32.0601 15.09 31.5501 19.07 30.9401 22.44C30.5801 24.44 30.2801 26.4399 29.8501 28.3599C29.773 28.8577 29.5937 29.3341 29.3235 29.7592C29.0533 30.1843 28.698 30.5489 28.2801 30.83C27.1116 32.0132 25.8583 33.1094 24.5301 34.1099C23.5301 34.7399 22.4501 35.2999 21.4001 35.8599C20.8601 36.1599 20.3101 36.44 19.7501 36.71L19.5901 36.79C19.9701 36.62 19.0001 37.0599 19.0801 37.0099C18.5662 37.3704 18.1363 37.8377 17.8201 38.3799C17.2953 39.0981 16.992 39.9542 16.9476 40.8426C16.9032 41.731 17.1195 42.613 17.5701 43.3799C18.4892 44.5985 19.6632 45.6019 21.0101 46.32C21.767 46.7873 22.4426 47.375 23.0101 48.06C23.1264 48.187 23.221 48.3322 23.2901 48.4899C23.3801 48.4899 23.2101 48.6701 23.2901 48.3801L23.4401 47.7399C23.8401 47.3899 23.9101 47.3 23.6401 47.47C23.1576 47.6162 22.7131 47.8666 22.3381 48.2036C21.9631 48.5405 21.6668 48.9557 21.4701 49.4199C21.2429 49.9423 21.1471 50.5127 21.191 51.0807C21.2349 51.6488 21.4172 52.1973 21.722 52.6786C22.0268 53.16 22.4448 53.5596 22.9395 53.8422C23.4342 54.1248 23.9906 54.282 24.5601 54.3C26.4467 54.3448 28.3265 54.5456 30.1801 54.9001C32.2638 55.4409 34.2774 56.2227 36.1801 57.2299C36.7575 57.5437 37.433 57.6254 38.0685 57.4582C38.7041 57.2909 39.2519 56.8874 39.6001 56.33L40.1701 55.54L35.6001 54.9399C36.3701 56.8199 33.9401 58.4299 32.4901 59.2299C30.2601 60.4599 27.4401 60.5999 25.0601 61.4599C24.695 61.5678 24.359 61.7564 24.0766 62.0117C23.7943 62.2669 23.5729 62.5824 23.4289 62.9348C23.2849 63.2871 23.2219 63.6673 23.2446 64.0473C23.2673 64.4273 23.3751 64.7974 23.5601 65.1301C24.4052 66.2553 25.1865 67.4272 25.9001 68.6401C26.037 69.0095 26.0812 69.4068 26.0289 69.7973C25.9766 70.1878 25.8294 70.5597 25.6001 70.8801C24.4801 73.3501 23.1101 76.67 26.2601 78.33C29.4101 79.99 33.5301 78.6301 36.7601 77.8701C37.5282 77.6704 38.3105 77.5298 39.1001 77.4499C39.8201 77.3999 40.5301 77.5299 41.2501 77.4499C41.4301 77.4499 42.4401 77.4499 42.5601 77.2299C42.9201 77.1099 42.7501 77.0999 42.0501 77.2299L42.4601 77.33C43.2585 77.5502 44.1016 77.5502 44.9001 77.33H43.6001L43.1601 77.04L43.6701 77.4299C43.8385 77.5496 44.0157 77.6566 44.2001 77.7499C44.6833 77.9524 45.1512 78.1897 45.6001 78.4599C46.489 79.1388 47.274 79.9441 47.9301 80.85C48.532 81.4829 49.0222 82.2132 49.3801 83.0099C49.6601 83.8899 49.1201 84.8799 48.9101 85.7199C47.7301 90.4399 49.1501 96.72 54.7501 97.57C57.4101 97.98 59.7501 96.8099 62.3201 96.2099C64.6188 95.7136 66.9826 95.5922 69.3201 95.85C71.6801 96.08 74.0401 96.2299 76.2501 95.2099C77.2705 94.6857 78.1757 93.9627 78.9125 93.0834C79.6493 92.2041 80.2026 91.1864 80.5401 90.09C82.0701 85.9 81.0901 81.2499 82.3801 77.0099C83.0301 74.8999 84.5201 73.47 85.9401 71.85C87.7416 70.0511 88.8952 67.705 89.2201 65.1799C89.5601 60.1799 84.7601 57.49 80.8101 55.8C78.3935 54.7652 75.8991 53.9226 73.3501 53.28C71.3181 52.9316 69.356 52.2561 67.5401 51.28C66.7595 50.8078 66.1714 50.0744 65.8801 49.2099C65.5401 48.2099 66.0001 47.32 66.2101 46.29C66.4929 45.01 66.5175 43.6865 66.2822 42.3969C66.047 41.1073 65.5567 39.8776 64.8401 38.78C63.3339 36.4783 61.3402 34.5359 59.0001 33.09C56.6801 31.63 53.8901 31.24 51.5901 29.78C48.8701 28.05 46.3501 32.37 49.0701 34.1C51.5001 35.64 54.4201 36.0999 56.8301 37.6299C58.7201 38.8799 61.0201 41.0099 61.4201 43.3599C61.5094 44.3772 61.3728 45.4016 61.0201 46.3599C60.6197 47.8135 60.6475 49.3518 61.1001 50.79C61.5899 52.1434 62.3741 53.3711 63.3962 54.3845C64.4182 55.3979 65.6526 56.1718 67.0101 56.6501C69.5201 57.6501 72.2301 58.1001 74.8101 58.9101C77.4233 59.6495 79.9255 60.7358 82.2501 62.1401C83.0194 62.5645 83.6484 63.2037 84.0601 63.9799C84.2055 64.5047 84.2223 65.0569 84.1091 65.5895C83.996 66.1222 83.7562 66.6196 83.4101 67.04C81.9301 69.39 79.5801 71.04 78.4101 73.6C77.2951 76.2904 76.7013 79.1681 76.6601 82.08C76.5101 84.4 76.6101 87.0299 75.5701 89.1699C74.5301 91.3099 72.2801 91.1699 70.1501 90.9599C67.2389 90.6292 64.2941 90.7507 61.4201 91.32C59.9301 91.64 58.5201 92.21 57.0501 92.56C56.59 92.737 56.0885 92.7773 55.606 92.6762C55.1235 92.5751 54.6805 92.3368 54.3301 91.9899C52.5301 89.9899 53.8401 87.2399 54.2701 84.9899C54.9101 81.7399 53.1601 79.3899 51.2101 76.9899C50.4078 75.994 49.4763 75.1096 48.4401 74.36C47.7967 73.9821 47.1285 73.648 46.4401 73.36C45.9532 73.0161 45.4216 72.7401 44.8601 72.54C44.4247 72.45 43.9755 72.45 43.5401 72.54C42.6401 72.71 44.3901 72.7499 43.6101 72.4799C42.8713 72.2685 42.0919 72.2412 41.3401 72.4001C40.0401 72.6001 38.6601 72.4599 37.3401 72.6699C35.7701 72.9199 34.2501 73.3799 32.7001 73.6699C32.013 73.8316 31.3141 73.9387 30.6101 73.9899C29.9715 73.8939 29.3251 73.8605 28.6801 73.8901C28.4801 74.0601 29.0601 74.5901 29.2201 74.8901C29.3801 75.1901 29.1301 75.38 29.3101 74.82C29.4103 74.4799 29.5305 74.146 29.6701 73.82C30.1695 72.859 30.5812 71.855 30.9001 70.82C31.7101 67.4 29.4401 65.1699 27.9001 62.4799L26.4101 66.1501C29.7401 64.9501 33.4101 64.73 36.3401 62.55C39.2701 60.37 41.9701 57.1999 40.4401 53.4799C40.2953 53.0175 40.0213 52.6061 39.6504 52.2944C39.2795 51.9826 38.8271 51.7835 38.3467 51.7204C37.8663 51.6573 37.3778 51.733 36.939 51.9384C36.5002 52.1439 36.1293 52.4707 35.8701 52.8801L35.3001 53.6799L38.7201 52.78C35.9377 51.2653 32.9395 50.1862 29.8301 49.58C28.9631 49.4246 28.0885 49.3143 27.2101 49.2499C26.4473 49.1003 25.6628 49.1003 24.9001 49.2499C25.4901 48.9699 24.7201 52.5199 26.2001 51.6999C26.5177 51.5221 26.8131 51.3074 27.0801 51.06C27.6005 50.5767 27.9805 49.9616 28.1801 49.28C28.8301 46.93 27.1101 44.71 25.4101 43.28C24.5301 42.54 23.5501 41.98 22.6101 41.28C22.305 41.0517 22.0144 40.8045 21.7401 40.54C21.9201 40.42 21.6201 41.38 22.1101 40.78L21.0101 41.42C24.1504 40.2089 27.0518 38.4517 29.5801 36.2299C31.0641 35.0563 32.4065 33.7139 33.5801 32.2299C34.6801 30.5599 34.8701 28.51 35.2201 26.6C35.6201 24.42 35.9201 22.2 36.4501 20.04C36.8601 18.4 37.4001 17.54 39.1801 17.39C40.4601 17.29 41.8901 17.31 42.3001 18.6C42.8901 20.46 42.4801 22.6 43.0201 24.46C43.7125 26.4759 44.7255 28.3668 46.0201 30.06C47.3464 32.0831 49.1011 33.79 51.1601 35.06L53.6801 30.7399L51.6301 29.7399C48.7601 28.3399 46.2301 32.6499 49.1001 34.1299Z" fill="#F9E3D2"/>
<path d="M28.6399 33.4201C26.6399 35.5201 23.4899 35.8401 21.0999 37.3501C19.8599 38.1401 18.3899 39.2701 18.4699 40.9001C18.5499 42.7301 20.9699 43.9001 22.2599 44.8101L23.2099 41.3101C22.9499 41.3101 22.8899 41.2401 22.7499 41.0201L20.1899 43.5901C21.6258 44.2878 22.9694 45.1611 24.1899 46.1901C25.4799 47.3701 27.9699 46.19 27.3199 44.37C26.6583 42.5465 26.4825 40.5822 26.8099 38.6701H23.1999L24.7699 45.3001C24.8869 45.6892 25.1261 46.0302 25.4521 46.2726C25.7782 46.5151 26.1737 46.646 26.5799 46.646C26.9862 46.646 27.3817 46.5151 27.7077 46.2726C28.0337 46.0302 28.273 45.6892 28.3899 45.3001L30.6299 37.4401L26.9399 36.9401L26.1899 44.7201C26.1931 45.1291 26.3281 45.5261 26.5749 45.8522C26.8217 46.1783 27.1672 46.416 27.5599 46.5301C30.7399 47.4501 34.0899 46.8001 37.3099 46.4601L47.8599 45.3501C48.2694 45.3488 48.6673 45.2145 48.9939 44.9676C49.3205 44.7206 49.558 44.3742 49.6708 43.9806C49.7836 43.587 49.7655 43.1675 49.6192 42.7851C49.473 42.4026 49.2066 42.078 48.8599 41.86C45.6699 39.93 41.5299 40.1801 37.9299 39.9601C34.0799 39.7201 29.9299 39.0601 26.1699 40.1501C24.5299 40.6201 24.2399 43.4901 26.1699 43.7601C29.0699 44.1801 34.9599 45.1801 36.0099 41.3201C36.9099 37.9901 33.6499 34.8701 30.6399 34.3201C29.3399 34.0601 27.8299 35.1801 28.3299 36.6301C28.4979 37.0008 28.5847 37.4031 28.5847 37.8101C28.5847 38.2171 28.4979 38.6193 28.3299 38.99C28.1146 39.3829 28.0465 39.8397 28.1381 40.2782C28.2297 40.7168 28.4749 41.1082 28.8295 41.382C29.1841 41.6558 29.6248 41.794 30.0722 41.7717C30.5196 41.7493 30.9444 41.5678 31.2699 41.2601C31.9322 40.7094 32.4608 40.0156 32.8159 39.2309C33.171 38.4462 33.3434 37.591 33.3199 36.73C33.3212 36.0142 33.0576 35.3233 32.5799 34.7901C32.4199 34.6201 32.2399 34.4801 32.0699 34.3301L31.6899 34.0301C31.4199 33.7501 31.4499 33.86 31.7999 34.37L31.3099 36.2001C32.02 35.1267 32.6197 33.9842 33.0999 32.7901C33.4899 32.0101 33.8699 31.2301 34.2699 30.4601C34.4199 30.1701 34.5699 29.8801 34.7299 29.5901C34.7799 29.4901 34.8699 29.3701 34.9099 29.2701C35.0399 28.9001 35.6199 29.1601 34.3999 29.7201L32.9599 29.9101C42.5799 31.5901 51.0899 37.2501 61.0299 37.5701L60.0799 34.0701C58.8811 34.7079 57.9161 35.7105 57.3247 36.9329C56.7332 38.1553 56.546 39.5342 56.7899 40.87C57.0928 42.2202 57.7557 43.4631 58.7083 44.4667C59.6608 45.4703 60.8674 46.1972 62.1999 46.5701L63.1999 42.9501C58.3927 41.682 53.4948 40.7859 48.5499 40.2701C46.1399 39.9501 43.7199 39.6301 41.3299 39.1901C39.3299 38.8401 36.7999 38.6501 35.3299 37.1301L33.9999 40.3301C37.9999 40.2235 41.9666 40.2467 45.8999 40.4001V36.6501L40.6699 36.86C38.2699 36.95 38.2499 40.59 40.6699 40.61L52.1399 40.7001L50.8199 37.5C50.1429 38.0626 49.3708 38.4995 48.5399 38.7901C48.108 38.919 47.7356 39.1964 47.4885 39.5734C47.2415 39.9504 47.1357 40.4027 47.1899 40.8501C47.2438 41.3 47.4609 41.7144 47.8001 42.0148C48.1392 42.3153 48.5768 42.4808 49.0299 42.48C51.8593 42.1458 54.5326 41.0037 56.7299 39.1901L54.4599 39.48C54.8299 39.61 54.9399 39.3101 54.7699 38.5801C55.5699 39.5801 55.9699 39.68 55.9699 38.99L55.7199 39.9401V39.8401C55.9439 39.6049 56.1038 39.3161 56.1844 39.0015C56.265 38.6869 56.2637 38.3568 56.1804 38.0429C56.0972 37.729 55.9348 37.4416 55.7089 37.2083C55.483 36.975 55.201 36.8035 54.8899 36.7101L51.5999 35.5C49.8099 34.84 48.4599 37.3901 49.7699 38.6301C53.4147 42.0813 57.4682 45.0736 61.8399 47.5401C63.8399 48.6601 66.1699 50.1901 68.5599 49.8501C69.6568 49.6856 70.6769 49.1891 71.4832 48.4275C72.2895 47.6659 72.8432 46.6758 73.0699 45.5901L69.4499 44.5901C68.1968 52.1522 68.5031 59.8907 70.3499 67.3301C72.0199 74.9109 73.1825 82.5946 73.8299 90.3301C74.0599 92.7101 77.8299 92.7301 77.5799 90.3301C76.9855 82.7322 75.8864 75.1821 74.2899 67.73C73.3779 64.2178 72.7625 60.6353 72.4499 57.0201C72.1958 53.2056 72.404 49.3745 73.0699 45.61C73.4899 43.26 69.9099 42.23 69.4499 44.61C69.1499 46.17 67.9199 46.3901 66.6099 45.8201C64.8365 45.0069 63.1252 44.0643 61.4899 43C58.2427 40.9767 55.2073 38.6315 52.4299 36L50.5999 39.1301L53.8999 40.3401L53.0699 37.2101C51.1299 39.3701 52.9199 43.0001 55.9299 42.1501C58.7499 41.3501 58.8199 37.5101 56.3399 36.2601C55.9763 36.0717 55.5637 35.9995 55.1578 36.0531C54.7518 36.1068 54.3721 36.2837 54.0699 36.5601C52.6175 37.7365 50.8713 38.4937 49.0199 38.75L49.5199 42.4301C50.9605 41.9241 52.2959 41.1581 53.4599 40.1701C54.7599 39.0901 53.6499 36.9801 52.1299 36.9701L40.6599 36.8801V40.6301L45.8899 40.4201C46.3636 40.3855 46.8065 40.1729 47.1299 39.8251C47.4532 39.4773 47.6329 39.02 47.6329 38.5451C47.6329 38.0702 47.4532 37.6129 47.1299 37.2651C46.8065 36.9172 46.3636 36.7047 45.8899 36.6701C41.8899 36.5234 37.9233 36.5001 33.9899 36.6001C33.6249 36.6126 33.2712 36.7299 32.9711 36.9382C32.6711 37.1464 32.4374 37.4368 32.2981 37.7745C32.1588 38.1121 32.1198 38.4827 32.1858 38.842C32.2517 39.2012 32.4198 39.5339 32.6699 39.8001C34.2899 41.4701 36.4799 42.0701 38.6699 42.5201C41.3099 43.0501 43.9799 43.4301 46.6699 43.7901C51.9097 44.3313 57.1011 45.2673 62.1999 46.5901C64.5299 47.2701 65.4899 43.7101 63.1999 42.9701C60.9099 42.2301 59.0899 38.7501 61.9699 37.3301C63.7299 36.4701 62.7699 33.8901 61.0299 33.8401C53.3199 33.5901 46.3299 29.8401 39.0999 27.5801C37.3548 26.9442 35.5433 26.508 33.6999 26.2801C32.5099 26.2001 31.9299 26.9101 31.4199 27.8501C30.4799 29.5801 29.6599 31.3801 28.7599 33.1301C28.6599 33.3301 28.1299 34.28 28.6499 33.49C28.3462 33.8238 28.154 34.2441 28.1003 34.6922C28.0465 35.1403 28.1338 35.5939 28.3499 35.99C28.4299 36.12 29.6299 37.4001 29.7099 37.3101C29.5999 37.4301 29.7899 36.4701 29.4999 36.9401C29.4544 37.1311 29.421 37.3248 29.3999 37.5201C29.2369 37.9684 28.9402 38.3558 28.5499 38.6301L31.4899 40.9001C31.9165 40.1008 32.1747 39.2226 32.2487 38.3196C32.3227 37.4167 32.2108 36.5081 31.9199 35.6501L29.6099 37.9601C30.3661 38.072 31.0667 38.4224 31.6099 38.9601C31.8799 39.2201 32.6099 40.1801 32.4499 40.3901C32.3999 40.4501 30.8199 40.4601 30.5499 40.4701C29.4233 40.4836 28.2971 40.4167 27.1799 40.2701V43.7901C30.4399 42.8501 34.1199 43.5101 37.4599 43.7101C39.2099 43.8201 40.9599 43.9201 42.7099 44.0401C44.1968 44.0561 45.658 44.4299 46.9699 45.1301L47.9199 41.6301L37.8599 42.6901C34.8599 43.0001 31.5399 43.7901 28.6199 42.9401L29.9999 44.75L30.7499 36.9701C30.9599 34.8201 27.6299 34.4901 27.0699 36.4701L24.8299 44.3401H28.4499L26.8699 37.7101C26.4599 35.9801 23.5899 35.8601 23.2599 37.7101C22.752 40.2705 22.9279 42.9194 23.7699 45.3901L26.8999 43.5701C25.4479 42.3137 23.8457 41.2422 22.1299 40.3801C20.5399 39.5201 18.5199 41.2901 19.5599 42.9401C19.9449 43.5818 20.4861 44.1155 21.1331 44.4915C21.7801 44.8675 22.5118 45.0734 23.2599 45.0901C25.2599 45.2101 25.5599 42.6001 24.2099 41.6001C23.6699 41.2001 22.3599 40.6 22.0099 39.99L22.2699 40.9301V40.62L22.0099 41.62C22.6899 40.26 25.1099 39.62 26.4199 39.12C28.2589 38.4904 29.9381 37.4665 31.3399 36.12C33.0099 34.38 30.3399 31.7201 28.6899 33.4701L28.6399 33.4201Z" fill="#FFADAE"/>
<path d="M64.9199 49.3699C65.7044 50.4714 66.2775 51.709 66.6099 53.0198C66.9999 54.3298 67.2199 55.6998 67.6699 57.0198C68.0567 58.0617 68.5041 59.0802 69.0099 60.0698C69.4321 61.0342 69.9948 61.9305 70.6799 62.7297C70.9133 62.9566 71.2013 63.1193 71.516 63.2021C71.8307 63.285 72.1614 63.2854 72.4763 63.2029C72.7911 63.1204 73.0793 62.958 73.3129 62.7314C73.5466 62.5049 73.7177 62.222 73.8099 61.9099C74.2381 60.28 74.3702 58.5865 74.1999 56.9099C74.1974 55.2096 74.0435 53.5128 73.7399 51.8398C73.6067 51.3624 73.2903 50.9568 72.8595 50.7114C72.4288 50.4661 71.9186 50.4008 71.4399 50.5298C70.9698 50.6635 70.5688 50.9724 70.3196 51.3928C70.0703 51.8132 69.9917 52.3132 70.0999 52.7898L70.1599 53.1299C70.2399 53.5799 70.1599 52.8699 70.1599 53.1299C70.1599 53.3899 70.2399 53.8297 70.2699 54.1897C70.3399 55.0697 70.3899 55.9498 70.4099 56.8398C70.4299 57.7298 70.4099 58.5399 70.4099 59.3999C70.4099 59.5799 70.4099 59.7697 70.4099 59.9497V60.2097C70.4099 60.4597 70.4799 59.8398 70.4099 60.0698C70.369 60.3339 70.3088 60.5946 70.2299 60.8499L73.3599 60.0198C73.0799 59.7298 73.6099 60.4097 73.2799 59.9197C73.1599 59.7397 73.0499 59.5499 72.9399 59.3599C72.6699 58.8799 72.4099 58.3599 72.1699 57.8899C72.0499 57.6499 71.9299 57.3999 71.8199 57.1499C71.7099 56.8999 71.6899 56.8597 71.6199 56.7197C71.5499 56.5797 71.4299 56.2798 71.5399 56.5398C71.6499 56.7998 71.5399 56.4399 71.4799 56.3899C71.4199 56.3399 71.4099 56.1999 71.3699 56.1099C71.3299 56.0199 71.2599 55.7899 71.2099 55.6299C70.7899 54.1799 70.5099 52.6998 70.0199 51.2598C69.4904 49.6051 68.671 48.0577 67.5999 46.6898C67.2477 46.3399 66.7714 46.1436 66.2749 46.1436C65.7784 46.1436 65.3021 46.3399 64.9499 46.6898C64.6094 47.0469 64.4194 47.5215 64.4194 48.0149C64.4194 48.5083 64.6094 48.9827 64.9499 49.3398L64.9199 49.3699Z" fill="#FFADAE"/>
<path d="M71.9399 40.4601C71.8799 41.8301 71.3399 43.86 70.2799 44.74C69.193 45.6306 67.8248 46.1057 66.4199 46.0801C64.5639 45.9718 62.8236 45.1429 61.5699 43.77C60.7496 42.7592 60.3615 41.4655 60.4899 40.17C60.6599 37.85 62.8599 35.1001 65.2199 34.8301" fill="#F1512C"/>
<path d="M70.94 40.4601C70.9519 41.7118 70.5197 42.9271 69.72 43.89C69.1467 44.4015 68.4568 44.7647 67.7107 44.9478C66.9645 45.1308 66.1849 45.1282 65.44 44.9401C64.7207 44.7907 64.0387 44.4987 63.4341 44.0813C62.8295 43.664 62.3147 43.1296 61.92 42.51C61.6063 41.8869 61.4505 41.1963 61.4662 40.4988C61.4819 39.8013 61.6686 39.1184 62.01 38.51C62.3312 37.8119 62.813 37.1998 63.4161 36.7235C64.0192 36.2473 64.7265 35.9206 65.48 35.77C65.6068 35.7353 65.7255 35.676 65.8293 35.5954C65.9331 35.5147 66.02 35.4144 66.085 35.3002C66.15 35.186 66.1919 35.06 66.2082 34.9296C66.2245 34.7992 66.2149 34.6668 66.18 34.5401C66.1453 34.4133 66.0859 34.2946 66.0053 34.1908C65.9247 34.087 65.8244 34.0001 65.7101 33.9351C65.5959 33.8701 65.47 33.8282 65.3395 33.8119C65.2091 33.7956 65.0767 33.8052 64.95 33.8401C64.0255 34.0321 63.1528 34.4197 62.3905 34.9768C61.6281 35.5339 60.9938 36.2476 60.53 37.0701C59.9896 37.9037 59.6482 38.8503 59.532 39.8369C59.4158 40.8236 59.5281 41.8237 59.86 42.76C61.37 46.76 66.86 48.2301 70.31 45.9201C71.1442 45.2717 71.8161 44.4381 72.2726 43.4853C72.729 42.5324 72.9575 41.4865 72.94 40.4301C73 39.1401 71 39.1401 70.94 40.4301V40.4601Z" fill="#1E6189"/>
<path d="M70.0201 32.1698L69.4401 26.9298C69.42 26.4353 69.2251 25.9641 68.8901 25.5999C68.536 25.2492 68.0584 25.0516 67.5601 25.0498C67.3146 25.0499 67.0717 25.0985 66.8451 25.1929C66.6186 25.2873 66.413 25.4256 66.2401 25.5999C66.0604 25.7707 65.9186 25.9773 65.8238 26.2064C65.7291 26.4355 65.6835 26.682 65.6901 26.9298L66.2701 32.1698C66.282 32.666 66.4781 33.14 66.8201 33.4998C67.1741 33.8504 67.6518 34.048 68.1501 34.0498C68.6453 34.0475 69.1197 33.8498 69.4701 33.4998C69.6483 33.3278 69.7892 33.1211 69.8838 32.8922C69.9784 32.6634 70.0248 32.4174 70.0201 32.1698Z" fill="#CBFFFF"/>
<path d="M74.9499 34.79C75.6011 33.5808 76.3502 32.427 77.1899 31.3401L76.8999 31.7201C77.0499 31.5201 77.1999 31.33 77.3599 31.14C77.6983 30.7788 77.8907 30.3049 77.8999 29.8101C77.895 29.3173 77.7018 28.8449 77.3599 28.49C77.0059 28.1394 76.5282 27.9419 76.0299 27.9401C75.7825 27.9371 75.5371 27.9843 75.3085 28.0789C75.08 28.1734 74.8729 28.3132 74.6999 28.49C73.5677 29.862 72.5635 31.3348 71.6999 32.89C71.4485 33.3198 71.3778 33.8318 71.5034 34.3136C71.629 34.7954 71.9406 35.2078 72.3699 35.4601C72.8099 35.7101 73.3303 35.7783 73.8199 35.65C74.2854 35.5091 74.6835 35.2034 74.9399 34.79H74.9499Z" fill="#CBFFFF"/>
<path d="M75.0999 40.1799L80.4999 40.09C80.7577 40.1088 81.0165 40.0742 81.2603 39.9885C81.5041 39.9028 81.7277 39.7679 81.9169 39.5919C82.1062 39.416 82.2572 39.2029 82.3604 38.9659C82.4636 38.729 82.5169 38.4734 82.5169 38.215C82.5169 37.9565 82.4636 37.7008 82.3604 37.4639C82.2572 37.227 82.1062 37.014 81.9169 36.838C81.7277 36.6621 81.5041 36.527 81.2603 36.4413C81.0165 36.3556 80.7577 36.3211 80.4999 36.34L75.0999 36.4299C74.6263 36.4645 74.1833 36.6771 73.86 37.0249C73.5367 37.3727 73.3569 37.83 73.3569 38.3049C73.3569 38.7798 73.5367 39.2371 73.86 39.585C74.1833 39.9328 74.6263 40.1453 75.0999 40.1799Z" fill="#CBFFFF"/>
<path d="M26.9899 48.2298C35.0699 46.5898 43.1999 45.2299 51.4799 45.7699C54.7399 45.9899 58.1899 46.4699 61.0799 48.0899C62.6847 49.1335 63.9252 50.65 64.6299 52.4298C66.6176 56.8357 68.0777 61.4612 68.9799 66.2098C70.1299 71.3298 70.9799 76.5198 71.7599 81.7198C72.2299 84.9998 72.7099 88.2999 72.9499 91.6099C73.0499 92.8799 75.0499 92.8899 74.9499 91.6099C74.2699 83.2607 73 74.9699 71.1499 66.7999C70.1985 61.7105 68.6825 56.7431 66.6299 51.9898C65.9331 50.243 64.8769 48.6623 63.5299 47.3499C61.1599 45.3499 57.6199 44.4699 54.5999 44.0599C45.1599 42.7999 35.6999 44.4299 26.4599 46.2999C25.1999 46.5599 25.7299 48.4798 26.9899 48.2298Z" fill="#1E6189"/>
<path d="M35 34.1399C34.9357 33.5949 35.0044 33.0426 35.2 32.5299C35.2808 32.3514 35.3779 32.1807 35.49 32.0199C35.5293 31.9179 35.5991 31.8306 35.69 31.7699C35.97 31.5099 35.9399 31.5199 35.5899 31.7699H34.5899H34.4599L33.79 31.1C33.6 30.83 34.15 30.0999 33.79 30.1899C33.7 30.1899 33.49 30.4499 33.42 30.5099C33.09 30.7999 32.78 31.0999 32.48 31.4199C31.8148 32.1412 31.225 32.9286 30.72 33.7699C29.67 35.5199 29.2999 38 31.2099 39.33C31.6251 39.5767 32.0855 39.7375 32.5639 39.8031C33.0424 39.8687 33.5291 39.8377 33.9953 39.7118C34.4615 39.5859 34.8978 39.3678 35.2782 39.0703C35.6586 38.7728 35.9754 38.402 36.2099 37.9799C36.6113 37.1616 36.9457 36.3122 37.2099 35.4399C37.2699 35.2799 37.6299 34.4399 37.8399 34.5199C38.1589 34.5981 38.4926 34.5928 38.8089 34.5044C39.1252 34.416 39.4133 34.2477 39.6455 34.0155C39.8777 33.7833 40.0461 33.4951 40.1345 33.1788C40.2229 32.8626 40.2282 32.5289 40.1499 32.21C40.0209 31.5782 39.7158 30.9958 39.27 30.5299L37 33.5299C38.8494 34.5734 40.8351 35.3543 42.8999 35.85C44.3799 36.2 46.9 36.0699 47.69 37.6399L49.31 34.8099L35.08 34.2899C32.66 34.1999 32.67 37.9499 35.08 38.0399L49.31 38.5599C49.6381 38.5556 49.9595 38.4657 50.2424 38.2994C50.5253 38.1331 50.7601 37.8961 50.9235 37.6116C51.087 37.327 51.1736 37.0048 51.1747 36.6766C51.1758 36.3485 51.0915 36.0255 50.9299 35.7399C49.7999 33.4999 47.39 32.8899 45.13 32.4899C42.9407 32.1139 40.8309 31.3702 38.89 30.2899C38.4961 30.0844 38.0425 30.0242 37.6087 30.1199C37.175 30.2155 36.7887 30.4609 36.5178 30.813C36.2469 31.165 36.1087 31.6012 36.1274 32.045C36.1461 32.4889 36.3204 32.9118 36.6199 33.2399C36.4799 32.9399 36.46 32.9499 36.53 33.2399L38.8399 30.9299C38.1547 30.7873 37.4448 30.8178 36.7743 31.0186C36.1038 31.2193 35.494 31.5842 35 32.08C34.1952 33.0301 33.6112 34.1469 33.29 35.35C33.24 35.48 32.92 36.1399 32.92 36.1499C33.0186 36.2162 33.1318 36.2573 33.25 36.2699C33.3147 36.2847 33.3729 36.32 33.4161 36.3704C33.4593 36.4208 33.4852 36.4837 33.49 36.5499C33.49 36.7499 33.54 36.7199 33.49 36.4299C33.9093 35.5336 34.4735 34.7126 35.16 33.9999C36 33.1099 37.07 32.47 37.35 31.21C37.4208 30.8566 37.4147 30.492 37.3321 30.1412C37.2495 29.7904 37.0924 29.4615 36.8713 29.1769C36.6502 28.8922 36.3704 28.6586 36.051 28.4917C35.7315 28.3248 35.3799 28.2288 35.02 28.21C33.69 28.21 32.65 29.4199 32.02 30.4799C31.3648 31.6267 31.0655 32.9425 31.16 34.2599C31.1726 34.7519 31.3737 35.2202 31.7217 35.5682C32.0697 35.9162 32.538 36.1172 33.03 36.1299C33.526 36.1273 34.0012 35.9298 34.3529 35.58C34.7046 35.2301 34.9047 34.7559 34.91 34.2599L35 34.1399Z" fill="#FFADAE"/>
<path d="M35.4 19.28C36.21 17.92 37.57 15.57 39.5 16.28C41.43 16.99 42.39 19.59 43.22 21.28C45.54 25.89 47.58 30.71 51.39 34.35L53.66 31.35C49.5934 28.9634 45.5234 26.57 41.45 24.17C39.88 23.24 38.8 22.26 38.57 20.35C38.48 19.62 38.89 19.54 39.47 19.19C40.2684 18.7604 40.9407 18.1295 41.42 17.3599L37.99 16.91C39.53 20.57 42.41 23.46 43.94 27.09L47.37 25.65C46.23 23.84 44.29 22.88 42.93 21.3C42.23 20.48 41.63 19.44 40.4 19.08C39.7251 18.9002 39.0149 18.9002 38.34 19.08C38.0008 19.1831 37.6671 19.3032 37.34 19.44L37 19.56C36.42 19.67 36.55 20.08 37.39 20.78L33.96 21.22C34.96 23.28 33.61 25.82 32.68 27.66L36.11 28.1099C35.92 27.3099 36.93 26.82 37.6 26.84L37.1 23.15C36.3192 23.2076 35.5342 23.1503 34.77 22.9799C33.9038 22.8826 33.0272 23.0172 32.23 23.3699C30.77 24.0399 29.53 25.66 30.23 27.32C30.3365 27.6689 30.5412 27.9798 30.8196 28.2155C31.098 28.4512 31.4385 28.6018 31.8002 28.6492C32.1619 28.6967 32.5296 28.639 32.8594 28.4831C33.1892 28.3272 33.4672 28.0796 33.66 27.77C35.16 25.22 36.46 22.4999 35.75 19.4799C35.33 17.7299 32.49 17.6499 32.13 19.4799L31.01 25.1099L34.7 25.6099C34.5125 23.858 34.8282 22.0889 35.61 20.5099C36.68 18.3599 33.44 16.5099 32.37 18.6199C31.2524 20.7749 30.7605 23.1998 30.95 25.6199C30.9593 26.0685 31.1271 26.4995 31.4236 26.8362C31.7201 27.173 32.1262 27.394 32.57 27.46C33.019 27.5249 33.4761 27.4234 33.8555 27.1747C34.2349 26.9261 34.5103 26.5474 34.63 26.1099L35.75 20.4799H32.1C32.55 22.3999 31.32 24.3 30.39 25.89L33.81 26.34C33.81 26.34 33.55 26.85 33.6 26.89C33.65 26.93 33.69 26.79 33.71 26.79C33.73 26.79 33.96 26.72 34.04 26.7C34.3181 26.6801 34.5977 26.7003 34.87 26.7599C35.9362 26.935 37.0238 26.935 38.09 26.7599C40.22 26.3299 39.64 23.14 37.59 23.08C36.831 23.0478 36.0746 23.189 35.3783 23.4929C34.682 23.7967 34.0641 24.2552 33.5715 24.8336C33.0789 25.4119 32.7246 26.095 32.5355 26.8307C32.3464 27.5665 32.3274 28.3358 32.48 29.08C32.5877 29.4283 32.7933 29.7382 33.0723 29.9728C33.3513 30.2075 33.6919 30.3569 34.0535 30.4033C34.4151 30.4496 34.7824 30.3911 35.1116 30.2344C35.4408 30.0778 35.7179 29.8298 35.91 29.52C37.54 26.3 38.91 22.78 37.19 19.3C36.43 17.78 34.19 18.2999 33.77 19.7499C33.6705 20.1091 33.6433 20.4845 33.6903 20.8543C33.7372 21.2241 33.8572 21.5809 34.0434 21.9039C34.2295 22.2268 34.478 22.5095 34.7744 22.7354C35.0709 22.9614 35.4093 23.1261 35.77 23.22C36.6142 23.4101 37.4962 23.3403 38.3 23.02C38.56 22.94 39.08 22.6 39.3 22.66C39.52 22.72 39.09 22.5399 39.35 22.7299C39.61 22.9199 40.04 23.73 40.41 24.08C40.8084 24.4801 41.2291 24.8574 41.67 25.21C42.5813 25.8507 43.3962 26.6184 44.09 27.4899C44.3236 27.8769 44.688 28.1673 45.1173 28.3085C45.5466 28.4498 46.0123 28.4326 46.43 28.2599C46.8536 28.0896 47.1993 27.7687 47.4005 27.3588C47.6017 26.949 47.6443 26.4793 47.52 26.04C45.98 22.39 43.1 19.4999 41.57 15.8699C40.98 14.4699 39.02 13.87 38.14 15.42C37.84 15.95 36.79 16.3199 36.27 16.7499C35.8114 17.1259 35.4398 17.5968 35.1808 18.1303C34.9219 18.6638 34.7817 19.2471 34.77 19.84C34.7506 21.082 35.0205 22.3114 35.5586 23.431C36.0967 24.5505 36.888 25.5293 37.87 26.29C39.9705 27.7256 42.1507 29.041 44.4 30.2299L51.73 34.54C52.1229 34.7554 52.5797 34.8235 53.0182 34.7319C53.4568 34.6403 53.8482 34.3951 54.1219 34.0405C54.3957 33.6859 54.5339 33.2451 54.5116 32.7977C54.4892 32.3502 54.3078 31.9256 54 31.6C49.68 27.48 48.06 21.7099 45.05 16.7299C43.65 14.4199 41.46 12.24 38.57 12.32C35.68 12.4 33.57 14.87 32.13 17.27C31.8781 17.6983 31.8066 18.2092 31.9313 18.6902C32.056 19.1713 32.3667 19.5831 32.795 19.835C33.2234 20.087 33.7342 20.1585 34.2153 20.0338C34.6963 19.909 35.1081 19.5983 35.36 19.17L35.4 19.28Z" fill="#FFADAE"/>
<path d="M37.5199 29.3901C38.2519 29.5073 38.9716 29.6914 39.6699 29.9402C39.7299 29.9402 40.1799 30.1402 40.0199 30.0702L40.3599 30.2301C40.7099 30.4001 41.0399 30.5902 41.3599 30.7902C41.6451 30.9548 41.9685 31.0416 42.2979 31.042C42.6272 31.0424 42.9508 30.9563 43.2364 30.7922C43.522 30.6282 43.7594 30.392 43.925 30.1073C44.0906 29.8226 44.1785 29.4995 44.1799 29.1702C44.1369 28.4142 43.8803 27.6861 43.4399 27.0702C43.1999 26.7402 42.9299 26.4302 42.6699 26.0702L42.3799 25.7301C42.325 25.6464 42.2649 25.5662 42.1999 25.4901L42.0199 25.2501L41.7599 24.8801C41.5999 24.6401 41.4299 24.3901 41.2799 24.1401L41.1599 23.9302L41.2299 24.0802C41.2628 24.2105 41.2544 24.3477 41.2061 24.473C41.1577 24.5984 41.0717 24.7057 40.9599 24.7802C40.5599 25.2602 40.5099 25.4002 40.7899 25.2202C40.7099 25.3102 40.5099 25.3402 40.7899 25.2202L41.4999 24.9102C42.5597 24.3651 43.4924 23.6023 44.2369 22.6718C44.9813 21.7412 45.5208 20.6637 45.8199 19.5101L42.1999 18.5101C41.8276 20.222 41.9314 22.0031 42.4999 23.6602C42.6509 24.1188 42.9725 24.5018 43.3981 24.7297C43.8238 24.9577 44.3208 25.0131 44.7862 24.8845C45.2516 24.756 45.6497 24.4532 45.898 24.0391C46.1463 23.625 46.2257 23.1312 46.1199 22.6602C46.0103 22.3732 45.9201 22.0792 45.8499 21.7802C45.8069 21.6021 45.7735 21.4218 45.7499 21.2401C45.7499 21.5101 45.7499 21.2402 45.7499 21.1002C45.7299 20.7939 45.7299 20.4865 45.7499 20.1802V19.7301C45.7499 20.0601 45.7499 19.5801 45.8099 19.5001C45.9157 19.029 45.8363 18.5353 45.588 18.1212C45.3397 17.7071 44.9416 17.4044 44.4762 17.2759C44.0108 17.1473 43.5138 17.2027 43.0881 17.4307C42.6625 17.6586 42.3409 18.0415 42.1899 18.5001C42.1199 18.7701 42.0299 19.0202 41.9399 19.2802C41.8499 19.5402 42.1399 18.9002 41.9399 19.2802C41.8799 19.3902 41.8299 19.5101 41.7699 19.6101C41.6316 19.8475 41.4814 20.0779 41.3199 20.3002C41.4699 20.1002 41.4199 20.1902 41.3199 20.3002C41.2419 20.3981 41.1584 20.4916 41.0699 20.5802C40.8899 20.7602 40.6999 20.9102 40.5199 21.0802C40.8199 20.8002 40.5199 21.0802 40.4199 21.1502L40.1099 21.3502L39.7799 21.5302L39.5999 21.6301L39.1499 21.8202C39.016 21.8762 38.8886 21.9466 38.7699 22.0302C38.3325 22.332 37.9963 22.7589 37.8054 23.2549C37.6145 23.7509 37.5777 24.2929 37.6999 24.8102C37.8907 25.4818 38.2099 26.1101 38.6399 26.6602C39.0599 27.2602 39.4999 27.8502 39.9699 28.4102C40.1499 28.6202 40.3399 28.8302 40.5099 29.0602C40.2699 28.7402 40.5699 29.1702 40.5899 29.2102L40.5299 29.0502C40.5899 29.2602 40.5899 29.2502 40.5299 29.0502L43.3499 27.4302C41.8979 26.5399 40.289 25.9357 38.6099 25.6502C38.1317 25.5317 37.6262 25.6016 37.1981 25.8455C36.77 26.0893 36.452 26.4885 36.3099 26.9602C36.1802 27.4388 36.2439 27.9491 36.4871 28.3812C36.7303 28.8134 37.1335 29.1326 37.6099 29.2701L37.5199 29.3901Z" fill="#FFADAE"/>
<path d="M50.31 91.6099C50.36 88.9199 50.31 86.2198 50.1 83.5398C49.92 81.3898 49.55 79.1998 48.1 77.5398C44.8 73.7398 39.25 75.0297 35.01 75.9497L31.1 76.7898C29.9461 77.1673 28.7327 77.33 27.52 77.2698C24.81 76.7698 26.46 73.1198 26.93 71.5498C27.6024 69.4155 27.4489 67.1065 26.5 65.0799C26.2701 64.6027 25.992 64.1503 25.67 63.7298C25.5351 63.5314 25.3847 63.3441 25.22 63.1697L25.31 63.4597C25.31 63.8497 25.5 63.8898 25.83 63.5598C26.34 63.5598 26.89 63.2797 27.4 63.1997C28.08 63.0997 28.76 63.0497 29.4 62.9297C32.4 62.4097 39.26 59.4897 36.15 55.4497C34.72 53.5897 32.02 53.4499 29.9 53.0899C27.5988 52.722 25.3452 52.1015 23.18 51.2398C23.1 51.2398 23.02 51.0097 23 50.9597C22.98 50.9097 22.72 51.4897 23 50.9597C23.1976 50.6938 23.4258 50.4522 23.68 50.2398C24.2885 49.7513 24.7061 49.0648 24.86 48.2998C24.99 46.7598 23.55 45.6698 22.41 44.9298C20.94 43.9298 19.27 43.3598 19.01 41.4098C18.75 39.4598 20.95 38.9699 22.41 38.1999C29.84 34.2999 33 26.7298 33.95 18.7298C34.14 17.1398 31.64 17.1498 31.45 18.7298C30.61 25.7298 27.84 32.4398 21.36 35.9298C19.93 36.6998 18.09 37.1299 17.16 38.5699C16.7075 39.3766 16.4749 40.2879 16.4854 41.2128C16.496 42.1377 16.7493 43.0437 17.22 43.8399C18.06 45.3799 19.6 46.0998 21.02 46.9998C21.35 47.2198 22.32 47.7399 22.38 48.1499C22.38 47.8499 22.06 48.3198 21.91 48.4698C21.76 48.6198 21.34 49.0599 21.09 49.3799C18.09 53.2399 25.5 54.8398 27.8 55.2698C29.06 55.5098 30.33 55.7298 31.59 55.9798C32.4 56.1298 34.32 56.3498 34.37 57.4898C34.37 58.3598 32.79 59.0797 32.14 59.4297C31.0666 59.9841 29.9124 60.3656 28.72 60.5598C26.91 60.8598 23.72 60.8099 22.89 62.8499C22.45 63.9099 23.12 64.5399 23.7 65.3499C24.3862 66.3132 24.7723 67.4578 24.81 68.6399C24.89 70.8899 23.48 72.8699 23.46 75.1199C23.3872 76.0982 23.6427 77.0728 24.186 77.8897C24.7294 78.7065 25.5295 79.319 26.46 79.6299C28.86 80.3399 31.79 79.2198 34.13 78.7198C36.96 78.1098 40.13 77.0499 43.02 77.6199C45.91 78.1899 47.12 80.0999 47.45 82.8199C47.7517 85.7629 47.8486 88.7232 47.74 91.6797C47.74 92.0112 47.8717 92.3293 48.1061 92.5638C48.3405 92.7982 48.6585 92.9297 48.99 92.9297C49.3215 92.9297 49.6395 92.7982 49.8739 92.5638C50.1083 92.3293 50.24 92.0112 50.24 91.6797L50.31 91.6099Z" fill="#1E6189"/>
<path d="M41.2099 14.1801C45.5999 15.9001 47.1099 20.7001 48.5699 24.7601C49.8999 28.4401 51.4999 32.76 55.5699 33.98C57.2142 34.3633 58.886 34.6174 60.5699 34.7401C62.4209 34.9488 64.2287 35.4413 65.9299 36.2001C67.6382 36.9413 69.1139 38.1312 70.2003 39.6436C71.2866 41.1561 71.9431 42.9346 72.0999 44.7901C72.2999 46.6101 72.2399 48.4501 72.3499 50.2801C72.4599 52.1101 72.6699 53.9701 72.7899 55.8101C72.9899 59.1001 73.0599 62.3802 73.3199 65.6602C74.0099 74.2102 75.6499 82.6602 76.7599 91.1202C76.9199 92.3802 78.9199 92.3902 78.7599 91.1202C77.7599 83.3402 76.2599 75.6201 75.5099 67.8101C74.8199 60.5101 74.6499 53.1401 74.1899 45.8101C73.9699 42.2601 72.9399 38.8901 70.1899 36.5001C67.4399 34.1101 63.8899 33.1201 60.2699 32.6401C57.6699 32.3101 55.1999 32.2201 53.4199 30.0901C52.1731 28.3783 51.2325 26.4633 50.6399 24.4301C48.8599 19.5101 47.0699 14.2802 41.7899 12.2202C40.5899 11.7502 40.0699 13.6801 41.2599 14.1401L41.2099 14.1801Z" fill="#1E6189"/>
</g>
<defs>
<clipPath id="clip0_346_1636">
<rect width="108.39" height="108.39" fill="white"/>
</clipPath>
</defs>
</svg>
