<svg width="120" height="120" viewBox="0 0 120 120" fill="none" xmlns="http://www.w3.org/2000/svg">
<rect width="120" height="120" rx="60" fill="#EEF7FC"/>
<path d="M28.5512 100.067L18.8896 90.4049C17.7035 89.2188 17.7035 87.2926 18.8896 86.1064C20.0758 84.9203 22.002 84.9203 23.1881 86.1064L32.8497 95.768C34.0359 96.9541 34.0359 98.8803 32.8497 100.067C31.6737 101.253 29.7475 101.253 28.5512 100.067Z" fill="white" stroke="#29678F" stroke-width="3" stroke-miterlimit="10" stroke-linecap="round" stroke-linejoin="round"/>
<path d="M83.1445 29.9415L85.1214 27.9645C86.5813 26.5047 88.9334 26.5047 90.3932 27.9645L91.0015 28.5728C92.4614 30.0327 92.4614 32.3847 91.0015 33.8446L89.0246 35.8215L83.1445 29.9415Z" fill="white" stroke="#29678F" stroke-width="3" stroke-miterlimit="10" stroke-linecap="round" stroke-linejoin="round"/>
<path d="M90.8901 28.0761L108.966 10" stroke="#29678F" stroke-width="3" stroke-miterlimit="10" stroke-linecap="round" stroke-linejoin="round"/>
<path d="M32.1084 83.0393L26.137 89.0107L29.9507 92.8244L35.9221 86.853L32.1084 83.0393Z" fill="#ABABAB" stroke="#29678F" stroke-width="3" stroke-miterlimit="10" stroke-linecap="round" stroke-linejoin="round"/>
<path d="M88.9637 35.5885L83.3777 30.0025C79.8496 26.4744 74.1216 26.4744 70.5936 30.0025L69.6609 30.9352L88.031 49.3053L88.9637 48.3726C92.4918 44.8344 92.4918 39.1166 88.9637 35.5885Z" fill="#C96868" stroke="#29678F" stroke-width="3" stroke-miterlimit="10" stroke-linecap="round" stroke-linejoin="round"/>
<path d="M69.6639 30.9317L29.4838 71.1118L47.8498 89.4778L88.0298 49.2977L69.6639 30.9317Z" fill="#CCE6F9" fill-opacity="0.3" stroke="#29678F" stroke-width="3" stroke-miterlimit="10" stroke-linecap="round" stroke-linejoin="round"/>
<path d="M27.0711 73.5252C25.8342 74.762 25.8342 76.7693 27.0711 78.0062L40.9602 91.8953C42.197 93.1321 44.2044 93.1321 45.4412 91.8953L47.8642 89.4723L29.4839 71.1123L27.0711 73.5252Z" fill="#CCE6F9" fill-opacity="0.3" stroke="#29678F" stroke-width="3" stroke-miterlimit="10" stroke-linecap="round" stroke-linejoin="round"/>
<path d="M36.1852 64.4111L40.0579 68.294" stroke="#29678F" stroke-width="3" stroke-miterlimit="10" stroke-linecap="round" stroke-linejoin="round"/>
<path d="M42.8762 57.7197L46.7591 61.5925" stroke="#29678F" stroke-width="3" stroke-miterlimit="10" stroke-linecap="round" stroke-linejoin="round"/>
<path d="M49.5775 51.0186L53.4604 54.9014" stroke="#29678F" stroke-width="3" stroke-miterlimit="10" stroke-linecap="round" stroke-linejoin="round"/>
<path d="M56.2686 44.3276L60.1514 48.2004" stroke="#29678F" stroke-width="3" stroke-miterlimit="10" stroke-linecap="round" stroke-linejoin="round"/>
<path d="M62.97 37.626L66.8528 41.5089" stroke="#29678F" stroke-width="3" stroke-miterlimit="10" stroke-linecap="round" stroke-linejoin="round"/>
<path d="M113.082 16.1738C113.082 16.1738 97.8751 37.6259 113.082 37.6259C128.289 37.6259 113.082 16.1738 113.082 16.1738Z" fill="#F2512D"/>
</svg>
