<svg width="120" height="120" viewBox="0 0 120 120" fill="none" xmlns="http://www.w3.org/2000/svg">
<rect width="120" height="120" rx="60" fill="#EEF7FC"/>
<path d="M29 36.4902L92.68 36.5102V96.2502C92.68 99.2002 90.29 101.59 87.34 101.59H34.34C31.39 101.59 29 99.2002 29 96.2502V92.3202V36.4902Z" fill="#E6E6E6" stroke="#29678F" stroke-width="3" stroke-miterlimit="10" stroke-linecap="round" stroke-linejoin="round"/>
<path d="M29 46.28V25.8C29 22.85 31.39 20.46 34.34 20.46H87.34C90.29 20.46 92.68 22.85 92.68 25.8V46.28H29Z" fill="#C96868" stroke="#29678F" stroke-width="3" stroke-miterlimit="10"/>
<path d="M46.0901 17V23.78" stroke="#29678F" stroke-width="3" stroke-miterlimit="10" stroke-linecap="round" stroke-linejoin="round"/>
<path d="M61.29 17V23.78" stroke="#29678F" stroke-width="3" stroke-miterlimit="10" stroke-linecap="round" stroke-linejoin="round"/>
<path d="M75.5901 17V23.78" stroke="#29678F" stroke-width="3" stroke-miterlimit="10" stroke-linecap="round" stroke-linejoin="round"/>
<path d="M92.68 36.1201C92.68 53.0901 90.53 72.3901 77.68 92.3101H77.34H14C26.85 72.3901 29 53.0801 29 36.1201H92.68Z" fill="white"/>
<path d="M92.68 36.1201C92.68 53.0901 90.53 72.3901 77.68 92.3101H77.34H14C26.85 72.3901 29 53.0801 29 36.1201" fill="white"/>
<path d="M92.68 36.1201C92.68 53.0901 90.53 72.3901 77.68 92.3101H77.34H14C26.85 72.3901 29 53.0801 29 36.1201" stroke="#29678F" stroke-width="3" stroke-miterlimit="10" stroke-linecap="round" stroke-linejoin="round"/>
<path d="M29 36H83" stroke="#29678F" stroke-width="3" stroke-miterlimit="10" stroke-linecap="round" stroke-linejoin="round"/>
<path d="M51.309 81.4021C57.8726 81.8323 64.1318 78.792 65.2492 72.7162C66.0208 68.5199 63.7979 65.7199 60.3622 64.3888L60.4024 64.1703C64.1632 63.0011 66.4033 60.5822 66.9982 57.3476C68.0673 51.534 64.1668 48.0933 57.3371 47.6456C53.4344 47.3898 49.8793 48.6609 46.353 50.9956L49.4682 56.0216C51.7855 54.404 53.6476 53.5528 55.865 53.6982C58.3042 53.858 59.4096 55.1692 58.9996 57.3984C58.5254 59.9774 56.446 61.5221 50.8137 61.1529L49.8008 66.6605C56.7192 67.114 57.9217 68.8738 57.4072 71.6713C56.9571 74.1191 54.7283 75.2559 51.6682 75.0554C49.096 74.8868 47.031 73.4243 45.3729 71.4576L40.836 76.1149C42.7245 79.0257 46.0758 81.0591 51.309 81.4021Z" fill="#F2512D"/>
</svg>
