<svg width="120" height="120" viewBox="0 0 120 120" fill="none" xmlns="http://www.w3.org/2000/svg">
<rect width="120" height="120" rx="60" fill="#EEF7FC"/>
<path d="M18 38.0459H102V90.1823C102 94.6005 98.4183 98.1823 94 98.1823H26C21.5817 98.1823 18 94.6005 18 90.1823V38.0459Z" fill="#ECF7FF"/>
<path d="M18 29.8184C18 25.4001 21.5817 21.8184 26 21.8184H94C98.4183 21.8184 102 25.4001 102 29.8184V38.0456H18V29.8184Z" fill="white"/>
<rect x="18" y="21.8184" width="84" height="76.3636" rx="8" stroke="#29678F" stroke-width="3"/>
<rect x="43.2273" y="61.3638" width="33.5455" height="18.2727" rx="5.5" fill="#F2512D" stroke="white" stroke-width="3"/>
<path d="M18 38.0459H95.6055" stroke="#29678F" stroke-width="3" stroke-miterlimit="10" stroke-linecap="round" stroke-linejoin="round"/>
<path d="M25.5932 30.7354H26.7032V29.6265H25.5932V30.7354Z" stroke="#29678F" stroke-width="3" stroke-miterlimit="10" stroke-linecap="round" stroke-linejoin="round"/>
<path d="M35.3061 29.623H34.196V30.7319H35.3061V29.623Z" stroke="#29678F" stroke-width="3" stroke-miterlimit="10" stroke-linecap="round" stroke-linejoin="round"/>
<path d="M43.8982 29.623H42.7881V30.7319H43.8982V29.623Z" stroke="#29678F" stroke-width="3" stroke-miterlimit="10" stroke-linecap="round" stroke-linejoin="round"/>
<path d="M86.0843 76.6403L68.4922 70.8594L74.1079 88.9689L77.6989 85.2625L83.7826 91.5251L88.5675 86.5995L82.4838 80.3369L86.0843 76.6403Z" fill="white" stroke="#29678F" stroke-width="3" stroke-miterlimit="10" stroke-linecap="round" stroke-linejoin="round"/>
<path d="M63.5737 65.7963L61.0332 63.1812" stroke="#29678F" stroke-width="3" stroke-miterlimit="10" stroke-linecap="round" stroke-linejoin="round"/>
<path d="M75.8557 65.7963L78.3962 63.1812" stroke="#29678F" stroke-width="3" stroke-miterlimit="10" stroke-linecap="round" stroke-linejoin="round"/>
<path d="M61.0332 81.0546L63.5737 78.4395" stroke="#29678F" stroke-width="3" stroke-miterlimit="10" stroke-linecap="round" stroke-linejoin="round"/>
<path d="M57.4326 72.1177H61.0332" stroke="#29678F" stroke-width="3" stroke-miterlimit="10" stroke-linecap="round" stroke-linejoin="round"/>
<path d="M69.7146 59.4746V63.1811" stroke="#29678F" stroke-width="3" stroke-miterlimit="10" stroke-linecap="round" stroke-linejoin="round"/>
</svg>
