<svg width="24" height="24" viewBox="0 0 24 24" fill="none" xmlns="http://www.w3.org/2000/svg">
<path d="M10.1251 14.0001H18.0001V12.5001H11.6251L10.1251 14.0001ZM6.0001 14.0001H7.9751L14.2751 7.7751C14.3751 7.6751 14.4251 7.5501 14.4251 7.4001C14.4251 7.2501 14.3751 7.1251 14.2751 7.0251L12.9001 5.7751C12.8168 5.69176 12.7126 5.6501 12.5876 5.6501C12.4626 5.6501 12.3584 5.69176 12.2751 5.7751L6.0001 12.1501V14.0001ZM1.8501 22.1501V3.5501C1.8501 3.1001 2.02093 2.70426 2.3626 2.3626C2.70426 2.02093 3.1001 1.8501 3.5501 1.8501H20.4501C20.9001 1.8501 21.2959 2.02093 21.6376 2.3626C21.9793 2.70426 22.1501 3.1001 22.1501 3.5501V16.4501C22.1501 16.8834 21.9793 17.2751 21.6376 17.6251C21.2959 17.9751 20.9001 18.1501 20.4501 18.1501H5.8501L1.8501 22.1501ZM3.5501 18.1501L5.2751 16.4501H20.4501V3.5501H3.5501V18.1501ZM3.5501 3.5501V18.1501V3.5501Z" fill="white"/>
</svg>
