<svg width="6" height="9" viewBox="0 0 6 9" fill="none" xmlns="http://www.w3.org/2000/svg">
<path d="M3.00566 8.57143C2.71941 8.13841 2.46371 7.75687 2.21399 7.37204C1.62089 6.45715 0.987954 5.56471 0.450652 4.61813C-0.282575 3.32633 -0.0986043 1.89393 0.839183 0.918312C1.80686 -0.0889897 3.34836 -0.291638 4.55447 0.429843C5.77784 1.16057 6.31647 2.64313 5.81105 4.02075C5.63904 4.49007 5.37669 4.93366 5.10705 5.35876C4.43492 6.41821 3.7349 7.46049 3.00566 8.57143ZM3.00964 4.63331C3.93813 4.63133 4.67667 3.89929 4.678 2.97912C4.67933 2.04773 3.92618 1.31041 2.98175 1.31833C2.0599 1.32559 1.32269 2.07215 1.32999 2.99034C1.33664 3.91051 2.07783 4.63529 3.00964 4.63331Z" fill="#7BB8C8"/>
</svg>
